<svg width="37px" height="37px" viewBox="0 0 37 37" xmlns="http://www.w3.org/2000/svg">
    <title>
        cloud-m-l
    </title>
    <path d="M30.43 28.275a6.578 6.578 0 0 0 1.738-.507C33.653 27.087 34.5 25.922 34.5 24c0-1.921-.845-3.081-2.329-3.757a6.553 6.553 0 0 0-1.729-.5 5.593 5.593 0 0 0-.77-.07l-.935.002-.063-.935a7.979 7.979 0 0 0-.048-.439c-.05-.373-.12-.79-.218-1.241a15.49 15.49 0 0 0-1.316-3.768c-1.71-3.349-4.455-5.307-8.595-5.29-4.176.016-6.788 1.546-8.27 4.1a9.383 9.383 0 0 0-1.066 2.857 9.012 9.012 0 0 0-.14.937c-.015.16-.02.269-.021.314l-.01.885-.88.097a6.675 6.675 0 0 0-.872.178 8.368 8.368 0 0 0-1.995.798C3.506 19.15 2.5 20.639 2.5 22.846c0 2.18 1.076 3.635 2.953 4.582a9.36 9.36 0 0 0 2.174.762c.444.098.782.146.877.157H29.67c.135 0 .404-.018.76-.072zM33 18.422c2.16.984 3.5 2.823 3.5 5.577s-1.34 4.596-3.497 5.587c-1.248.573-2.471.76-3.33.761l-21.25-.003a9.584 9.584 0 0 1-1.23-.202c-.897-.2-1.795-.5-2.642-.928C2.051 27.95.5 25.856.5 22.846c0-2.984 1.432-5.102 3.757-6.42A10.23 10.23 0 0 1 7.07 15.34c.031-.232.074-.493.131-.778a11.36 11.36 0 0 1 1.297-3.465c1.835-3.164 5.1-5.078 9.992-5.097 4.956-.02 8.354 2.404 10.385 6.381a17.459 17.459 0 0 1 1.49 4.256c.087.408.154.775.203 1.093.727.091 1.575.3 2.433.692z" fill="#232323"/>
</svg>
