<svg width="23px" height="23px" viewBox="0 0 23 23" xmlns="http://www.w3.org/2000/svg">
    <title>
        cloud
    </title>
    <path d="M20.158 16.727c.553-.29.842-.742.842-1.728 0-.985-.289-1.438-.842-1.726a2.452 2.452 0 0 0-.991-.273h-1.845l-.149-1.839a7.787 7.787 0 0 0-.167-.97 9.571 9.571 0 0 0-.812-2.272c-.978-1.889-2.43-2.928-4.69-2.919-2.397.01-3.841.796-4.72 2.111a5.12 5.12 0 0 0-.79 2.047l-.123 1.556-1.54.258c-.223.038-.698.205-1.161.54-.745.536-1.17 1.314-1.17 2.587 0 1.189.449 1.892 1.29 2.39.326.193.691.338 1.058.435.144.039.259.063.33.076h14.488c.186 0 .61-.074.992-.273zM19.167 19H4.542S0 18.526 0 14.099C0 9.67 4 9 4 9s.472-5.971 7.495-6c7.023-.029 7.672 8 7.672 8S23 11 23 15c0 3.999-3.833 4-3.833 4z" fill="#232323"/>
</svg>
