<svg width="61px" height="61px" viewBox="0 0 61 61" xmlns="http://www.w3.org/2000/svg">
    <title>
        currency-l
    </title>
    <path d="M32 46.084c5.092-.511 9.36-3.215 9.36-8.61 0-10.962-17.052-7.482-17.052-14.268 0-2.842 2.61-4.06 6.032-4.06 2.842 0 5.916.986 8.294 2.494l1.74-3.596c-2.231-1.521-5.217-2.51-8.374-2.735v-3.816h-4v3.96c-4.432.68-7.984 3.186-7.984 8.101-.058 10.846 17.052 7.076 16.878 14.442-.058 3.016-2.958 4.35-6.554 4.35s-7.54-1.45-10.15-3.886l-1.74 3.422c2.42 2.322 5.928 3.757 9.55 4.169V50h4v-3.916zM57 30.5C57 15.864 45.135 4 30.5 4 15.864 4 4 15.864 4 30.5 4 45.135 15.865 57 30.5 57S57 45.135 57 30.5zm4 0C61 47.344 47.344 61 30.5 61S0 47.344 0 30.5C0 13.655 13.656 0 30.5 0S61 13.655 61 30.5z" fill="#232323" fill-rule="evenodd"/>
</svg>
