<svg width="23px" height="23px" viewBox="0 0 23 23" xmlns="http://www.w3.org/2000/svg">
    <title>
        currency
    </title>
    <path d="M11 17.07a7.864 7.864 0 0 1-1.274-.317 6.88 6.88 0 0 1-2.099-1.121l1.026-1.653c1.178.887 2.318 1.33 3.42 1.33.481 0 .861-.11 1.14-.332.279-.222.418-.504.418-.846 0-.507-.671-.963-2.014-1.368a2.331 2.331 0 0 0-.228-.076c-2.103-.57-3.154-1.52-3.154-2.85 0-.937.364-1.688 1.093-2.252.467-.361 1.024-.607 1.672-.737V5h2v1.8c.861.125 1.686.447 2.474.966l-.798 1.577a4.76 4.76 0 0 0-2.679-.817c-.507 0-.918.092-1.235.276a.896.896 0 0 0-.475.826c0 .33.165.57.494.722.228.114.548.222.96.323.411.101.775.203 1.092.304.317.101.624.215.921.342.298.127.618.304.96.532.684.456 1.026 1.165 1.026 2.128 0 .963-.348 1.732-1.045 2.309a3.71 3.71 0 0 1-1.695.776V19h-2v-1.93zM21 12a9 9 0 1 0-18 0 9 9 0 0 0 18 0zm2 0c0 6.075-4.925 11-11 11S1 18.075 1 12 5.925 1 12 1s11 4.925 11 11z" fill="#232323"/>
</svg>
