<svg width="37px" height="37px" viewBox="0 0 37 37" xmlns="http://www.w3.org/2000/svg">
    <title>
        currency-m-l
    </title>
    <path d="M19.928 27c2.72-.387 4.932-1.922 4.932-4.851 0-6.237-9.702-4.257-9.702-8.118 0-1.617 1.485-2.31 3.432-2.31 1.617 0 3.366.561 4.719 1.419l.99-2.046c-1.16-.79-2.676-1.328-4.299-1.513V7h-2v2.537c-2.855.208-5.284 1.626-5.284 4.692-.033 6.171 9.702 4.026 9.603 8.217-.033 1.716-1.683 2.475-3.729 2.475-2.046 0-4.29-.825-5.775-2.211l-.99 1.947c1.541 1.48 3.86 2.325 6.175 2.43V30h2v-3h-.072zM35 18.5C35 9.387 27.613 2 18.5 2S2 9.387 2 18.5C2 27.612 9.387 35 18.5 35S35 27.613 35 18.5zm2 0C37 28.717 28.717 37 18.5 37S0 28.717 0 18.5C0 8.282 8.283 0 18.5 0S37 8.282 37 18.5z" fill="#232323" fill-rule="evenodd"/>
</svg>
