<svg width="37px" height="37px" viewBox="0 0 37 37" xmlns="http://www.w3.org/2000/svg">
    <title>
        currency-m
    </title>
    <path d="M17.5 27.196c-.898-.1-1.82-.308-2.764-.625-1.376-.462-2.591-1.111-3.647-1.947l1.782-2.871c2.046 1.54 4.026 2.31 5.94 2.31.836 0 1.496-.192 1.98-.578.484-.385.726-.874.726-1.468 0-.88-1.166-1.672-3.498-2.376a4.05 4.05 0 0 0-.396-.132c-3.652-.99-5.478-2.64-5.478-4.95 0-1.628.632-2.931 1.898-3.91.942-.73 2.094-1.187 3.457-1.373V6.308h3v2.987c1.467.226 2.873.781 4.218 1.667l-1.386 2.739c-1.43-.946-2.981-1.419-4.653-1.419-.88 0-1.595.16-2.145.479-.55.319-.825.797-.825 1.435 0 .572.286.99.858 1.254.396.198.951.385 1.666.561a28.98 28.98 0 0 1 1.898.528c.55.176 1.083.374 1.6.594.518.22 1.073.528 1.667.924 1.188.792 1.782 2.024 1.782 3.696 0 1.672-.605 3.008-1.815 4.01-.804.665-1.76 1.11-2.865 1.332V30h-3v-2.804zM34 18.5C34 9.94 27.06 3 18.5 3 9.94 3 3 9.94 3 18.5 3 27.06 9.94 34 18.5 34 27.06 34 34 27.06 34 18.5zm3 0C37 28.717 28.717 37 18.5 37S0 28.717 0 18.5C0 8.282 8.283 0 18.5 0S37 8.282 37 18.5z" fill="#232323"/>
</svg>
