<svg width="37px" height="37px" viewBox="0 0 37 37" xmlns="http://www.w3.org/2000/svg">
    <title>
        help-m-l
    </title>
    <path d="M35 19c0-8.837-7.163-16-16-16S3 10.163 3 19c0 8.836 7.164 16 16 16s16-7.164 16-16zm2 0c0 9.941-8.059 18-18 18S1 28.941 1 19 9.059 1 19 1s18 8.059 18 18zm-25-3.638h1.974a7.112 7.112 0 0 1 .281-2.256c.21-.69.523-1.29.94-1.801a4.31 4.31 0 0 1 1.598-1.206c.647-.293 1.389-.439 2.224-.439.606 0 1.18.105 1.723.314a4.563 4.563 0 0 1 1.425.861c.407.365.731.81.971 1.331.24.522.36 1.097.36 1.723 0 .815-.193 1.556-.579 2.224a7.796 7.796 0 0 1-1.457 1.817 39.882 39.882 0 0 0-1.707 1.63c-.47.48-.846.98-1.128 1.503a6.113 6.113 0 0 0-.61 1.754c-.126.647-.178 1.451-.157 2.412h1.973c.021-.96.063-1.697.126-2.208.062-.512.188-.945.376-1.3.188-.355.475-.716.861-1.081.386-.366.903-.872 1.55-1.52a12.18 12.18 0 0 0 1.959-2.349c.511-.814.767-1.806.767-2.976 0-.919-.167-1.733-.501-2.443a5.38 5.38 0 0 0-1.379-1.817 6.115 6.115 0 0 0-2.02-1.143A7.54 7.54 0 0 0 19.11 8c-1.127 0-2.13.178-3.006.533a6.424 6.424 0 0 0-2.24 1.488c-.616.636-1.08 1.41-1.394 2.318-.313.908-.47 1.916-.47 3.023zM18 28v3h2v-3h-2z" fill="#232323"/>
</svg>
