<svg width="61px" height="61px" viewBox="0 0 61 61" xmlns="http://www.w3.org/2000/svg">
    <title>
        help-l
    </title>
    <path d="M29 44v4h4v-4h-4zm28-13C57 16.64 45.36 5 31 5S5 16.64 5 31c0 14.359 11.64 26 26 26s26-11.64 26-26zm4 0c0 16.568-13.432 30-30 30C14.432 61 1 47.568 1 31 1 14.43 14.432 1 31 1c16.568 0 30 13.43 30 30zm-39.997-5.228h3.815c0-1.047.12-2.02.359-2.917.24-.898.62-1.676 1.144-2.334a5.738 5.738 0 0 1 1.953-1.571c.778-.39 1.705-.584 2.783-.584 1.615 0 2.895.464 3.837 1.392.943.927 1.474 2.214 1.593 3.86.06 1.107-.074 2.05-.403 2.827a8.072 8.072 0 0 1-1.325 2.132 20.795 20.795 0 0 1-1.795 1.84 20.245 20.245 0 0 0-1.84 1.908 10.15 10.15 0 0 0-1.481 2.356c-.404.883-.636 1.953-.696 3.21V40h3.815v-1.75c0-.778.112-1.474.337-2.088a7.14 7.14 0 0 1 .897-1.705c.374-.524.793-1.017 1.257-1.481.464-.464.935-.92 1.414-1.37.479-.478.95-.972 1.414-1.48.464-.509.875-1.063 1.234-1.661.36-.598.65-1.264.875-1.997.225-.733.337-1.564.337-2.491 0-1.437-.232-2.708-.696-3.815-.464-1.108-1.114-2.043-1.952-2.806-.838-.763-1.833-1.346-2.985-1.75-1.152-.404-2.431-.606-3.837-.606-1.556 0-2.963.27-4.22.808-1.256.539-2.318 1.294-3.186 2.267-.868.972-1.534 2.116-1.997 3.433-.464 1.317-.681 2.738-.651 4.264z" fill="#232323"/>
</svg>
