<svg width="37px" height="37px" viewBox="0 0 37 37" xmlns="http://www.w3.org/2000/svg">
    <title>
        help-m
    </title>
    <path d="M17 26v2.929h3V26h-3zm-1.726-10.978c0-2.62 1.09-4.288 3.474-4.288 1.006 0 2.815.863 2.815 3.194 0 1.928-1.12 2.619-2.326 3.684-1.522 1.295-2.118 2.433-2.118 5.772h2.93c0-2.763 1.112-3.557 2.576-4.794 1.235-1.093 2.527-2.043 2.527-4.777 0-3.712-2.757-5.813-6.26-5.813C14.642 8 12 10.791 12 15.022h3.274zM34 18.5C34 9.94 27.06 3 18.5 3 9.94 3 3 9.94 3 18.5 3 27.06 9.94 34 18.5 34 27.06 34 34 27.06 34 18.5zm3 0C37 28.717 28.717 37 18.5 37S0 28.717 0 18.5C0 8.282 8.283 0 18.5 0S37 8.282 37 18.5z" fill="#232323"/>
</svg>
