<svg width="61px" height="61px" viewBox="0 0 61 61" xmlns="http://www.w3.org/2000/svg">
    <title>
        locked-l
    </title>
    <path d="M55 57V22H6v35h49zM2 61V18h57v43H2zm28.5-15a6.5 6.5 0 1 0 0-13 6.5 6.5 0 0 0 0 13zm0 4C24.701 50 20 45.299 20 39.5S24.701 29 30.5 29 41 33.701 41 39.5 36.299 50 30.5 50zM17 18.004v-.96c0-2.116.757-5.164 2.309-7.593C21.517 5.995 25.058 4 30.404 4c5.49 0 9.093 2 11.31 5.458C43.264 11.876 44 14.886 44 17.045v.96h4v-.96c0-2.872-.917-6.624-2.919-9.746C42.134 2.702 37.267 0 30.404 0c-6.73 0-11.533 2.706-14.466 7.298C13.94 10.424 13 14.212 13 17.045v.96h4z" fill="#232323"/>
</svg>
