<svg width="37px" height="37px" viewBox="0 0 37 37" xmlns="http://www.w3.org/2000/svg">
    <title>
        locked-m-l
    </title>
    <path d="M34 35V12H3v23h31zM1 37V10h35v27H1zm9.005-27c0-4.033 2.668-8 8.494-8 5.796 0 8.514 4.007 8.488 7.975 0 .064 2 .056 2 .013.011-1.673-.606-3.957-1.856-5.8C25.341 1.547 22.475 0 18.5 0c-3.995 0-6.864 1.546-8.648 4.186C8.611 6.023 8.005 8.304 8.005 10h2zM18.5 28a4.5 4.5 0 1 0 0-9 4.5 4.5 0 0 0 0 9zm0 2a6.5 6.5 0 1 1 0-13 6.5 6.5 0 0 1 0 13z" fill="#232323"/>
</svg>
