<svg width="37px" height="37px" viewBox="0 0 37 37" xmlns="http://www.w3.org/2000/svg">
    <title>
        locked-m
    </title>
    <path d="M11.155 10c0-3.81 2.338-7 7.344-7 4.98 0 7.362 3.256 7.34 7H29c.01-1.745-.6-3.598-1.821-5.52C25.394 1.672 22.49 0 18.499 0c-4.01 0-6.916 1.671-8.694 4.479C8.59 6.395 8 8.232 8 10h3.155zm9.466 11.45a3 3 0 1 0-4.242 4.243 3 3 0 0 0 4.242-4.243zm2.122 6.364a6 6 0 1 1-8.486-8.485 6 6 0 0 1 8.486 8.485zM4 13v21h29V13H4zm-3-3h35v27H1V10z" fill="#232323"/>
</svg>
