<svg width="23px" height="23px" viewBox="0 0 23 23" xmlns="http://www.w3.org/2000/svg">
    <title>
        locked
    </title>
    <path d="M20 21V10H3v11h17zM1 23V8h21v15H1zM7.005 8.01l-.003-.229L7 7.504c0-.218 0-.401.002-.413a5.097 5.097 0 0 1 .838-2.37C8.588 3.629 9.748 3 11.518 3c1.806 0 2.968.64 3.699 1.75.496.752.738 1.642.782 2.327v.7l-.002.239 2 .013.002-.242v-.27c.002-.332.001-.494-.004-.569a6.93 6.93 0 0 0-1.108-3.3C15.79 1.985 14.004 1 11.517 1c-2.437 0-4.21.961-5.327 2.591a7.043 7.043 0 0 0-1.182 3.343 8.67 8.67 0 0 0-.008.58l.002.285.003.235 2-.024zM11.5 17a1.5 1.5 0 1 0 0-3 1.5 1.5 0 0 0 0 3zm0 2a3.5 3.5 0 1 1 0-7 3.5 3.5 0 0 1 0 7z" fill="#232323"/>
</svg>
