<svg width="37px" height="37px" viewBox="0 0 37 37" xmlns="http://www.w3.org/2000/svg">
    <title>
        map-m-l
    </title>
    <path d="M18.5 19a5.5 5.5 0 1 0 0-11 5.5 5.5 0 0 0 0 11zm0 2a7.5 7.5 0 1 1 0-15 7.5 7.5 0 0 1 0 15zm.693 12.596a53.586 53.586 0 0 0 4.473-5.084C27.64 23.357 30 18.212 30 13.528 30 7.16 24.85 2 18.5 2S7 7.16 7 13.528c0 4.684 2.36 9.829 6.334 14.984A53.586 53.586 0 0 0 18.5 34.28c.222-.215.454-.443.693-.683zM5 13.528C5 6.056 11.046 0 18.5 0S32 6.056 32 13.528C32 25.446 18.5 37 18.5 37S5 25.446 5 13.528z" fill="#232323"/>
</svg>
