<svg width="61px" height="61px" viewBox="0 0 61 61" xmlns="http://www.w3.org/2000/svg">
    <title>
        map-l
    </title>
    <path d="M30.978 54.942a86.75 86.75 0 0 0 7.064-8.311C44.294 38.234 48 29.87 48 22.303 48 12.162 40.13 4 30.5 4 20.87 4 13 12.162 13 22.303c0 7.568 3.706 15.931 9.958 24.328a86.75 86.75 0 0 0 7.542 8.804c.157-.16.317-.325.478-.493zM9 22.302C9 9.985 18.628 0 30.5 0S52 9.984 52 22.303C52 41.95 30.5 61 30.5 61S9 41.951 9 22.303zM30.5 30a7.5 7.5 0 1 0 0-15 7.5 7.5 0 0 0 0 15zm0 4C24.149 34 19 28.851 19 22.5S24.149 11 30.5 11 42 16.149 42 22.5 36.851 34 30.5 34z" fill="#232323"/>
</svg>
