<svg width="37px" height="37px" viewBox="0 0 37 37" xmlns="http://www.w3.org/2000/svg">
    <title>
        map-m
    </title>
    <path d="M22 13.5c0-1.934-1.566-3.5-3.5-3.5a3.499 3.499 0 0 0-3.5 3.5c0 1.934 1.566 3.5 3.5 3.5s3.5-1.566 3.5-3.5zm3 0a6.5 6.5 0 1 1-13 0 6.5 6.5 0 0 1 13 0zm-2.126 14.402C26.726 22.905 29 17.947 29 13.528 29 7.712 24.297 3 18.5 3S8 7.712 8 13.528c0 4.419 2.274 9.377 6.126 14.374a52.588 52.588 0 0 0 4.374 4.973 52.588 52.588 0 0 0 4.374-4.973zM5 13.528C5 6.056 11.046 0 18.5 0S32 6.056 32 13.528C32 25.446 18.5 37 18.5 37S5 25.446 5 13.528z" fill="#232323"/>
</svg>
