<svg width="23px" height="23px" viewBox="0 0 23 23" xmlns="http://www.w3.org/2000/svg">
    <title>
        map
    </title>
    <path d="M14 8.5a2.5 2.5 0 1 0-4.999-.001A2.5 2.5 0 0 0 14 8.5zm2 0a4.5 4.5 0 1 1-9 0 4.5 4.5 0 1 1 9 0zm-1.826 8.752C16.58 14.169 18 11.114 18 8.409 18 4.874 15.094 2 11.5 2S5 4.874 5 8.41c0 2.704 1.42 5.759 3.826 8.842.85 1.087 1.761 2.1 2.674 3.01a32.657 32.657 0 0 0 2.674-3.01zM3 8.409C3 3.764 6.806 0 11.5 0S20 3.764 20 8.41C20 15.817 11.5 23 11.5 23S3 15.818 3 8.41z" fill="#232323"/>
</svg>
