<svg width="61px" height="61px" viewBox="0 0 61 61" xmlns="http://www.w3.org/2000/svg">
    <title>
        recommended-l
    </title>
    <path d="M43 60.604L30.5 52.81 18 60.604V39h4v14.396l8.5-5.298 8.5 5.298V39h4v21.604zM30.5 25.25l-6.76 3.554 1.291-7.527-5.468-5.33 7.557-1.099L30.5 8l3.38 6.848 7.557 1.098-5.468 5.33 1.29 7.528L30.5 25.25zm0 9.75C39.06 35 46 28.06 46 19.5 46 10.94 39.06 4 30.5 4 21.94 4 15 10.94 15 19.5 15 28.06 21.94 35 30.5 35zm0 4C19.73 39 11 30.27 11 19.5S19.73 0 30.5 0 50 8.73 50 19.5 41.27 39 30.5 39z" fill="#232323"/>
</svg>
