<svg width="61px" height="61px" viewBox="0 0 61 61" xmlns="http://www.w3.org/2000/svg">
    <title>
        unlocked-l
    </title>
    <path d="M18 18v-.942c0-2.13.735-5.19 2.24-7.627C22.37 5.981 25.772 4 30.907 4c6.759 0 10.562 3.25 12.29 8.516l3.801-1.248C44.765 4.468 39.538 0 30.908 0c-6.552 0-11.226 2.723-14.07 7.33C14.907 10.451 14 14.232 14 17.057V18h4zm37 39V22H6v35h49zM2 61V18h57v43H2zm28.5-15a6.5 6.5 0 1 0 0-13 6.5 6.5 0 0 0 0 13zm0 4C24.701 50 20 45.299 20 39.5S24.701 29 30.5 29 41 33.701 41 39.5 36.299 50 30.5 50z" fill="#232323"/>
</svg>
