<svg width="23px" height="23px" viewBox="0 0 23 23" xmlns="http://www.w3.org/2000/svg">
    <title>
        unlocked
    </title>
    <path d="M7.004 8c0-.05-.003-.078-.004-.23 0-.236 0-.427.002-.446.054-.759.314-1.732.815-2.536C8.529 3.646 9.613 3 11.262 3c2.071 0 3.4.958 3.99 2.42l1.855-.747C16.22 2.475 14.175 1 11.262 1 8.899 1 7.185 2.02 6.119 3.73a7.75 7.75 0 0 0-1.112 3.452c-.007.095-.008.277-.007.595.001.158.004.175.004.223h2zM20 21V10H3v11h17zM1 23V8h21v15H1zm10.5-6a1.5 1.5 0 1 0 0-3 1.5 1.5 0 0 0 0 3zm0 2a3.5 3.5 0 1 1 0-7 3.5 3.5 0 0 1 0 7z" fill="#232323"/>
</svg>
