<svg width="37px" height="37px" viewBox="0 0 37 37" xmlns="http://www.w3.org/2000/svg">
    <title>
        wiki-m-l
    </title>
    <path d="M18 30.804V18h-5.509c.234 6.595 2.748 11.771 5.509 12.804zm2 0c2.76-1.033 5.275-6.209 5.509-12.804H20v12.804zM18 3.196C15.24 4.23 12.725 9.405 12.491 16H18V3.196zm2 0V16h5.509C25.275 9.405 22.76 4.229 20 3.196zM18 32.97C9.63 32.453 3 25.501 3 17 3 8.163 10.163 1 19 1s16 7.163 16 16c0 8.5-6.63 15.453-15 15.97V35h-2v-2.03zM5.035 18c.394 5.584 4.062 10.263 9.097 12.13-2.075-2.71-3.477-7.106-3.642-12.13H5.035zm0-2h5.455c.165-5.024 1.567-9.42 3.642-12.13C9.097 5.737 5.429 10.416 5.035 16zm27.93 0c-.394-5.584-4.062-10.263-9.097-12.13 2.075 2.71 3.477 7.106 3.642 12.13h5.455zm0 2H27.51c-.165 5.024-1.567 9.42-3.642 12.13 5.035-1.867 8.703-6.546 9.097-12.13zM9 37v-2h20v2H9z" fill="#232323"/>
</svg>
