<svg width="37px" height="37px" viewBox="0 0 37 37" xmlns="http://www.w3.org/2000/svg">
    <title>
        wiki-m
    </title>
    <path d="M17.5 28.502V18h-4.389c.403 5.15 2.317 9.148 4.389 10.502zm3 0c2.072-1.354 3.986-5.352 4.389-10.502H20.5v10.502zm-3-25.004C15.295 4.938 13.27 9.37 13.053 15H17.5V3.498zm3 0V15h4.447C24.73 9.37 22.705 4.938 20.5 3.498zm-3 28.433C9.367 31.174 3 24.33 3 16 3 7.163 10.163 0 19 0s16 7.163 16 16c0 8.33-6.367 15.174-14.5 15.93V34h-3v-2.07zM6.153 18a13.011 13.011 0 0 0 6.538 9.37c-1.391-2.46-2.333-5.725-2.588-9.37h-3.95zm-.115-3h4.013c.14-4.048 1.123-7.688 2.64-10.37A13.001 13.001 0 0 0 6.038 15zm25.924 0A13.001 13.001 0 0 0 25.31 4.63c1.517 2.682 2.5 6.322 2.64 10.37h4.013zm-.115 3h-3.95c-.255 3.646-1.197 6.911-2.588 9.37A13.011 13.011 0 0 0 31.847 18zM9 37v-3h20v3H9z" fill="#232323"/>
</svg>
