<svg width="61px" height="61px" viewBox="0 0 61 61" xmlns="http://www.w3.org/2000/svg">
    <title>
        wiki-l
    </title>
    <path d="M29 49.567V29h-9.03c.466 10.466 4.545 18.64 9.03 20.567zm4 0C37.485 47.64 41.564 39.466 42.03 29H33v20.567zM29 4.433C24.515 6.36 20.436 14.534 19.97 25H29V4.433zm4 0V25h9.03C41.565 14.534 37.486 6.36 33 4.433zm-4 49.494C15.022 52.904 4 41.239 4 27 4 12.088 16.088 0 31 0s27 12.088 27 27c0 14.239-11.022 25.904-25 26.927V57h-4v-3.073zM8.086 29c.727 8.448 6.021 15.59 13.401 18.947-3.124-4.557-5.21-11.311-5.521-18.947h-7.88zm0-4h7.88c.312-7.636 2.397-14.39 5.521-18.947C14.107 9.41 8.813 16.553 8.086 25zm45.828 0c-.727-8.448-6.021-15.59-13.401-18.947 3.124 4.557 5.21 11.311 5.521 18.947h7.88zm0 4h-7.88c-.312 7.636-2.397 14.39-5.521 18.947 7.38-3.357 12.674-10.5 13.401-18.947zM13 61v-4h36v4H13z" fill="#232323"/>
</svg>
