<svg width="23px" height="23px" viewBox="0 0 23 23" xmlns="http://www.w3.org/2000/svg">
    <title>
        wiki
    </title>
    <path d="M11 17.6V11H8.503C8.7 14.174 9.806 16.666 11 17.6zm2 0c1.194-.934 2.3-3.426 2.497-6.6H13v6.6zM11 2.4C9.806 3.334 8.7 5.826 8.503 9H11V2.4zm2 0V9h2.497C15.3 5.826 14.194 3.334 13 2.4zm-2 17.55c-5.053-.5-9-4.764-9-9.95C2 4.477 6.477 0 12 0s10 4.477 10 10c0 5.185-3.947 9.449-9 9.95V21h-2v-1.05zM4.062 11a8.004 8.004 0 0 0 3.96 5.942C7.182 15.37 6.626 13.3 6.5 11H4.062zm0-2H6.5c.126-2.299.683-4.369 1.522-5.942A8.004 8.004 0 0 0 4.062 9zm15.876 0a8.004 8.004 0 0 0-3.96-5.942C16.818 4.63 17.374 6.7 17.5 9h2.438zm0 2H17.5c-.126 2.299-.683 4.369-1.522 5.942A8.004 8.004 0 0 0 19.938 11zM6 23v-2h12v2H6z" fill="#232323"/>
</svg>
