<svg width="61px" height="61px" viewBox="0 0 61 61" xmlns="http://www.w3.org/2000/svg">
    <title>
        wireless-l
    </title>
    <path d="M32.975 47.975a3.5 3.5 0 1 0-4.95-4.95 3.5 3.5 0 0 0 4.95 4.95zm2.828 2.828a7.5 7.5 0 1 1-10.606-10.606 7.5 7.5 0 0 1 10.606 10.606zM49.39 32.561l-2.778 2.878C42.37 31.344 36.632 29 30.5 29c-6.132 0-11.87 2.344-16.11 6.439l-2.78-2.878C16.594 27.75 23.327 25 30.5 25c7.174 0 13.907 2.75 18.89 7.561zm11.025-8.17l-2.828 2.828A38.172 38.172 0 0 0 30.5 16c-10.3 0-19.947 4.08-27.086 11.22L.586 24.39A42.171 42.171 0 0 1 30.5 12a42.171 42.171 0 0 1 29.914 12.39z" fill="#232323"/>
</svg>
