<svg width="37px" height="37px" viewBox="0 0 37 37" xmlns="http://www.w3.org/2000/svg">
    <title>
        wireless-m-l
    </title>
    <path d="M20.268 25.732a2.5 2.5 0 1 0-3.536 3.536 2.5 2.5 0 0 0 3.536-3.536zm1.414 4.95a4.5 4.5 0 1 1-6.364-6.364 4.5 4.5 0 0 1 6.364 6.364zm8.358-10.568l-1.414 1.414A14.27 14.27 0 0 0 18.5 17.333a14.27 14.27 0 0 0-10.126 4.195L6.96 20.114a16.27 16.27 0 0 1 11.54-4.78c4.387 0 8.5 1.74 11.54 4.78zm6.667-5.572l-1.414 1.414A23.667 23.667 0 0 0 18.5 9a23.667 23.667 0 0 0-16.793 6.956L.293 14.542A25.666 25.666 0 0 1 18.5 7c6.921 0 13.41 2.745 18.207 7.542z" fill="#232323"/>
</svg>
