<svg width="37px" height="37px" viewBox="0 0 37 37" xmlns="http://www.w3.org/2000/svg">
    <title>
        wireless-m
    </title>
    <path d="M19.56 26.44a1.5 1.5 0 1 0-2.12 2.12 1.5 1.5 0 0 0 2.12-2.12zm2.122 4.242a4.5 4.5 0 1 1-6.364-6.364 4.5 4.5 0 0 1 6.364 6.364zm9.093-10.23l-2.217 2.022c-2.62-2.877-6.142-4.51-9.891-4.51-3.796 0-7.49 1.672-10.076 4.51l-2.217-2.021c3.147-3.454 7.642-5.49 12.293-5.49 4.614 0 8.932 2.004 12.108 5.49zm6.294-6.143l-2.138 2.105C30.598 12.014 24.746 9.5 18.5 9.5S6.402 12.014 2.069 16.414L-.07 14.31C4.821 9.343 11.44 6.5 18.5 6.5c7.06 0 13.679 2.843 18.569 7.81z" fill="#232323"/>
</svg>
