<svg width="23px" height="23px" viewBox="0 0 23 23" xmlns="http://www.w3.org/2000/svg">
    <title>
        wireless
    </title>
    <path d="M12.914 18.414a2 2 0 1 1-2.828-2.828 2 2 0 0 1 2.828 2.828zm5.793-5.429L17.293 14.4A8.162 8.162 0 0 0 11.5 12a8.162 8.162 0 0 0-5.793 2.4l-1.414-1.415A10.162 10.162 0 0 1 11.5 10a10.16 10.16 0 0 1 7.207 2.985zm4-3.343l-1.414 1.414A13.8 13.8 0 0 0 11.5 7a13.8 13.8 0 0 0-9.793 4.056L.293 9.642A15.8 15.8 0 0 1 11.5 5a15.8 15.8 0 0 1 11.207 4.642z" fill="#232323" fill-rule="evenodd"/>
</svg>
