<svg width="59px" height="59px" viewBox="0 0 59 59" xmlns="http://www.w3.org/2000/svg" xmlns:xlink="http://www.w3.org/1999/xlink">
    <title>
        pie-chart-l
    </title>
    <defs>
        <path d="M44.901 34h4.017c.054.66.082 1.326.082 2 0 13.255-10.745 24-24 24S1 49.255 1 36s10.745-24 24-24c1.016 0 2.017.063 3 .186V34h16.901zm0 4H24V16.025C13.419 16.545 5 25.29 5 36c0 11.046 8.954 20 20 20 10.37 0 18.898-7.893 19.901-18zm11-15C54.963 13.551 47.45 6.037 38 5.099V23h17.901zm0 4H34V1.082C34.66 1.028 35.326 1 36 1c13.255 0 24 10.745 24 24 0 .674-.028 1.34-.082 2H55.9z" id="a"/>
    </defs>
    <use fill="#232323" xlink:href="#a" transform="translate(-1 -1)"/>
</svg>
