<svg width="34px" height="35px" viewBox="0 0 34 35" xmlns="http://www.w3.org/2000/svg" xmlns:xlink="http://www.w3.org/1999/xlink">
    <title>
        pie-chart-m
    </title>
    <defs>
        <path d="M25.819 20h3.04c.093.653.141 1.321.141 2 0 7.732-6.268 14-14 14S1 29.732 1 22 7.268 8 15 8c.679 0 1.347.048 2 .142V20h8.819zm.136 3H14V11.045C8.393 11.55 4 16.262 4 22c0 6.075 4.925 11 11 11 5.738 0 10.45-4.393 10.955-10zm6-9C31.51 9.06 27.8 5.063 23 4.181V14h8.955zm-.136 3H20V1.035c.33-.023.664-.035 1-.035 7.732 0 14 6.268 14 14 0 .679-.048 1.347-.142 2h-3.04z" id="a"/>
    </defs>
    <use fill="#232323" xlink:href="#a" transform="translate(-1 -1)"/>
</svg>
