<svg width="23px" height="23px" viewBox="0 0 23 23" xmlns="http://www.w3.org/2000/svg">
    <title>
        github
    </title>
    <path d="M11.5 2a9.502 9.502 0 1 0-3.003 18.514c.475.088.649-.206.649-.457 0-.226-.009-.824-.013-1.616-2.643.574-3.2-1.274-3.2-1.274-.432-1.097-1.055-1.389-1.055-1.389-.863-.59.065-.577.065-.577.954.067 1.455.979 1.455.979.848 1.45 2.224 1.031 2.765.789.087-.614.332-1.033.603-1.27-2.11-.24-4.327-1.056-4.327-4.695 0-1.038.37-1.886.978-2.55-.098-.24-.424-1.206.093-2.514 0 0 .798-.255 2.612.974a9.082 9.082 0 0 1 2.378-.32c.808.004 1.62.109 2.379.32 1.814-1.23 2.61-.974 2.61-.974.518 1.308.192 2.274.095 2.514.609.664.976 1.512.976 2.55 0 3.649-2.22 4.452-4.338 4.687.341.294.646.873.646 1.76 0 1.27-.012 2.294-.012 2.606 0 .254.17.55.653.456A9.503 9.503 0 0 0 21 11.5 9.5 9.5 0 0 0 11.5 2" fill="#232323" fill-rule="evenodd"/>
</svg>
