<svg width="61px" height="61px" viewBox="0 0 61 61" xmlns="http://www.w3.org/2000/svg">
    <title>
        github-l
    </title>
    <path d="M30.499 4C15.314 4 3 16.311 3 31.501c0 12.15 7.88 22.456 18.807 26.093 1.376.254 1.879-.596 1.879-1.325 0-.652-.025-2.383-.037-4.678-7.65 1.662-9.266-3.686-9.266-3.686-1.248-3.176-3.053-4.021-3.053-4.021-2.497-1.706.19-1.672.19-1.672 2.76.195 4.212 2.834 4.212 2.834 2.453 4.2 6.437 2.987 8.003 2.285.251-1.778.96-2.989 1.746-3.678-6.107-.692-12.526-3.054-12.526-13.59 0-3.004 1.071-5.459 2.832-7.38-.284-.696-1.229-3.49.268-7.278 0 0 2.31-.738 7.562 2.82 2.194-.611 4.548-.916 6.884-.926 2.337.01 4.688.315 6.885.926 5.252-3.558 7.557-2.82 7.557-2.82 1.499 3.787.556 6.582.273 7.279 1.763 1.92 2.827 4.375 2.827 7.38 0 10.562-6.43 12.887-12.558 13.569.987.85 1.869 2.526 1.869 5.092 0 3.676-.035 6.643-.035 7.544 0 .737.495 1.591 1.891 1.323C50.128 53.947 58 43.648 58 31.502 58 16.311 45.686 4 30.499 4" fill="#232323" fill-rule="evenodd"/>
</svg>
