<svg width="37px" height="37px" viewBox="0 0 37 37" xmlns="http://www.w3.org/2000/svg">
    <title>
        github-m
    </title>
    <path d="M18.892 3C10.116 3 3 10.115 3 18.893c0 7.021 4.553 12.978 10.869 15.08.795.146 1.085-.345 1.085-.766 0-.377-.014-1.378-.021-2.704-4.421.96-5.355-2.13-5.355-2.13-.721-1.836-1.764-2.324-1.764-2.324-1.443-.986.11-.966.11-.966 1.595.112 2.434 1.638 2.434 1.638 1.417 2.427 3.72 1.726 4.625 1.32.145-1.027.555-1.727 1.009-2.126-3.53-.4-7.239-1.764-7.239-7.853 0-1.736.619-3.155 1.636-4.265-.163-.402-.71-2.017.156-4.206 0 0 1.334-.427 4.37 1.63a15.193 15.193 0 0 1 3.978-.536c1.35.006 2.71.183 3.979.535 3.035-2.056 4.367-1.629 4.367-1.629.866 2.189.321 3.804.158 4.206 1.019 1.11 1.633 2.53 1.633 4.265 0 6.105-3.715 7.448-7.257 7.842.57.491 1.08 1.46 1.08 2.943 0 2.124-.02 3.839-.02 4.36 0 .425.286.919 1.093.764 6.31-2.106 10.859-8.058 10.859-15.078C34.785 10.115 27.669 3 18.892 3" fill="#232323" fill-rule="evenodd"/>
</svg>
