<svg width="37px" height="37px" viewBox="0 0 37 37" xmlns="http://www.w3.org/2000/svg">
    <title>
        googleplus-m-l
    </title>
    <path d="M36.553 21.083h-2.89v3.322h-4.067v-3.322h-3.283v-4.116h3.283v-3.322h4.067v3.322h3.283v4.116h-.393zM11.935 31.05a11.772 11.772 0 0 1-8.422-3.5C1.37 25.378.054 22.372.054 19.024s1.316-6.354 3.46-8.523a11.772 11.772 0 0 1 8.42-3.5c1.582 0 3.043.29 4.365.83 1.373.562 2.59 1.39 3.627 2.442l.285.287-.292.28-3.119 2.99-.278.266-.27-.272a5.641 5.641 0 0 0-1.929-1.275 6.41 6.41 0 0 0-2.388-.436c-1.848 0-3.505.774-4.703 2.015a7.04 7.04 0 0 0-1.962 4.896 7.04 7.04 0 0 0 1.962 4.896c1.198 1.24 2.855 2.015 4.703 2.015 1.768 0 3.068-.512 4.007-1.225 1.157-.878 1.777-2.06 2.053-2.963h-6.453v-4.78h11.531l.075.3c.176.715.176 1.23.176 2.09 0 3.429-1.15 6.35-3.15 8.417-2.001 2.068-4.847 3.275-8.239 3.275z" fill="#232323"/>
</svg>
