<svg width="61px" height="61px" viewBox="0 0 61 61" xmlns="http://www.w3.org/2000/svg">
    <title>
        googleplus-l
    </title>
    <path d="M60.264 35.218h-4.765v5.477h-6.706v-5.477h-5.412v-6.786h5.412v-5.477H55.5v5.477h5.412v6.786h-.647zm-40.587 16.43c-5.455 0-10.352-2.195-13.885-5.771C2.258 42.3.089 37.345.089 31.825s2.17-10.476 5.703-14.052c3.533-3.576 8.43-5.771 13.885-5.771 2.606 0 5.016.48 7.194 1.37a17.915 17.915 0 0 1 5.98 4.025l.47.474-.482.462-5.141 4.929-.459.439-.444-.45a9.3 9.3 0 0 0-3.18-2.101c-1.085-.431-2.39-.72-3.939-.72-3.047 0-5.778 1.278-7.753 3.324a11.607 11.607 0 0 0-3.234 8.071c0 3.13 1.23 5.996 3.234 8.071 1.975 2.046 4.706 3.323 7.753 3.323 2.916 0 5.059-.844 6.608-2.02 1.906-1.447 2.928-3.397 3.383-4.885H19.03v-7.882h19.01l.122.496c.29 1.177.29 2.027.29 3.444v.001c0 5.652-1.894 10.467-5.192 13.875-3.3 3.41-7.991 5.4-13.583 5.4z" fill="#232323"/>
</svg>
