<svg width="23px" height="23px" viewBox="0 0 23 23" xmlns="http://www.w3.org/2000/svg">
    <title>
        googleplus
    </title>
    <path d="M22.722 12.754h-1.796v2.065h-2.528v-2.065h-2.041v-2.558h2.041V8.13h2.528v2.065h2.04v2.558h-.244zM7.42 18.95a7.318 7.318 0 0 1-5.235-2.176C.85 15.425.034 13.556.034 11.475s.817-3.95 2.15-5.298A7.318 7.318 0 0 1 7.419 4c.983 0 1.891.18 2.713.516.853.35 1.61.865 2.255 1.518l.176.179-.181.174-1.939 1.858-.172.166-.168-.17a3.507 3.507 0 0 0-1.2-.792 3.984 3.984 0 0 0-1.484-.271 4.046 4.046 0 0 0-2.923 1.253 4.376 4.376 0 0 0-1.22 3.043c0 1.18.464 2.26 1.22 3.043a4.046 4.046 0 0 0 2.923 1.253c1.1 0 1.907-.318 2.491-.762a3.698 3.698 0 0 0 1.276-1.842H7.175v-2.971h7.168l.046.187c.11.444.11.764.11 1.298 0 2.132-.715 3.947-1.958 5.232-1.244 1.286-3.014 2.036-5.122 2.036z" fill="#232323"/>
</svg>
