<svg width="37px" height="37px" viewBox="0 0 37 37" xmlns="http://www.w3.org/2000/svg">
    <title>
        instagram-m-l
    </title>
    <path d="M18.5 3c-4.209 0-4.736.018-6.39.093-1.65.075-2.776.337-3.762.72a7.594 7.594 0 0 0-2.745 1.788 7.618 7.618 0 0 0-1.788 2.746c-.384.985-.645 2.113-.722 3.762C3.018 13.762 3 14.29 3 18.5c0 4.209.018 4.737.093 6.39.077 1.65.338 2.777.722 3.762A7.606 7.606 0 0 0 5.603 31.4a7.594 7.594 0 0 0 2.745 1.788c.986.383 2.112.645 3.762.72 1.654.075 2.181.093 6.39.093 4.21 0 4.738-.018 6.391-.093 1.65-.075 2.777-.337 3.762-.72a7.594 7.594 0 0 0 2.746-1.788 7.606 7.606 0 0 0 1.788-2.746c.383-.985.645-2.113.721-3.762.075-1.653.093-2.181.093-6.39 0-4.211-.018-4.739-.093-6.392-.076-1.65-.338-2.777-.721-3.762A7.618 7.618 0 0 0 31.399 5.6a7.594 7.594 0 0 0-2.746-1.788c-.985-.383-2.111-.645-3.762-.72C23.238 3.018 22.71 3 18.501 3m0 2.793c4.138 0 4.63.016 6.263.09 1.512.069 2.332.322 2.878.534a4.8 4.8 0 0 1 1.782 1.159c.543.543.879 1.06 1.16 1.783.212.546.464 1.367.533 2.877.075 1.635.09 2.125.09 6.265 0 4.138-.015 4.628-.09 6.263-.069 1.51-.32 2.33-.533 2.878a4.81 4.81 0 0 1-1.16 1.782 4.783 4.783 0 0 1-1.782 1.159c-.546.212-1.366.465-2.878.534-1.634.074-2.125.09-6.263.09-4.139 0-4.63-.016-6.263-.09-1.512-.069-2.333-.322-2.879-.534a4.783 4.783 0 0 1-1.782-1.159 4.81 4.81 0 0 1-1.16-1.782c-.212-.547-.464-1.368-.533-2.878-.075-1.635-.09-2.125-.09-6.263 0-4.14.015-4.63.09-6.265.07-1.51.321-2.33.533-2.877a4.803 4.803 0 0 1 1.16-1.783A4.8 4.8 0 0 1 9.36 6.417c.546-.212 1.367-.465 2.879-.534 1.633-.074 2.124-.09 6.263-.09m0 17.874a5.167 5.167 0 1 1 0-10.334 5.167 5.167 0 0 1 0 10.334m0-13.126a7.96 7.96 0 1 0 .001 15.92 7.96 7.96 0 0 0-.001-15.92m10.134-.315a1.86 1.86 0 1 1-3.721 0 1.86 1.86 0 0 1 3.72 0" fill="#232323" fill-rule="evenodd"/>
</svg>
