<svg width="61px" height="61px" viewBox="0 0 61 61" xmlns="http://www.w3.org/2000/svg">
    <title>
        instagram-l
    </title>
    <path d="M30.5 4c-7.196 0-8.098.031-10.925.16-2.822.128-4.747.575-6.432 1.23-1.744.677-3.221 1.584-4.694 3.057-1.472 1.475-2.38 2.952-3.056 4.693-.655 1.686-1.103 3.613-1.233 6.433C4.03 22.399 4 23.3 4 30.5c0 7.196.031 8.098.16 10.925.13 2.82.578 4.747 1.233 6.432.677 1.741 1.584 3.221 3.056 4.694 1.473 1.472 2.95 2.38 4.694 3.056 1.685.655 3.61 1.103 6.432 1.231 2.827.128 3.729.16 10.925.16 7.196 0 8.098-.032 10.925-.16 2.822-.128 4.747-.576 6.432-1.23 1.744-.678 3.221-1.585 4.694-3.057 1.472-1.473 2.38-2.953 3.056-4.694.655-1.685 1.103-3.612 1.233-6.432.129-2.827.16-3.729.16-10.925 0-7.199-.031-8.1-.16-10.927-.13-2.82-.578-4.747-1.233-6.433-.677-1.74-1.584-3.218-3.056-4.693-1.473-1.473-2.95-2.38-4.694-3.057-1.685-.655-3.61-1.102-6.432-1.23C38.598 4.03 37.696 4 30.5 4m0 4.776c7.075 0 7.914.026 10.707.152 2.585.119 3.988.551 4.921.914 1.238.481 2.12 1.054 3.047 1.98.929.93 1.502 1.812 1.983 3.05.363.933.793 2.336.911 4.918.129 2.796.155 3.632.155 10.71 0 7.075-.026 7.912-.155 10.707-.118 2.583-.548 3.985-.911 4.921-.481 1.236-1.054 2.118-1.983 3.047-.926.926-1.809 1.502-3.047 1.98-.933.363-2.336.796-4.92.914-2.794.126-3.633.155-10.708.155s-7.914-.029-10.707-.155c-2.585-.118-3.988-.55-4.921-.914-1.238-.478-2.12-1.054-3.047-1.98-.929-.929-1.502-1.811-1.983-3.047-.363-.936-.793-2.338-.911-4.92-.129-2.796-.155-3.633-.155-10.708 0-7.078.026-7.914.155-10.71.118-2.582.548-3.985.911-4.918.481-1.238 1.054-2.12 1.983-3.05.926-.926 1.809-1.499 3.047-1.98.933-.363 2.336-.795 4.92-.914 2.794-.126 3.633-.152 10.708-.152m0 30.556a8.833 8.833 0 1 1 0-17.667 8.833 8.833 0 0 1 0 17.667m0-22.44c-7.515 0-13.607 6.091-13.607 13.607 0 7.515 6.092 13.609 13.607 13.609s13.607-6.094 13.607-13.61c0-7.515-6.092-13.606-13.607-13.606m17.325-.538a3.18 3.18 0 1 1-6.361-.002 3.18 3.18 0 0 1 6.361.002" fill="#232323" fill-rule="evenodd"/>
</svg>
