<svg width="23px" height="23px" viewBox="0 0 23 23" xmlns="http://www.w3.org/2000/svg">
    <title>
        instagram
    </title>
    <path d="M11.5 2c-2.58 0-2.903.011-3.917.057-1.011.046-1.701.207-2.305.441a4.654 4.654 0 0 0-1.683 1.096 4.669 4.669 0 0 0-1.096 1.683c-.235.604-.395 1.295-.442 2.306C2.011 8.596 2 8.919 2 11.5c0 2.58.011 2.903.057 3.917.047 1.01.207 1.701.442 2.305a4.661 4.661 0 0 0 1.096 1.683 4.654 4.654 0 0 0 1.683 1.096c.604.235 1.294.395 2.305.44C8.597 20.989 8.92 21 11.5 21s2.903-.011 3.917-.057c1.011-.046 1.701-.206 2.305-.441a4.654 4.654 0 0 0 1.683-1.096 4.661 4.661 0 0 0 1.096-1.683c.235-.604.395-1.295.442-2.305.046-1.014.057-1.337.057-3.917s-.011-2.904-.057-3.917c-.047-1.011-.207-1.702-.442-2.306a4.669 4.669 0 0 0-1.096-1.683 4.654 4.654 0 0 0-1.683-1.096c-.604-.234-1.294-.395-2.305-.44C14.403 2.01 14.08 2 11.5 2m0 1.712c2.536 0 2.837.01 3.838.055.927.042 1.43.197 1.765.327.443.173.76.378 1.092.71.333.333.538.65.71 1.093.13.335.285.838.327 1.764.046 1.002.056 1.302.056 3.839 0 2.536-.01 2.836-.056 3.838-.042.926-.196 1.43-.326 1.765a2.952 2.952 0 0 1-.711 1.092 2.932 2.932 0 0 1-1.092.71c-.335.13-.838.285-1.765.327-1 .046-1.302.056-3.838.056s-2.837-.01-3.838-.056c-.927-.042-1.43-.197-1.765-.327a2.932 2.932 0 0 1-1.092-.71 2.948 2.948 0 0 1-.71-1.092c-.13-.336-.285-.839-.327-1.765-.046-1.002-.056-1.302-.056-3.838 0-2.537.01-2.837.056-3.84.042-.925.196-1.428.326-1.763.173-.443.378-.76.711-1.093a2.942 2.942 0 0 1 1.092-.71c.335-.13.838-.285 1.765-.327 1-.045 1.302-.055 3.838-.055m0 10.954a3.167 3.167 0 1 1 0-6.333 3.167 3.167 0 0 1 0 6.333m0-8.044a4.878 4.878 0 1 0 0 9.757 4.878 4.878 0 0 0 0-9.757m6.21-.193a1.14 1.14 0 1 1-2.28 0 1.14 1.14 0 0 1 2.28 0" fill="#232323" fill-rule="evenodd"/>
</svg>
