<svg width="37px" height="37px" viewBox="0 0 37 37" xmlns="http://www.w3.org/2000/svg">
    <title>
        linkedin-m
    </title>
    <path d="M32.83 31.437h-6.372v-9.294c0-2.433-.997-4.092-3.188-4.092-1.677 0-2.609 1.119-3.043 2.2-.163.386-.137.926-.137 1.468v9.718h-6.313s.082-16.463 0-17.96h6.313v2.819c.373-1.234 2.39-2.993 5.61-2.993 3.992 0 7.13 2.583 7.13 8.148v9.986zM7.394 11.23h-.041C5.319 11.23 4 9.858 4 8.12 4 6.343 5.36 5 7.433 5c2.073 0 3.347 1.34 3.388 3.114 0 1.738-1.315 3.116-3.427 3.116zM4.725 31.437h5.621v-17.96h-5.62v17.96z" fill="#232323" fill-rule="evenodd"/>
</svg>
