<svg width="23px" height="23px" viewBox="0 0 23 23" xmlns="http://www.w3.org/2000/svg">
    <title>
        linkedin
    </title>
    <path d="M21 20.441h-4.2V14.31c0-1.606-.656-2.7-2.1-2.7-1.105 0-1.72.738-2.006 1.452-.107.254-.09.61-.09.968v6.411h-4.16s.053-10.86 0-11.848h4.16v1.86c.245-.815 1.575-1.975 3.697-1.975 2.631 0 4.699 1.704 4.699 5.375v6.588zM4.236 7.111H4.21C2.87 7.11 2 6.204 2 5.057 2 3.887 2.896 3 4.262 3s2.206.884 2.233 2.055c0 1.146-.867 2.055-2.259 2.055zM2.478 20.44h3.705V8.593H2.478v11.848z" fill="#232323" fill-rule="evenodd"/>
</svg>
