<svg width="61px" height="61px" viewBox="0 0 61 61" xmlns="http://www.w3.org/2000/svg">
    <title>
        linkedin-l
    </title>
    <path d="M56.47 53.562H45.129V37.04c0-4.327-1.775-7.276-5.676-7.276-2.984 0-4.643 1.989-5.416 3.912-.29.686-.244 1.645-.244 2.608v17.278H22.557s.145-29.268 0-31.928h11.236v5.01c.664-2.194 4.254-5.32 9.987-5.32 7.105 0 12.69 4.591 12.69 14.485v17.753zM11.195 17.638h-.073c-3.62 0-5.968-2.44-5.968-5.53 0-3.157 2.42-5.546 6.11-5.546 3.69 0 5.959 2.383 6.031 5.536 0 3.09-2.341 5.54-6.1 5.54zm-4.75 35.924h10.006V21.634H6.446v31.928z" fill="#232323" fill-rule="evenodd"/>
</svg>
