<svg width="37px" height="37px" viewBox="0 0 37 37" xmlns="http://www.w3.org/2000/svg">
    <title>
        slack-m
    </title>
    <path d="M15.762 17.22l4.136-1.386 1.338 3.995-4.135 1.385-1.339-3.995zm11.56 3.932l-2.006.67.694 2.082c.272.841-.175 1.759-1.017 2.032-.174.048-.373.098-.545.074-.645-.026-1.265-.446-1.487-1.09l-.694-2.083-4.138 1.388.692 2.082c.274.843-.173 1.76-1.015 2.032-.173.05-.371.1-.545.075a1.657 1.657 0 0 1-1.487-1.092l-.694-2.081-2.008.67c-.173.049-.371.099-.544.075-.645-.026-1.265-.447-1.487-1.09-.274-.844.173-1.761 1.015-2.033l2.007-.67-1.337-3.99-2.008.67c-.174.049-.373.098-.545.074-.645-.025-1.265-.446-1.487-1.09-.272-.844.174-1.76 1.017-2.032l2.006-.67-.694-2.082c-.273-.843.173-1.759 1.016-2.032.844-.272 1.76.173 2.032 1.015l.695 2.083 4.138-1.388-.694-2.081c-.273-.843.173-1.76 1.016-2.032.842-.274 1.76.172 2.032 1.015l.694 2.082 2.008-.669c.843-.273 1.76.173 2.032 1.016.272.842-.173 1.76-1.017 2.032l-2.006.67 1.338 3.989 2.008-.668c.843-.274 1.759.172 2.03 1.015.274.843-.172 1.759-1.015 2.032m5.379-6.914C29.503 3.58 24.894 1.102 14.237 4.3 3.58 7.496 1.102 12.107 4.3 22.762 7.496 33.42 12.106 35.9 22.762 32.701c10.657-3.196 13.135-7.806 9.939-18.463" fill="#232323" fill-rule="evenodd"/>
</svg>
