<svg width="23px" height="23px" viewBox="0 0 23 23" xmlns="http://www.w3.org/2000/svg">
    <title>
        slack
    </title>
    <path d="M9.822 10.715l2.535-.849.82 2.449-2.535.849-.82-2.449zm7.085 2.41l-1.23.411.426 1.276a.987.987 0 0 1-.624 1.246.874.874 0 0 1-.334.045 1.014 1.014 0 0 1-.911-.669l-.425-1.276-2.537.851.425 1.276a.985.985 0 0 1-.622 1.245.854.854 0 0 1-.335.046 1.016 1.016 0 0 1-.911-.669l-.425-1.276-1.231.41a.852.852 0 0 1-.333.047 1.014 1.014 0 0 1-.912-.668.985.985 0 0 1 .623-1.246l1.23-.41-.82-2.446-1.23.41a.859.859 0 0 1-.335.046 1.014 1.014 0 0 1-.911-.668.986.986 0 0 1 .623-1.246l1.23-.41-.425-1.276A.986.986 0 0 1 8.78 7.55l.427 1.276 2.536-.85-.425-1.276a.985.985 0 0 1 1.867-.623l.426 1.276 1.23-.41a.985.985 0 0 1 .623 1.868l-1.23.41.82 2.445 1.231-.41a.984.984 0 0 1 .622 1.869m3.297-4.238c-1.96-6.531-4.785-8.05-11.317-6.09-6.531 1.959-8.05 4.785-6.09 11.315 1.959 6.533 4.784 8.052 11.315 6.092 6.532-1.96 8.05-4.784 6.092-11.316" fill="#232323" fill-rule="evenodd"/>
</svg>
