<svg width="61px" height="61px" viewBox="0 0 61 61" xmlns="http://www.w3.org/2000/svg">
    <title>
        slack-l
    </title>
    <path d="M25.82 29.31l7.07-2.367 2.287 6.83-7.07 2.368-2.287-6.83zm19.764 6.724l-3.431 1.146 1.186 3.559c.465 1.438-.298 3.007-1.738 3.474-.298.082-.637.167-.933.126-1.101-.044-2.162-.763-2.542-1.864l-1.186-3.56-7.075 2.373 1.184 3.56c.467 1.44-.295 3.009-1.736 3.474-.295.085-.634.17-.932.128-1.102-.043-2.16-.765-2.542-1.867l-1.187-3.559-3.433 1.146c-.295.084-.634.169-.93.128-1.101-.044-2.162-.763-2.542-1.864-.467-1.441.296-3.01 1.736-3.475l3.43-1.145-2.285-6.82-3.433 1.142c-.298.085-.637.17-.932.129-1.102-.044-2.162-.763-2.542-1.865-.465-1.443.298-3.01 1.738-3.474l3.43-1.145-1.185-3.56c-.468-1.44.295-3.007 1.736-3.474 1.443-.465 3.01.295 3.474 1.736l1.189 3.562 7.074-2.373-1.186-3.56c-.467-1.44.295-3.009 1.736-3.474 1.44-.467 3.01.296 3.474 1.736l1.187 3.56 3.433-1.143c1.44-.468 3.01.295 3.474 1.736.465 1.44-.295 3.01-1.738 3.474l-3.43 1.145 2.287 6.82 3.434-1.142c1.44-.467 3.007.295 3.471 1.736.468 1.44-.295 3.007-1.735 3.474m9.195-11.82C49.312 5.992 41.431 1.755 23.212 7.222 4.992 12.687.755 20.57 6.222 38.787c5.465 18.222 13.346 22.46 31.565 16.992 18.22-5.464 22.457-13.345 16.992-31.565" fill="#232323" fill-rule="evenodd"/>
</svg>
