<svg width="61px" height="61px" viewBox="0 0 61 61" xmlns="http://www.w3.org/2000/svg">
    <title>
        twitter-l
    </title>
    <path d="M54.7 14.867a20.886 20.886 0 0 1-5.973 1.635 10.396 10.396 0 0 0 4.571-5.74 20.718 20.718 0 0 1-6.606 2.514A10.392 10.392 0 0 0 39.1 10c-5.74 0-10.397 4.65-10.397 10.375 0 .817.089 1.603.268 2.363-8.645-.434-16.308-4.559-21.442-10.842a10.348 10.348 0 0 0-1.407 5.224c0 3.594 1.836 6.772 4.627 8.633a10.422 10.422 0 0 1-4.714-1.297v.128c0 5.03 3.586 9.224 8.348 10.173a10.18 10.18 0 0 1-2.744.365c-.67 0-1.321-.059-1.955-.18a10.402 10.402 0 0 0 9.716 7.2 20.899 20.899 0 0 1-12.918 4.44A21.4 21.4 0 0 1 4 46.441 29.517 29.517 0 0 0 19.945 51.1c19.135 0 29.595-15.806 29.595-29.52 0-.452-.01-.9-.03-1.342a21.082 21.082 0 0 0 5.19-5.372" fill="#232323" fill-rule="evenodd"/>
</svg>
