<svg width="23px" height="23px" viewBox="0 0 23 23" xmlns="http://www.w3.org/2000/svg">
    <title>
        twitter
    </title>
    <path d="M21 5.828c-.698.31-1.45.52-2.238.614a3.903 3.903 0 0 0 1.713-2.156 7.754 7.754 0 0 1-2.476.945 3.899 3.899 0 0 0-6.641 3.554 11.065 11.065 0 0 1-8.035-4.073 3.893 3.893 0 0 0-.528 1.962c0 1.35.688 2.544 1.734 3.243a3.9 3.9 0 0 1-1.766-.487v.048a3.898 3.898 0 0 0 3.128 3.82 3.815 3.815 0 0 1-1.028.138 3.87 3.87 0 0 1-.733-.068 3.9 3.9 0 0 0 3.641 2.704 7.82 7.82 0 0 1-4.84 1.668c-.315 0-.627-.017-.931-.053a11.044 11.044 0 0 0 5.975 1.75c7.171 0 11.091-5.936 11.091-11.087 0-.17-.003-.338-.01-.504A7.91 7.91 0 0 0 21 5.828" fill="#232323" fill-rule="evenodd"/>
</svg>
