<svg width="37px" height="37px" viewBox="0 0 37 37" xmlns="http://www.w3.org/2000/svg">
    <title>
        twitter-m
    </title>
    <path d="M33.88 9.776a11.87 11.87 0 0 1-3.402.932 5.928 5.928 0 0 0 2.604-3.273 11.793 11.793 0 0 1-3.764 1.434A5.916 5.916 0 0 0 24.994 7a5.923 5.923 0 0 0-5.77 7.264A16.824 16.824 0 0 1 7.01 8.082a5.907 5.907 0 0 0-.801 2.978 5.914 5.914 0 0 0 2.636 4.924 5.931 5.931 0 0 1-2.686-.74v.073a5.92 5.92 0 0 0 4.755 5.802 5.805 5.805 0 0 1-1.563.209c-.381 0-.752-.034-1.113-.104a5.926 5.926 0 0 0 5.534 4.106 11.895 11.895 0 0 1-7.358 2.533c-.478 0-.951-.026-1.414-.08a16.8 16.8 0 0 0 9.083 2.657c10.9 0 16.858-9.014 16.858-16.836 0-.257-.005-.512-.017-.765a12.017 12.017 0 0 0 2.956-3.063" fill="#232323" fill-rule="evenodd"/>
</svg>
