<svg width="37px" height="37px" viewBox="0 0 37 37" xmlns="http://www.w3.org/2000/svg">
    <title>
        heart-m
    </title>
    <path d="M18.917 31.145a2815.84 2815.84 0 0 1 5.778-6.193l.117-.126c3.198-3.415 5.663-6.024 7.122-7.53C33.231 15.804 34 13.902 34 12.05 34 8.191 30.83 5 27.077 5c-2.344 0-4.538 1.41-6.036 3.794l-2.662 4.24-2.484-4.347C14.623 6.46 12.317 5 9.922 5 6.17 5 3 8.19 3 12.051c0 2.017.722 3.86 2.012 5.19 1.452 1.497 3.938 4.128 7.175 7.585l.118.126a2818.706 2818.706 0 0 1 6.195 6.64l.417-.447zM27.077 2C32.46 2 37 6.506 37 12.051c0 2.773-1.177 5.373-2.86 7.28C30.105 23.488 18.5 36 18.5 36S6.895 23.49 2.859 19.33C1.009 17.424 0 14.824 0 12.051 0 6.506 4.54 2 9.922 2c2.564 0 4.885 1.082 6.629 2.726.275.301.857.908.857.908.412.49.779 1.016 1.092 1.565a12.92 12.92 0 0 1 1.115-1.52s.63-.676.885-.932C22.254 3.091 24.502 2 27.077 2z" fill="#232323"/>
</svg>
