<svg width="37px" height="37px" viewBox="0 0 37 37" xmlns="http://www.w3.org/2000/svg">
    <title>
        heart-m-l
    </title>
    <path d="M19.649 31.826c1.963-2.11 3.932-4.221 5.776-6.191l.117-.126c3.233-3.452 5.716-6.08 7.1-7.502C34.118 16.33 35 14.177 35 12.05 35 7.64 31.384 4 27.077 4c-2.716 0-5.214 1.604-6.883 4.262l-1.775 2.827-1.655-2.898C15.32 5.664 12.69 4 9.922 4 5.616 4 2 7.64 2 12.051c0 2.273.82 4.367 2.294 5.886 1.447 1.491 3.93 4.12 7.163 7.572l.118.126a2817.73 2817.73 0 0 1 6.925 7.426l1.149-1.235zM27.077 2C32.46 2 37 6.506 37 12.051c0 2.773-1.177 5.373-2.86 7.28C30.105 23.488 18.5 36 18.5 36S6.895 23.49 2.859 19.33C1.009 17.424 0 14.824 0 12.051 0 6.506 4.54 2 9.922 2c2.928 0 5.539 1.41 7.335 3.458.123.15.563.699.563.699.248.335.475.683.68 1.042.219-.348.454-.687.705-1.014 0 0 .45-.526.584-.705C21.626 3.42 24.139 2 27.077 2z" fill="#232323"/>
</svg>
