<svg width="61px" height="61px" viewBox="0 0 61 61" xmlns="http://www.w3.org/2000/svg">
    <title>
        heart-l
    </title>
    <path d="M31.887 52.399c3.238-3.46 6.483-6.921 9.524-10.151l.194-.207c5.28-5.608 9.349-9.89 11.748-12.35C55.641 27.08 57 23.746 57 20.477 57 13.648 51.356 8 44.64 8c-4.222 0-8.128 2.494-10.757 6.659l-3.545 5.613-3.306-5.756C24.775 10.586 20.666 8 16.359 8 9.644 8 4 13.648 4 20.478c0 3.537 1.28 6.786 3.576 9.14 2.39 2.449 6.486 6.76 11.818 12.423l.194.207A4630.556 4630.556 0 0 1 30.5 53.882l1.387-1.483zM44.641 4C53.514 4 61 11.387 61 20.478c0 4.547-1.94 8.808-4.714 11.934C49.631 39.23 30.5 59.742 30.5 59.742S11.368 39.23 4.713 32.411C1.663 29.286 0 25.025 0 20.478 0 11.388 7.486 4 16.359 4c4.566 0 8.665 2.07 11.601 5.136l1.124 1.293a17.41 17.41 0 0 1 1.416 2.094c.446-.705.932-1.385 1.457-2.034 0 0 .86-.939 1.163-1.316C36.1 6.086 40.056 4 44.64 4z" fill="#232323"/>
</svg>
