<svg width="37px" height="37px" viewBox="0 0 37 37" xmlns="http://www.w3.org/2000/svg">
    <title>
        heart-fill-m-l
    </title>
    <path d="M27.077 2C32.46 2 37 6.506 37 12.051c0 2.773-1.177 5.373-2.86 7.28C30.105 23.488 18.5 36 18.5 36S6.895 23.49 2.859 19.33C1.009 17.424 0 14.824 0 12.051 0 6.506 4.54 2 9.922 2c2.928 0 5.539 1.41 7.335 3.458.123.15.563.699.563.699.248.335.475.683.68 1.042.219-.348.454-.687.705-1.014 0 0 .45-.526.584-.705C21.626 3.42 24.139 2 27.077 2z" fill="#232323"/>
</svg>
