<svg width="61px" height="61px" viewBox="0 0 61 61" xmlns="http://www.w3.org/2000/svg">
    <title>
        heart-fill-l
    </title>
    <path d="M44.64 4C53.515 4 61 11.387 61 20.478c0 4.547-1.94 8.808-4.714 11.934C49.631 39.23 30.5 59.742 30.5 59.742S11.368 39.23 4.713 32.411C1.663 29.286 0 25.025 0 20.478 0 11.388 7.486 4 16.359 4c4.566 0 8.665 2.07 11.601 5.136l1.124 1.293a17.41 17.41 0 0 1 1.416 2.094c.446-.705.932-1.385 1.457-2.034 0 0 .86-.939 1.163-1.316C36.1 6.086 40.056 4 44.64 4z" fill="#232323"/>
</svg>
