<svg width="23px" height="23px" viewBox="0 0 23 23" xmlns="http://www.w3.org/2000/svg">
    <title>
        heart
    </title>
    <path d="M11.664 18.896c1.221-1.304 2.445-2.608 3.592-3.825l.074-.078a393.61 393.61 0 0 1 4.397-4.617c.8-.9 1.273-2.052 1.273-3.168C21 4.908 19.093 3 16.832 3c-1.41 0-2.734.845-3.641 2.28l-1.772 2.803-1.653-2.875C9 3.875 7.61 3 6.168 3 3.908 3 2 4.908 2 7.208c0 1.205.433 2.305 1.208 3.098.904.926 2.45 2.551 4.462 4.687l.073.078a1745.59 1745.59 0 0 1 3.757 4l.164-.175zM16.832 1C20.177 1 23 3.783 23 7.208c0 1.713-.732 3.318-1.777 4.496C18.713 14.273 11.5 22 11.5 22s-7.214-7.727-9.723-10.296C.627 10.526 0 8.92 0 7.208 0 3.783 2.823 1 6.168 1c1.544 0 2.946.627 4.017 1.589.421.42.566.573.566.573.285.327.536.68.75 1.05.225-.359.48-.7.76-1.018 0 0 .317-.322.586-.592C13.92 1.632 15.28 1 16.832 1z" fill="#232323"/>
</svg>
