<svg width="23px" height="23px" viewBox="0 0 23 23" xmlns="http://www.w3.org/2000/svg">
    <title>
        notification
    </title>
    <path d="M6.453 17h12.53c-.017-.47-.049-1.02-.1-1.632-.145-1.756-.412-3.5-.83-5.118C16.867 5.646 14.76 3.007 11.551 3c-3.212-.007-5.34 2.636-6.556 7.255-.436 1.653-.717 3.434-.87 5.223-.05.574-.083 1.087-.102 1.522h2.43zm-4.322-1.694c.164-1.895.462-3.786.93-5.56C4.482 4.348 7.187.99 11.556 1c4.364.01 7.047 3.369 8.434 8.75.448 1.74.733 3.592.887 5.453.097 1.17.127 2.132.123 2.778L20.986 19H2.007L2 18.007c-.002-.601.031-1.536.131-2.701zM13 20.008l2-.004c.003 1.713-1.606 2.998-3.497 2.996-1.89-.002-3.5-1.289-3.503-2.998l2-.004c.001.496.633 1 1.505 1.002.87.001 1.496-.498 1.495-.992z" fill="#232323"/>
</svg>
