<svg width="61px" height="61px" viewBox="0 0 61 61" xmlns="http://www.w3.org/2000/svg">
    <title>
        notification-l
    </title>
    <path d="M52.641 40.2c-.448-5.208-1.272-10.377-2.555-15.165C46.486 11.6 40.197 4.021 30.658 4c-9.552-.021-15.904 7.571-19.596 21.056-1.34 4.89-2.204 10.171-2.68 15.477-.108 1.21-.191 2.37-.253 3.467h44.769a102.922 102.922 0 0 0-.257-3.8zM4.001 48S3.67-.06 30.665 0C57.662.06 57 48 57 48H4zM36.5 51.017l4-.034c.042 5.01-4.42 9.053-9.764 9.017-5.32-.037-9.693-3.998-9.736-8.983l4-.034c.023 2.709 2.547 4.995 5.764 5.017 3.195.021 5.758-2.3 5.736-4.983z" fill="#232323"/>
</svg>
