<svg width="37px" height="37px" viewBox="0 0 37 37" xmlns="http://www.w3.org/2000/svg">
    <title>
        notification-m
    </title>
    <path d="M30.793 24.508c-.26-3.001-.735-5.98-1.474-8.73C27.282 8.196 23.799 4.012 18.59 4c-5.216-.012-8.735 4.183-10.824 11.794-.772 2.81-1.271 5.853-1.546 8.91A64.56 64.56 0 0 0 6.117 26h24.786c-.03-.481-.066-.98-.11-1.492zM3 29S2.807.965 18.597 1C34.387 1.035 34 29 34 29H3zm19 2.013l3-.026c.026 3.077-2.73 5.535-6.01 5.513-3.263-.022-5.963-2.43-5.99-5.487l3-.026c.012 1.339 1.316 2.502 3.01 2.513 1.678.011 3.001-1.168 2.99-2.487z" fill="#232323"/>
</svg>
