<svg width="37px" height="37px" viewBox="0 0 37 37" xmlns="http://www.w3.org/2000/svg">
    <title>
        notification-m-l
    </title>
    <path d="M31.789 24.422c-.264-3.056-.749-6.09-1.505-8.903C28.144 7.552 24.367 3.013 18.593 3c-5.78-.013-9.595 4.535-11.79 12.53-.79 2.872-1.298 5.972-1.578 9.085-.08.885-.134 1.687-.17 2.385h26.901a59.705 59.705 0 0 0-.167-2.578zM3 29S2.807.965 18.597 1C34.387 1.035 34 29 34 29H3zm19 2.009l2-.018c.024 2.785-2.494 5.029-5.507 5.009-3.001-.02-5.469-2.22-5.493-4.991l2-.018c.014 1.626 1.551 2.996 3.507 3.009 1.945.013 3.507-1.38 3.493-2.991z" fill="#232323"/>
</svg>
