<svg width="37px" height="37px" viewBox="0 0 37 37" xmlns="http://www.w3.org/2000/svg">
    <title>
        phone-m-l
    </title>
    <path d="M13.244 25.845L25.651 13.44 22.211 10l1.415-1.414 4.853 4.854-15.235 15.235-4.853-4.854 1.414-1.414 3.44 3.44zm11.04-1.366C34.822 13.943 36.262 8.14 31.88 3.13l-5.49 5.488-1.413-1.414L31.902.277l.707.707c6.099 6.098 4.836 13.163-6.91 24.91C13.936 37.655 6.882 38.925.788 32.801l-.704-.707 6.925-6.925 1.414 1.414-5.491 5.492c5.007 4.401 10.8 2.957 21.353-7.597z" fill="#232323"/>
</svg>
