<svg width="23px" height="23px" viewBox="0 0 23 23" xmlns="http://www.w3.org/2000/svg">
    <title>
        phone
    </title>
    <path d="M14.789 14.789c5.745-5.746 6.674-8.897 4.554-11.626L16.556 5.95l-1.414-1.414L19.385.293l.707.707c3.819 3.819 3.087 8.226-3.89 15.203C9.218 23.189 4.816 23.925.999 20.09l-.703-.707 4.24-4.24 1.415 1.413-2.79 2.79c2.727 2.13 5.872 1.199 11.629-4.557zm-6.01.353l6.363-6.364-2.121-2.121 1.414-1.414 3.536 3.535-9.193 9.193-3.535-3.536 1.414-1.414 2.121 2.121z" fill="#232323"/>
</svg>
