<svg width="61px" height="61px" viewBox="0 0 61 61" xmlns="http://www.w3.org/2000/svg">
    <title>
        phone-l
    </title>
    <path d="M41.598 23.213l-4.95-4.95 2.829-2.828 7.778 7.778-24.042 24.042-7.778-7.778 2.828-2.829 4.95 4.95 18.385-18.385zM7.709 52.86c3.136 2.663 6.189 3.598 10.027 2.836 5.641-1.12 12.93-5.994 22.448-15.511 9.508-9.509 14.375-16.803 15.49-22.454.755-3.835-.176-6.887-2.818-10.017l-8.365 8.365-2.829-2.829L52.912 2l1.414 1.414c9.673 9.673 7.479 20.806-11.314 39.598-18.82 18.82-29.933 21.025-39.601 11.31l-1.408-1.414L13.25 41.662l2.829 2.829-8.369 8.368z" fill="#232323"/>
</svg>
