<svg width="37px" height="37px" viewBox="0 0 37 37" xmlns="http://www.w3.org/2000/svg">
    <title>
        phone-m
    </title>
    <path d="M13.716 23.335l9.9-9.9-2.83-2.828 2.122-2.122 4.95 4.95-14.142 14.142-4.95-4.95 2.121-2.12 2.829 2.828zm-3.356 10.04c3.365-.368 7.855-3.226 13.962-9.333 6.103-6.103 8.956-10.595 9.32-13.967.227-2.114-.45-3.748-2.277-5.804l-4.642 4.642-2.121-2.121L31.393 0l1.061 1.06c6.728 6.728 6.046 13.047-6.01 25.103-12.071 12.07-18.384 12.76-25.105 6.008L.283 31.11l6.79-6.79 2.12 2.122-4.644 4.644c2.059 1.839 3.695 2.518 5.81 2.287z" fill="#232323"/>
</svg>
