<svg width="61px" height="61px" viewBox="0 0 61 61" xmlns="http://www.w3.org/2000/svg">
    <title>
        role-l
    </title>
    <path d="M19 50c0-5.53 1.147-8 5.192-8H38.74c2.853 0 5.26 2.138 5.26 8h4c0-8.184-4.296-12-9.261-12H24.192c-3.897 0-6.575 1.732-7.975 4.746C15.272 44.78 15 46.944 15 50h4zM10 4v53h43V4H10zM6 0h51v61H6V0zm29.462 21.538a5.25 5.25 0 1 0-7.424 7.424 5.25 5.25 0 0 0 7.424-7.424zm2.829-2.829a9.25 9.25 0 1 1-13.082 13.08 9.25 9.25 0 0 1 13.082-13.08z" fill="#232323"/>
</svg>
