<svg width="37px" height="37px" viewBox="0 0 37 37" xmlns="http://www.w3.org/2000/svg">
    <title>
        role-m
    </title>
    <path d="M11.026 31c0-3.506.67-5.026 2.951-5.026h9.003c.507 0 1.146.218 1.665.704.818.767 1.329 2.135 1.329 4.322h3c0-5.434-2.767-8.026-5.994-8.026h-9.003c-2.534 0-4.286 1.194-5.185 3.237-.596 1.352-.766 2.777-.766 4.789h3zM6 3v31h25V3H6zM3 0h31v37H3V0zm13.583 13.583a2.71 2.71 0 1 0 3.834 3.834 2.71 2.71 0 0 0-3.834-3.834zm5.955-2.12a5.71 5.71 0 1 1-8.076 8.075 5.71 5.71 0 0 1 8.076-8.076z" fill="#232323"/>
</svg>
