<svg width="61px" height="61px" viewBox="0 0 61 61" xmlns="http://www.w3.org/2000/svg">
    <title>
        sentiment-dead-l
    </title>
    <path d="M30.5 57C45.136 57 57 45.136 57 30.5S45.136 4 30.5 4 4 15.864 4 30.5 15.864 57 30.5 57zm0 4C13.655 61 0 47.345 0 30.5S13.655 0 30.5 0 61 13.655 61 30.5 47.345 61 30.5 61zM17 42h27v-4H17v4zm7.586-25.414l2.828 2.828-10 10-2.828-2.828 10-10zm2.828 2.828l-10 10-2.828-2.828 10-10 2.828 2.828zm-12.828 0l2.828-2.828 10 10-2.828 2.828-10-10zm29-2.828l2.828 2.828-10 10-2.828-2.828 10-10zm2.828 2.828l-10 10-2.828-2.828 10-10 2.828 2.828zm-12.828 0l2.828-2.828 10 10-2.828 2.828-10-10z" fill="#232323"/>
</svg>
