<svg width="23px" height="23px" viewBox="0 0 23 23" xmlns="http://www.w3.org/2000/svg">
    <title>
        sentiment-great
    </title>
    <path d="M11.5 21a9.5 9.5 0 1 0 0-19 9.5 9.5 0 0 0 0 19zm0 2C5.149 23 0 17.851 0 11.5S5.149 0 11.5 0 23 5.149 23 11.5 17.851 23 11.5 23zm-3-13a1.5 1.5 0 1 0 0-3 1.5 1.5 0 0 0 0 3zm6 0a1.5 1.5 0 1 0 0-3 1.5 1.5 0 0 0 0 3zm-8.455 4.297L5.642 13h11.683l-.363 1.274c-.145.507-.48 1.2-1.092 1.89C14.855 17.308 13.412 18 11.54 18c-1.87 0-3.323-.687-4.361-1.826-.625-.685-.977-1.374-1.133-1.877z" fill="#232323"/>
</svg>
