<svg width="37px" height="37px" viewBox="0 0 37 37" xmlns="http://www.w3.org/2000/svg">
    <title>
        sentiment-sad-m-l
    </title>
    <path d="M11.907 26.421c.055-.117.181-.352.38-.664a9.48 9.48 0 0 1 1.24-1.554C14.897 22.818 16.563 22 18.564 22c1.998 0 3.635.814 4.964 2.194a9.09 9.09 0 0 1 1.195 1.548c.19.31.31.543.361.66l.402.915 1.831-.803-.401-.916c-.318-.724-.952-1.758-1.948-2.792C23.288 21.061 21.154 20 18.564 20c-2.585 0-4.739 1.057-6.459 2.797-1.019 1.03-1.677 2.06-2.012 2.782l-.421.907 1.814.842.421-.907zM18.5 35C27.613 35 35 27.613 35 18.5S27.613 2 18.5 2 2 9.387 2 18.5 9.387 35 18.5 35zm0 2C8.283 37 0 28.717 0 18.5S8.283 0 18.5 0 37 8.283 37 18.5 28.717 37 18.5 37zM13 15a2 2 0 1 0 0-4 2 2 0 0 0 0 4zm11 0a2 2 0 1 0 0-4 2 2 0 0 0 0 4z" fill="#232323"/>
</svg>
