<svg width="37px" height="37px" viewBox="0 0 37 37" xmlns="http://www.w3.org/2000/svg">
    <title>
        sentiment-dead-m-l
    </title>
    <path d="M18.5 35C27.613 35 35 27.613 35 18.5S27.613 2 18.5 2 2 9.387 2 18.5 9.387 35 18.5 35zm0 2C8.283 37 0 28.717 0 18.5S8.283 0 18.5 0 37 8.283 37 18.5 28.717 37 18.5 37zM10 25h17v-2H10v2zm4.293-15.707l1.414 1.414-6 6-1.414-1.414 6-6zm1.414 1.414l-6 6-1.414-1.414 6-6 1.414 1.414zm-7.414 0l1.414-1.414 6 6-1.414 1.414-6-6zm19-1.414l1.414 1.414-6 6-1.414-1.414 6-6zm1.414 1.414l-6 6-1.414-1.414 6-6 1.414 1.414zm-7.414 0l1.414-1.414 6 6-1.414 1.414-6-6z" fill="#232323"/>
</svg>
