<svg width="61px" height="61px" viewBox="0 0 61 61" xmlns="http://www.w3.org/2000/svg">
    <title>
        sentiment-smile-l
    </title>
    <path d="M30.5 57C45.136 57 57 45.136 57 30.5S45.136 4 30.5 4 4 15.864 4 30.5 15.864 57 30.5 57zm0 4C13.655 61 0 47.345 0 30.5S13.655 0 30.5 0 61 13.655 61 30.5 47.345 61 30.5 61zM22 26a4 4 0 1 0 0-8 4 4 0 0 0 0 8zm17 0a4 4 0 1 0 0-8 4 4 0 0 0 0 8zM16.089 37.59c.116.376.345.958.711 1.678a15.717 15.717 0 0 0 2.366 3.437c2.836 3.131 6.802 5.02 11.945 5.02 5.153 0 9.085-1.896 11.853-5.041a15.24 15.24 0 0 0 2.289-3.452c.349-.724.564-1.309.671-1.687l.545-1.925-3.849-1.09-.544 1.925a7.39 7.39 0 0 1-.426 1.04 11.269 11.269 0 0 1-1.688 2.546c-2.031 2.308-4.886 3.683-8.85 3.683-3.973 0-6.879-1.383-8.981-3.704a11.745 11.745 0 0 1-1.764-2.562 7.638 7.638 0 0 1-.456-1.048l-.59-1.91-3.822 1.179.59 1.91z" fill="#232323"/>
</svg>
