<svg width="61px" height="61px" viewBox="0 0 61 61" xmlns="http://www.w3.org/2000/svg">
    <title>
        sentiment-great-l
    </title>
    <path d="M30.5 57C45.136 57 57 45.136 57 30.5S45.136 4 30.5 4 4 15.864 4 30.5 15.864 57 30.5 57zm0 4C13.655 61 0 47.345 0 30.5S13.655 0 30.5 0 61 13.655 61 30.5 47.345 61 30.5 61zM22 26a4 4 0 1 0 0-8 4 4 0 0 0 0 8zm17 0a4 4 0 1 0 0-8 4 4 0 0 0 0 8zM16.089 37.59l-.8-2.59h31.356l-.72 2.545c-.108.378-.323.963-.672 1.687a15.24 15.24 0 0 1-2.289 3.452c-2.768 3.145-6.7 5.04-11.853 5.04-5.143 0-9.109-1.888-11.945-5.02a15.717 15.717 0 0 1-2.366-3.436c-.366-.72-.595-1.302-.711-1.678z" fill="#232323"/>
</svg>
