<svg width="61px" height="61px" viewBox="0 0 61 61" xmlns="http://www.w3.org/2000/svg">
    <title>
        sentiment-wow-l
    </title>
    <path d="M30.5 47.006c2.739 0 5.19-2.802 5.19-6.503C35.69 36.8 33.239 34 30.5 34c-2.739 0-5.19 2.801-5.19 6.503 0 3.701 2.451 6.503 5.19 6.503zm0 4c-5.075 0-9.19-4.703-9.19-10.503S25.425 30 30.5 30c5.075 0 9.19 4.702 9.19 10.503 0 5.8-4.115 10.503-9.19 10.503zm0 5.994C45.136 57 57 45.136 57 30.5S45.136 4 30.5 4 4 15.864 4 30.5 15.864 57 30.5 57zm0 4C13.655 61 0 47.345 0 30.5S13.655 0 30.5 0 61 13.655 61 30.5 47.345 61 30.5 61zM22 26a4 4 0 1 0 0-8 4 4 0 0 0 0 8zm17 0a4 4 0 1 0 0-8 4 4 0 0 0 0 8z" fill="#232323"/>
</svg>
