<svg width="37px" height="37px" viewBox="0 0 37 37" xmlns="http://www.w3.org/2000/svg">
    <title>
        sentiment-wow-m
    </title>
    <path d="M18.5 28c1.26 0 2.5-1.466 2.5-3.5S19.76 21 18.5 21 16 22.466 16 24.5s1.24 3.5 2.5 3.5zm0 3c-3.038 0-5.5-2.91-5.5-6.5s2.462-6.5 5.5-6.5 5.5 2.91 5.5 6.5-2.462 6.5-5.5 6.5zm0 3C27.06 34 34 27.06 34 18.5 34 9.94 27.06 3 18.5 3 9.94 3 3 9.94 3 18.5 3 27.06 9.94 34 18.5 34zm0 3C8.283 37 0 28.717 0 18.5S8.283 0 18.5 0 37 8.283 37 18.5 28.717 37 18.5 37zm-5-21a2.5 2.5 0 1 0 0-5 2.5 2.5 0 0 0 0 5zm10 0a2.5 2.5 0 1 0 0-5 2.5 2.5 0 0 0 0 5z" fill="#232323"/>
</svg>
