<svg width="23px" height="23px" viewBox="0 0 23 23" xmlns="http://www.w3.org/2000/svg">
    <title>
        sentiment-dead
    </title>
    <path d="M11.5 21a9.5 9.5 0 1 0 0-19 9.5 9.5 0 0 0 0 19zm0 2C5.149 23 0 17.851 0 11.5S5.149 0 11.5 0 23 5.149 23 11.5 17.851 23 11.5 23zM6 16h11v-2H6v2zm2.94-9.694l1.414 1.414-3.635 3.635L5.305 9.94 8.94 6.306zm1.414 1.414L6.72 11.355 5.305 9.94 8.94 6.306l1.414 1.414zm-5.049 0L6.72 6.306l3.636 3.634-1.414 1.414L5.305 7.72zM16.44 6.306l1.414 1.414-3.635 3.635-1.414-1.415 3.635-3.634zm1.414 1.414l-3.635 3.635-1.414-1.415 3.635-3.634 1.414 1.414zm-5.049 0l1.414-1.414 3.636 3.634-1.414 1.414-3.636-3.634z" fill="#232323"/>
</svg>
