<svg width="37px" height="37px" viewBox="0 0 37 37" xmlns="http://www.w3.org/2000/svg">
    <title>
        sentiment-wink-m
    </title>
    <path d="M20 16h7v-3h-7v3zM9.568 22.945c.254.818.83 1.944 1.852 3.066C13.12 27.875 15.498 29 18.564 29c3.073 0 5.434-1.13 7.095-3.005 1-1.128 1.549-2.26 1.784-3.084l.41-1.443-2.885-.822-.41 1.443a3.932 3.932 0 0 1-.224.537c-.228.47-.532.941-.92 1.38C22.306 25.255 20.75 26 18.564 26c-2.193 0-3.778-.75-4.928-2.01a6.378 6.378 0 0 1-.964-1.391 4.074 4.074 0 0 1-.24-.544l-.445-1.432-2.864.89.445 1.432zM18.5 34C27.06 34 34 27.06 34 18.5 34 9.94 27.06 3 18.5 3 9.94 3 3 9.94 3 18.5 3 27.06 9.94 34 18.5 34zm0 3C8.283 37 0 28.717 0 18.5S8.283 0 18.5 0 37 8.283 37 18.5 28.717 37 18.5 37zm-5-21a2.5 2.5 0 1 0 0-5 2.5 2.5 0 0 0 0 5z" fill="#232323"/>
</svg>
