<svg width="37px" height="37px" viewBox="0 0 37 37" xmlns="http://www.w3.org/2000/svg">
    <title>
        sentiment-wink-m-l
    </title>
    <path d="M20 15h7v-2h-7v2zm-9.955 8.297c.234.753.778 1.817 1.744 2.877C13.397 27.938 15.643 29 18.564 29c2.925 0 5.152-1.066 6.72-2.837.944-1.064 1.462-2.132 1.678-2.889l.274-.962-1.924-.548-.274.962c-.03.103-.11.323-.254.619a6.6 6.6 0 0 1-.996 1.492C22.588 26.19 20.898 27 18.564 27c-2.338 0-4.056-.813-5.297-2.174a6.874 6.874 0 0 1-1.04-1.5 4.481 4.481 0 0 1-.272-.623l-.297-.955-1.91.594.297.955zM18.5 35C27.613 35 35 27.613 35 18.5S27.613 2 18.5 2 2 9.387 2 18.5 9.387 35 18.5 35zm0 2C8.283 37 0 28.717 0 18.5S8.283 0 18.5 0 37 8.283 37 18.5 28.717 37 18.5 37zM13 15a2 2 0 1 0 0-4 2 2 0 0 0 0 4z" fill="#232323"/>
</svg>
