<svg width="37px" height="37px" viewBox="0 0 37 37" xmlns="http://www.w3.org/2000/svg">
    <title>
        sentiment-smile-m
    </title>
    <path d="M9.568 23.445c.254.818.83 1.944 1.852 3.066 1.7 1.864 4.078 2.989 7.144 2.989 3.073 0 5.434-1.13 7.095-3.005 1-1.128 1.549-2.26 1.784-3.084l.41-1.443-2.885-.822-.41 1.443a3.932 3.932 0 0 1-.224.537c-.228.47-.532.941-.92 1.38-1.108 1.25-2.663 1.994-4.85 1.994-2.193 0-3.778-.75-4.928-2.01a6.378 6.378 0 0 1-.964-1.391 4.074 4.074 0 0 1-.24-.544l-.445-1.432-2.864.89.445 1.432zM18.5 34C27.06 34 34 27.06 34 18.5 34 9.94 27.06 3 18.5 3 9.94 3 3 9.94 3 18.5 3 27.06 9.94 34 18.5 34zm0 3C8.283 37 0 28.717 0 18.5S8.283 0 18.5 0 37 8.283 37 18.5 28.717 37 18.5 37zm-5-21a2.5 2.5 0 1 0 0-5 2.5 2.5 0 0 0 0 5zm10 0a2.5 2.5 0 1 0 0-5 2.5 2.5 0 0 0 0 5z" fill="#232323"/>
</svg>
