<svg width="23px" height="23px" viewBox="0 0 23 23" xmlns="http://www.w3.org/2000/svg">
    <title>
        sentiment-wink
    </title>
    <path d="M11.5 21a9.5 9.5 0 1 0 0-19 9.5 9.5 0 0 0 0 19zm0 2C5.149 23 0 17.851 0 11.5S5.149 0 11.5 0 23 5.149 23 11.5 17.851 23 11.5 23zm-3-13a1.5 1.5 0 1 0 0-3 1.5 1.5 0 0 0 0 3zm-2.455 4.297c.156.503.508 1.192 1.133 1.877C8.216 17.313 9.669 18 11.538 18c1.874 0 3.317-.691 4.332-1.837.611-.69.947-1.382 1.092-1.889l.274-.962-1.924-.548-.274.962c-.069.243-.279.675-.665 1.11-.646.73-1.552 1.164-2.834 1.164-1.287 0-2.212-.438-2.883-1.174a3.727 3.727 0 0 1-.564-.812 2.37 2.37 0 0 1-.137-.31l-.297-.956-1.91.594.297.955zM13 10h4V8h-4v2z" fill="#232323"/>
</svg>
