<svg width="37px" height="37px" viewBox="0 0 37 37" xmlns="http://www.w3.org/2000/svg">
    <title>
        sentiment-dead-m
    </title>
    <path d="M18.5 34C27.06 34 34 27.06 34 18.5 34 9.94 27.06 3 18.5 3 9.94 3 3 9.94 3 18.5 3 27.06 9.94 34 18.5 34zm0 3C8.283 37 0 28.717 0 18.5S8.283 0 18.5 0 37 8.283 37 18.5 28.717 37 18.5 37zM11 26h15v-3H11v3zm3.94-16.06l2.12 2.12-6 6-2.12-2.12 6-6zm2.12 2.12l-6 6-2.12-2.12 6-6 2.12 2.12zm-8.12 0l2.12-2.12 6 6-2.12 2.12-6-6zm17-2.12l2.12 2.12-6 6-2.12-2.12 6-6zm2.12 2.12l-6 6-2.12-2.12 6-6 2.12 2.12zm-8.12 0l2.12-2.12 6 6-2.12 2.12-6-6z" fill="#232323"/>
</svg>
