<svg width="23px" height="23px" viewBox="0 0 23 23" xmlns="http://www.w3.org/2000/svg">
    <title>
        sentiment-sad
    </title>
    <path d="M11.5 21a9.5 9.5 0 1 0 0-19 9.5 9.5 0 0 0 0 19zm0 2C5.149 23 0 17.851 0 11.5S5.149 0 11.5 0 23 5.149 23 11.5 17.851 23 11.5 23zm-3-13a1.5 1.5 0 1 0 0-3 1.5 1.5 0 0 0 0 3zm6 0a1.5 1.5 0 1 0 0-3 1.5 1.5 0 0 0 0 3zm-6.626 5.987c.12-.215.407-.59.86-.972A4.222 4.222 0 0 1 11.54 14c1.121 0 2.026.375 2.755 1.006.437.378.71.75.821.96l.466.885 1.77-.932-.466-.885c-.218-.414-.635-.98-1.282-1.54C14.527 12.563 13.17 12 11.54 12c-1.627 0-2.996.56-4.094 1.485-.659.556-1.09 1.118-1.319 1.528l-.486.874 1.747.973.487-.873z" fill="#232323"/>
</svg>
