<svg width="37px" height="37px" viewBox="0 0 37 37" xmlns="http://www.w3.org/2000/svg">
    <title>
        sentiment-great-m-l
    </title>
    <path d="M18.5 35C27.613 35 35 27.613 35 18.5S27.613 2 18.5 2 2 9.387 2 18.5 9.387 35 18.5 35zm0 2C8.283 37 0 28.717 0 18.5S8.283 0 18.5 0 37 8.283 37 18.5 28.717 37 18.5 37zM13 15a2 2 0 1 0 0-4 2 2 0 0 0 0 4zm11 0a2 2 0 1 0 0-4 2 2 0 0 0 0 4zM9.907 23.473L9.5 22h18l-.367 1.447c-.219.866-.746 2.087-1.705 3.305C23.83 28.779 21.562 30 18.582 30c-2.976 0-5.264-1.217-6.901-3.236-.983-1.213-1.536-2.43-1.774-3.291z" fill="#232323"/>
</svg>
