<svg width="37px" height="37px" viewBox="0 0 37 37" xmlns="http://www.w3.org/2000/svg">
    <title>
        sentiment-wow-m-l
    </title>
    <path d="M18.5 29c1.852 0 3.5-1.948 3.5-4.5S20.352 20 18.5 20 15 21.948 15 24.5s1.648 4.5 3.5 4.5zm0 2c-3.038 0-5.5-2.91-5.5-6.5s2.462-6.5 5.5-6.5 5.5 2.91 5.5 6.5-2.462 6.5-5.5 6.5zm0 4C27.613 35 35 27.613 35 18.5S27.613 2 18.5 2 2 9.387 2 18.5 9.387 35 18.5 35zm0 2C8.283 37 0 28.717 0 18.5S8.283 0 18.5 0 37 8.283 37 18.5 28.717 37 18.5 37zM13 15a2 2 0 1 0 0-4 2 2 0 0 0 0 4zm11 0a2 2 0 1 0 0-4 2 2 0 0 0 0 4z" fill="#232323"/>
</svg>
