<svg width="37px" height="37px" viewBox="0 0 37 37" xmlns="http://www.w3.org/2000/svg">
    <title>
        sentiment-sad-m
    </title>
    <path d="M13.3 25.748a3.67 3.67 0 0 1 .262-.364c.26-.329.58-.662.961-.972C15.607 23.526 16.934 23 18.556 23c1.616 0 2.916.522 3.962 1.4.366.306.673.635.92.96.138.183.22.31.244.356l.716 1.318 2.636-1.432-.716-1.318c-.32-.59-.93-1.393-1.872-2.183C22.884 20.79 20.915 20 18.556 20c-2.354 0-4.337.786-5.93 2.088-.961.785-1.59 1.58-1.926 2.164l-.748 1.3 2.6 1.496.748-1.3zM18.5 34C27.06 34 34 27.06 34 18.5 34 9.94 27.06 3 18.5 3 9.94 3 3 9.94 3 18.5 3 27.06 9.94 34 18.5 34zm0 3C8.283 37 0 28.717 0 18.5S8.283 0 18.5 0 37 8.283 37 18.5 28.717 37 18.5 37zm-5-21a2.5 2.5 0 1 0 0-5 2.5 2.5 0 0 0 0 5zm10 0a2.5 2.5 0 1 0 0-5 2.5 2.5 0 0 0 0 5z" fill="#232323"/>
</svg>
