<svg width="61px" height="61px" viewBox="0 0 61 61" xmlns="http://www.w3.org/2000/svg">
    <title>
        share-l
    </title>
    <path d="M20.052 28.743l-2.104-3.402L39.022 12.3l2.105 3.402-21.075 13.042zM17.948 36.7l2.104-3.402L41.127 46.34l-2.105 3.402L17.948 36.7zM13 36a5 5 0 1 0 0-10 5 5 0 0 0 0 10zm0 4a9 9 0 1 1 0-18 9 9 0 0 1 0 18zm34-25a5 5 0 1 0 0-10 5 5 0 0 0 0 10zm0 4a9 9 0 1 1 0-18 9 9 0 0 1 0 18zm0 38a5 5 0 1 0 0-10 5 5 0 0 0 0 10zm0 4a9 9 0 1 1 0-18 9 9 0 0 1 0 18z" fill="#232323"/>
</svg>
