<svg width="37px" height="37px" viewBox="0 0 37 37" xmlns="http://www.w3.org/2000/svg">
    <title>
        share-m-l
    </title>
    <path d="M10.505 21.85l1.052-1.7 12.97 8.026-1.053 1.7-12.97-8.026zm1.052-4.974l-1.052-1.7L23.474 7.15l1.052 1.7-12.969 8.026zM7.5 22a3.5 3.5 0 1 0 0-7 3.5 3.5 0 0 0 0 7zm0 2a5.5 5.5 0 1 1 0-11 5.5 5.5 0 0 1 0 11zm21-15a3.5 3.5 0 1 0 0-7 3.5 3.5 0 0 0 0 7zm0 2a5.5 5.5 0 1 1 0-11 5.5 5.5 0 0 1 0 11zm0 24a3.5 3.5 0 1 0 0-7 3.5 3.5 0 0 0 0 7zm0 2a5.5 5.5 0 1 1 0-11 5.5 5.5 0 0 1 0 11z" fill="#232323"/>
</svg>
