<svg width="37px" height="37px" viewBox="0 0 37 37" xmlns="http://www.w3.org/2000/svg">
    <title>
        team-m
    </title>
    <path d="M11.06 17.44a1.5 1.5 0 1 0-2.12 2.12 1.5 1.5 0 0 0 2.12-2.12zm2.122-2.122a4.5 4.5 0 1 1-6.364 6.364 4.5 4.5 0 0 1 6.364-6.364zM3 32c0-3.464.606-5 2.468-5h8.026c.382 0 .884.192 1.314.642C15.536 28.404 16 29.792 16 32h3c0-5.378-2.505-8-5.506-8H5.468C3.1 24 1.481 25.233.673 27.282.15 28.61 0 30.013 0 32h3zM26.94 9.44a1.5 1.5 0 1 0 2.12 2.12 1.5 1.5 0 0 0-2.12-2.12zm4.242-2.122a4.5 4.5 0 1 1-6.364 6.364 4.5 4.5 0 0 1 6.364-6.364zM21 24c0-3.464.606-5 2.468-5h8.026c.382 0 .884.192 1.314.642C33.536 20.404 34 21.792 34 24h3c0-5.378-2.505-8-5.506-8h-8.026c-2.368 0-3.987 1.233-4.795 3.282C18.15 20.61 18 22.013 18 24h3z" fill="#232323"/>
</svg>
