<svg width="23px" height="23px" viewBox="0 0 23 23" xmlns="http://www.w3.org/2000/svg">
    <title>
        team
    </title>
    <path d="M5.293 10.293a1 1 0 1 0 1.414 1.414 1 1 0 0 0-1.414-1.414zM8.12 8.879a3 3 0 1 1-4.24 4.241 3 3 0 0 1 4.24-4.24zm8.172-4.586a1 1 0 1 0 1.414 1.414 1 1 0 0 0-1.414-1.414zm2.828-1.414a3 3 0 1 1-4.24 4.241 3 3 0 0 1 4.24-4.24zM13 14h-2c0-3.108.758-5 3.48-5h5.016C21.403 9 23 10.645 23 14h-2c0-2.263-.715-3-1.504-3H14.48c-1.118 0-1.48.905-1.48 3zM2 20H0c0-3.108.758-5 3.48-5h5.016C10.403 15 12 16.645 12 20h-2c0-2.263-.715-3-1.504-3H3.48C2.362 17 2 17.905 2 20z" fill="#232323"/>
</svg>
