<svg width="61px" height="61px" viewBox="0 0 61 61" xmlns="http://www.w3.org/2000/svg">
    <title>
        team-l
    </title>
    <path d="M13.879 26.879a3 3 0 1 0 4.243 4.243 3 3 0 0 0-4.243-4.243zm7.07-2.829a7 7 0 1 1-9.898 9.9 7 7 0 0 1 9.899-9.9zM4 50H0c0-3.048.261-5.203 1.17-7.23C2.525 39.75 5.137 38 8.944 38H22.99C27.833 38 32 41.834 32 50h-4c0-3.423-.824-5.592-2.167-6.827-.878-.808-1.964-1.173-2.844-1.173H8.944C5.111 42 4 44.476 4 50zm38.879-36.121a3 3 0 1 0 4.243 4.243 3 3 0 0 0-4.243-4.243zm7.07-2.829a7 7 0 1 1-9.898 9.9 7 7 0 0 1 9.899-9.9zM33 37h-4c0-3.048.261-5.203 1.17-7.23 1.355-3.02 3.967-4.77 7.774-4.77H51.99C56.833 25 61 28.834 61 37h-4c0-3.423-.824-5.592-2.167-6.827-.878-.808-1.964-1.173-2.844-1.173H37.944C34.111 29 33 31.476 33 37z" fill="#232323"/>
</svg>
