<svg width="37px" height="37px" viewBox="0 0 37 37" xmlns="http://www.w3.org/2000/svg">
    <title>
        team-m-l
    </title>
    <path d="M7.232 15.732a2.5 2.5 0 1 0 3.536 3.536 2.5 2.5 0 0 0-3.536-3.536zm4.95-1.414a4.5 4.5 0 1 1-6.364 6.364 4.5 4.5 0 0 1 6.364-6.364zM2 31c0-3.718.703-5.5 2.968-5.5h8.026c.512 0 1.146.243 1.675.796C15.495 27.16 16 28.672 16 31h2c0-5.107-2.286-7.5-5.006-7.5H4.968c-2.152 0-3.593 1.098-4.33 2.966C.144 27.719 0 29.073 0 31h2zM26.232 8.732a2.5 2.5 0 1 0 3.536 3.536 2.5 2.5 0 0 0-3.536-3.536zm4.95-1.414a4.5 4.5 0 1 1-6.364 6.364 4.5 4.5 0 0 1 6.364-6.364zM21 24c0-3.718.703-5.5 2.968-5.5h8.026c.512 0 1.146.243 1.675.796C34.495 20.16 35 21.672 35 24h2c0-5.107-2.286-7.5-5.006-7.5h-8.026c-2.152 0-3.593 1.098-4.33 2.966C19.144 20.719 19 22.073 19 24h2z" fill="#232323"/>
</svg>
