<svg width="61px" height="61px" viewBox="0 0 61 61" xmlns="http://www.w3.org/2000/svg">
    <title>
        thumbs-down-l
    </title>
    <path d="M4 15v21h8V15H4zm12-4v29H0V11h16zm25.87 30.988c.044 4.005-.093 7.908-.413 11.708-.888 5.036-10.358 7.806-14.143 2.204-1.277-9.559-7.75-15.413-9.314-15.897V10.995c3.166.01 9.492-5.032 13.26-5.032h21.218c6.627 0 7.872 31.522 7.672 33.08-.458 2.483-1.084 2.945-5.023 2.945H41.87zm13.04-19.522c-.587-4.255-1.326-7.782-2.185-10.229-.359-1.023-.72-1.796-1.033-2.274H31.26c-.587 0-6.262 3.594-9.262 4.586v22.453c4.411 1.364 7.522 8.508 9.094 17.19.824.73 2.085.99 3.554.681 1.553-.327 2.646-1.175 2.846-1.775.294-3.59.42-7.278.377-11.065a4 4 0 0 1 4-4.045h13.257c.421 0 .776-.006 1.073-.017-.012-2.262-.523-9.962-1.289-15.505z" fill="#232323"/>
</svg>
