<svg width="37px" height="37px" viewBox="0 0 37 37" xmlns="http://www.w3.org/2000/svg">
    <title>
        thumbs-up-m
    </title>
    <path d="M7 16.993H3v12.003h4V16.993zm3-3v18.003H0V13.993h10zm1 18.005V13.999c.67-.18 4.804-2.893 5.67-9.155 2.664-3.589 8.357-1.32 8.582 1.55a77.64 77.64 0 0 1 .226 6.068h8.04c2.39 0 3.059 1.117 3.059 3.411 0 .724-.713 19.122-4.665 19.122H19.043c-2.286 0-6.123-2.99-8.043-2.997zm8.474-25.743c-.836 4.207-3.14 7.687-5.474 9.474V29.73c.587.264 1.3.618 2.23 1.087l.46.23c1.318.655 2.108.947 2.353.947h12.062c.116-.225.247-.528.38-.898.49-1.37.922-3.375 1.272-5.817.285-1.99.502-4.159.654-6.324.099-1.4.166-2.814.166-3.083 0-.155-.004-.292-.058-.41h-8.041a3 3 0 0 1-3-3c0-2.006-.07-3.906-.206-5.7a1.085 1.085 0 0 0-.116-.122c-.245-.226-.628-.431-1.056-.546-.654-.175-1.207-.117-1.626.16z" fill="#232323"/>
</svg>
