<svg width="23px" height="23px" viewBox="0 0 23 23" xmlns="http://www.w3.org/2000/svg">
    <title>
        thumbs-up
    </title>
    <path d="M2 11v7h2v-7H2zm4-2v11H0V9h6zm1 10.995V8.997c.417-.112 2.986-1.958 3.525-5.85 1.656-2.232 5.195-.821 5.335.963.093 1.19.14 2.487.14 3.892h4.999c1.485 0 1.901.574 1.901 2C22.9 10.453 22.457 22 20 22h-8c-1.42 0-3.806-2-5-2.005zm3.366-.755l.284.153c.784.42 1.256.607 1.35.607h7.41a5.16 5.16 0 0 0 .195-.48c.302-.852.57-2.105.786-3.631.308-2.168.509-5.05.509-5.886l-4.9-.001a2 2 0 0 1-2-2c0-1.355-.045-2.6-.134-3.735.009.113.022.137-.022.096a1.481 1.481 0 0 0-.6-.308c-.346-.093-.634-.073-.855.053-.53 2.589-1.948 4.818-3.389 5.998v8.416c.363.177.8.411 1.366.718z" fill="#232323"/>
</svg>
