<svg width="37px" height="37px" viewBox="0 0 37 37" xmlns="http://www.w3.org/2000/svg">
    <title>
        thumbs-up-m-l
    </title>
    <path d="M2 15.993v14.003h6V15.993H2zm8-2v18.003H0V13.993h10zm1 18.005V13.999c.67-.18 4.804-2.893 5.67-9.155 2.664-3.589 8.357-1.32 8.582 1.55a77.64 77.64 0 0 1 .226 6.068h8.04c2.39 0 3.059 1.117 3.059 3.411 0 .724-.713 19.122-4.665 19.122H19.043c-2.286 0-6.123-2.99-8.043-2.997zm7.558-26.285c-.775 4.397-3.26 7.974-5.558 9.51v15.175c.665.26 1.51.673 2.78 1.313l.465.233c1.461.726 2.34 1.051 2.798 1.051h8.284c2.355 0 2.456 0 4.35-.03.23-.291.492-.814.749-1.53.518-1.446.962-3.51 1.32-6.013a90.7 90.7 0 0 0 .663-6.396c.1-1.421.168-2.855.168-3.153 0-1.418.006-1.41-1.058-1.41h-8.041a2 2 0 0 1-2-2c0-2.082-.074-4.053-.22-5.912-.033-.424-.794-1.126-1.9-1.422-1.1-.294-2.1-.098-2.8.584z" fill="#232323"/>
</svg>
