<svg width="37px" height="37px" viewBox="0 0 37 37" xmlns="http://www.w3.org/2000/svg">
    <title>
        thumbs-down-m
    </title>
    <path d="M3 9v12.002h4V9H3zm7-3v18.002H0V6h10zm23.552 15.913a57.887 57.887 0 0 0-.095-2.276 84.448 84.448 0 0 0-.646-6.59c-.355-2.527-.802-4.628-1.31-6.066a8.077 8.077 0 0 0-.411-.986H19.043c-.233 0-1.019.297-2.334.962l-.45.23c-.944.484-1.665.848-2.259 1.119V22.32c2.41 1.807 4.583 5.032 5.476 9.419.426.298.968.35 1.632.166.43-.12.828-.332 1.087-.562.03-.028.057-.053.078-.075.133-1.5.2-3.41.198-5.719a3 3 0 0 1 2.995-3.003c3.203-.006 5.888-.009 8.057-.009.034-.15.034-.363.03-.624zM11 6.04c1.92.006 5.757-3.045 8.043-3.045h12.869c3.952 0 4.83 19.019 4.614 20.008-.148 1.009-.358 2.534-3.003 2.534-2.167 0-4.85.003-8.052.01.003 2.532-.076 4.622-.235 6.267-.24 2.469-5.782 5.038-8.554 1.336C15.71 26.885 11.951 24.428 11 24V6.04z" fill="#232323"/>
</svg>
