<svg width="23px" height="23px" viewBox="0 0 23 23" xmlns="http://www.w3.org/2000/svg">
    <title>
        thumbs-down
    </title>
    <path d="M2 6v7h2V6H2zm4-2v11H0V4h6zm3 9.94c1.623 1.332 2.928 3.592 3.393 5.958.48.23 1.381.023 1.485-.272A50.95 50.95 0 0 0 14 16a2 2 0 0 1 2-2h4.894c0-1.193-.206-4.054-.536-6.236-.218-1.443-.486-2.617-.782-3.398a4.77 4.77 0 0 0-.15-.353c-.774.014-1.708.019-2.806.016-.739-.002-1.479-.006-2.47-.014l-1.248-.01C12.494 4 12.212 4 12 4c-.093 0-.564.188-1.35.608l-.28.15a38.51 38.51 0 0 1-1.37.72v8.463zM7 4c1.194.004 3.58-2 5-2s5.577.067 7.977 0c2.4-.067 2.917 10.64 2.917 12 0 1.36-.359 2-1.895 2H16c0 1.36-.045 2.657-.135 3.888-.325 2.179-3.983 2.954-5.345.957C10.195 18.21 8.555 15.8 7 14.998V4z" fill="#232323"/>
</svg>
