<svg width="61px" height="61px" viewBox="0 0 61 61" xmlns="http://www.w3.org/2000/svg">
    <title>
        thumbs-up-l
    </title>
    <path d="M4 28v21h8V28H4zm12-4v29H0V24h16zm2 29V23.998c1.105-.297 7.92-5.634 9.35-15.957 4.39-5.917 13.776-2.177 14.148 2.555.248 3.154.371 6.955.372 11.404h13.257c3.939 0 5.042.441 5.042 4.224 0 1.194-1.174 31.82-7.69 31.82H31.26C27.492 58.043 21.166 53.01 18 53zM31.11 9.832C29.79 16.954 25.762 23.295 22 26.25v23.647c1.054.451 2.37 1.113 4.227 2.068l.762.39c2.3 1.166 3.683 1.688 4.272 1.688h20.421c.296-.455.637-1.183.978-2.142.837-2.356 1.561-5.755 2.147-9.882.474-3.339.834-6.971 1.087-10.598.164-2.35.275-4.722.275-5.197l-.001-.207a27.122 27.122 0 0 0-1.04-.017H41.87a4 4 0 0 1-4-4c0-4.351-.121-8.05-.36-11.09-.004-.056-.13-.284-.475-.602-.519-.479-1.288-.891-2.138-1.119-1.502-.402-2.828-.181-3.786.643z" fill="#232323"/>
</svg>
