<svg width="37px" height="37px" viewBox="0 0 37 37" xmlns="http://www.w3.org/2000/svg">
    <title>
        mic-on-fill-m-l
    </title>
    <path d="M20 29.968V37h-2v-7.022c-4.607-.231-7.71-2.252-9.486-5.473a12.483 12.483 0 0 1-1.316-3.72A10.349 10.349 0 0 1 7 19.052l2-.015c0 .053.006.173.02.35.027.308.073.654.143 1.028a10.51 10.51 0 0 0 1.103 3.124c1.553 2.817 4.308 4.485 8.729 4.46 4.403-.023 7.157-1.695 8.717-4.487a10.46 10.46 0 0 0 1.122-3.137c.072-.375.118-.722.145-1.031.015-.178.02-.299.021-.351l2 .014c-.003.37-.055.976-.202 1.743a12.434 12.434 0 0 1-1.34 3.738c-1.78 3.188-4.875 5.204-9.458 5.48zm-8-12.08V7.144S12.047.043 19 0c3.045-.018 7 2.402 7 7.143v10.714s-.047 7.1-7 7.143c-6.953.042-7-7.111-7-7.111z" fill="#232323"/>
</svg>
