<svg width="37px" height="37px" viewBox="0 0 37 37" xmlns="http://www.w3.org/2000/svg">
    <title>
        mic-on-fill-m
    </title>
    <path d="M21 30.432V37h-3v-6.553c-4.524-.354-7.628-2.443-9.423-5.7a12.977 12.977 0 0 1-1.37-3.869c-.15-.795-.204-1.427-.207-1.823l3-.022c.002.227.04.684.155 1.289.192 1.02.532 2.038 1.049 2.976 1.466 2.659 4.053 4.225 8.288 4.202 4.22-.023 6.81-1.595 8.283-4.232a9.966 9.966 0 0 0 1.068-2.987A7.94 7.94 0 0 0 29 18.989l3 .022c-.003.398-.058 1.034-.21 1.833-.253 1.32-.7 2.642-1.396 3.888-1.8 3.223-4.894 5.306-9.394 5.7zM12 17.89V7.143S12.05.043 19.5 0C22.763-.018 27 2.402 27 7.143v10.714s-.05 7.1-7.5 7.143c-7.45.042-7.5-7.111-7.5-7.111z" fill="#232323"/>
</svg>
