<svg width="37px" height="37px" viewBox="0 0 37 37" xmlns="http://www.w3.org/2000/svg">
    <title>
        mic-off-m
    </title>
    <path d="M14.187 14.197l-3 3V7.776c.006-.99.236-2.371.922-3.787 1.184-2.442 3.367-3.97 6.57-3.99 2.501-.014 4.87 1.303 6.255 3.45L22.72 5.665C21.963 4.019 20.372 2.99 18.696 3c-1.999.013-3.18.838-3.887 2.297a6.458 6.458 0 0 0-.542 1.752 5.515 5.515 0 0 0-.08.737v6.41zm8.904 3.823l3.096-3.096v2.3c-.006.99-.235 2.371-.922 3.787-1.183 2.442-3.367 3.968-6.568 3.988a8.388 8.388 0 0 1-2.296-.289l2.738-2.738c1.718-.13 2.777-.929 3.427-2.27a6.439 6.439 0 0 0 .525-1.682zM6.599 21.785a13.925 13.925 0 0 1-.205-.907c-.15-.795-.204-1.427-.207-1.823l3-.022c0 .042.004.1.007.157l-2.595 2.595zm21.431-1.504a7.975 7.975 0 0 0 .157-1.292l3 .022c-.003.398-.058 1.034-.21 1.833-.253 1.32-.7 2.642-1.395 3.888-1.799 3.22-4.902 5.286-9.395 5.682V37h-3v-6.571c-1.966-.156-3.65-.653-5.091-1.414l2.241-2.241c1.206.475 2.634.735 4.342.726 4.22-.023 6.811-1.595 8.284-4.231a9.98 9.98 0 0 0 1.067-2.988zM6.121 30.704L4 28.583l27-27 2.121 2.12-27 27z" fill="#232323" fill-rule="evenodd"/>
</svg>
