<svg width="37px" height="37px" viewBox="0 0 37 37" xmlns="http://www.w3.org/2000/svg">
    <title>
        mic-on-m-l
    </title>
    <path d="M7 19.052c.003.367.054.97.198 1.733.238 1.265.66 2.53 1.317 3.72 1.901 3.45 5.326 5.523 10.49 5.495 5.134-.028 8.546-2.099 10.453-5.512a12.434 12.434 0 0 0 1.34-3.738c.147-.767.2-1.373.202-1.743l-2-.014c0 .052-.006.173-.021.35-.027.31-.073.657-.145 1.032a10.46 10.46 0 0 1-1.122 3.137c-1.56 2.792-4.314 4.464-8.717 4.488-4.421.024-7.176-1.644-8.729-4.46a10.51 10.51 0 0 1-1.103-3.125 10.27 10.27 0 0 1-.142-1.027 5.21 5.21 0 0 1-.021-.35l-2 .014zM18 29v8h2v-8h-2zm-3.913-10.331c.11.654.304 1.305.593 1.894.774 1.577 2.06 2.45 4.308 2.437 2.246-.014 3.541-.896 4.321-2.463a6.88 6.88 0 0 0 .602-1.9c.066-.387.088-.672.089-.78V7.143C24 4.089 21.589 1.984 19.012 2c-2.246.014-3.541.896-4.321 2.462a6.88 6.88 0 0 0-.602 1.9 5.723 5.723 0 0 0-.089.78v10.739c.001.124.023.406.087.788zM12 17.889V7.143S12.047.043 19 0c3.045-.018 7 2.402 7 7.143v10.714s-.047 7.1-7 7.143c-6.953.042-7-7.111-7-7.111z" fill="#232323"/>
</svg>
