<svg width="37px" height="37px" viewBox="0 0 37 37" xmlns="http://www.w3.org/2000/svg">
    <title>
        mic-off-fill-m
    </title>
    <path d="M20.5 30.432V37h-3v-6.553c-1.997-.156-3.717-.65-5.17-1.434l2.256-2.249c1.217.489 2.674.745 4.406.736 4.22-.023 6.81-1.595 8.283-4.232a9.966 9.966 0 0 0 1.068-2.987 7.94 7.94 0 0 0 .157-1.292l3 .022c-.003.398-.058 1.034-.21 1.833-.253 1.32-.7 2.642-1.395 3.888-1.801 3.223-4.895 5.306-9.395 5.7zm-9-13.298V7.143S11.55.043 19 0c2.22-.013 4.89 1.103 6.37 3.31L11.5 17.134zm15-2.244v2.967s-.05 7.1-7.5 7.143a9.35 9.35 0 0 1-2.372-.27l9.872-9.84zM9.502 19.125l-2.609 2.6a14 14 0 0 1-.186-.847c-.15-.795-.204-1.427-.207-1.823l3-.022c0 .028 0 .058.002.092zm21.51-17.13l2.12 2.12L6.13 31.114l-2.12-2.121L31.011 1.994z" fill="#232323"/>
</svg>
