<svg width="23px" height="23px" viewBox="0 0 23 23" xmlns="http://www.w3.org/2000/svg">
    <title>
        mic-on
    </title>
    <path d="M3.5 12.037c.007.994.274 2.41 1.065 3.843 1.343 2.436 3.768 3.904 7.382 3.885 3.59-.02 6.005-1.485 7.351-3.895.805-1.44 1.077-2.864 1.084-3.863l-2-.014a5.384 5.384 0 0 1-.106.876 6.756 6.756 0 0 1-.724 2.026c-.999 1.788-2.756 2.854-5.616 2.87-2.87.015-4.626-1.047-5.62-2.85a6.79 6.79 0 0 1-.711-2.018 5.437 5.437 0 0 1-.105-.874l-2 .014zM7 11.024v-6.03c.004-.642.16-1.534.623-2.447C8.417.984 9.87.013 11.994 0 14.594-.015 17 2.043 17 5v6.007c-.004.641-.16 1.533-.623 2.446-.794 1.563-2.248 2.534-4.371 2.547-2.139.013-3.602-.962-4.394-2.543A5.634 5.634 0 0 1 7 11.024zm2.051.447c.065.376.178.75.349 1.09.463.925 1.247 1.447 2.594 1.439 1.345-.008 2.133-.534 2.6-1.453a3.9 3.9 0 0 0 .354-1.093c.039-.223.052-.388.052-.454V5a2.98 2.98 0 0 0-2.994-3c-1.345.008-2.133.534-2.6 1.453a3.9 3.9 0 0 0-.354 1.093A3.218 3.218 0 0 0 9 5v6.014c0 .074.014.237.051.457zM11 19v4h2v-4h-2z" fill="#232323"/>
</svg>
