<svg width="61px" height="61px" viewBox="0 0 61 61" xmlns="http://www.w3.org/2000/svg">
    <title>
        mic-off-l
    </title>
    <path d="M6.5 51l46-46 2.829 2.829-46 46L6.5 51zm16.495-22.071l-3.67 3.67c-.32-1.485-.33-2.546-.33-2.546V12s.08-11.928 12-12C35.57-.027 41.34 3.093 42.698 9.226l-3.703 3.703v-.93c0-4.734-3.845-8.024-7.976-8-3.647.023-5.678 1.379-6.914 3.812-.471.927-.788 1.96-.97 2.999-.104.61-.14 1.05-.14 1.19v16.929zm16 .97l4-4V30s-.08 11.93-12 12c-1.378.008-2.592-.15-3.672-.428l3.575-3.575c.026 0 .047.003.073.003 3.647-.022 5.678-1.377 6.914-3.81.47-.928.788-1.96.969-2.998.106-.61.14-1.05.14-1.191v-.1zm-26.136 9.166a22.209 22.209 0 0 1-1.536-5.007c-.238-1.303-.324-2.335-.328-2.97l4-.027c0 .082.009.278.033.57a18.812 18.812 0 0 0 .912 4.352l-3.081 3.082zm34.102-7.507c.025-.293.033-.49.034-.572l4 .029c-.005.637-.092 1.674-.335 2.984-.402 2.169-1.115 4.34-2.223 6.383-2.923 5.39-7.995 8.834-15.443 9.389V60.91h-4V49.79c-3.025-.195-5.65-.882-7.908-1.982l3.03-3.03c1.937.719 4.213 1.094 6.867 1.079 7.058-.04 11.443-2.781 13.938-7.382.892-1.644 1.476-3.423 1.806-5.206.116-.623.191-1.2.234-1.711z" fill="#232323" fill-rule="evenodd"/>
</svg>
