<svg width="61px" height="61px" viewBox="0 0 61 61" xmlns="http://www.w3.org/2000/svg">
    <title>
        mic-off-fill-l
    </title>
    <path d="M33 49.779v11.13h-4V49.8c-3.167-.203-5.903-.94-8.227-2.133l3.005-3.02c2.01.805 4.398 1.226 7.21 1.21 7.059-.039 11.443-2.78 13.938-7.38.892-1.645 1.476-3.425 1.807-5.207.115-.623.19-1.2.234-1.711a9.39 9.39 0 0 0 .033-.572l4 .028c-.005.638-.091 1.675-.334 2.985-.403 2.168-1.115 4.34-2.223 6.383-2.924 5.392-7.992 8.844-15.443 9.397zm9.586-41.044L19.246 32.19c-.24-1.268-.246-2.136-.246-2.136V12S19.08.072 31 0c4.452-.026 10.037 2.926 11.586 8.735zM43 25.331V30s-.08 11.928-12 12c-1.544.009-2.89-.185-4.062-.529L43 25.331zM15.827 35.624l-3.109 3.124a22.355 22.355 0 0 1-1.39-4.69c-.238-1.303-.323-2.335-.328-2.969l4-.028c0 .082.009.278.033.57a19.075 19.075 0 0 0 .794 3.992zM52.003 5.012l2.829 2.828L8.85 53.834l-2.83-2.828L52.003 5.012z" fill="#232323"/>
</svg>
