<svg width="23px" height="23px" viewBox="0 0 23 23" xmlns="http://www.w3.org/2000/svg">
    <title>
        mic-off-fill
    </title>
    <path d="M7.66 18.876l1.522-1.522c.776.274 1.688.416 2.754.41 2.86-.015 4.617-1.081 5.616-2.87a6.756 6.756 0 0 0 .724-2.025c.078-.411.105-.722.106-.876l2 .014c-.007 1-.28 2.422-1.084 3.863-1.21 2.166-3.283 3.569-6.298 3.845V23h-2v-3.266c-1.278-.092-2.39-.387-3.34-.858zm-3.422-3.65c-.54-1.202-.732-2.347-.738-3.189l2-.014c.001.154.027.464.105.874.049.259.111.517.19.773l-1.557 1.556zM16.643 2.821L7.12 12.345c-.117-.528-.12-.896-.12-.896V4.57S7.033.026 12 0c1.708-.01 3.816.942 4.643 2.82zM17 9.536v1.893s-.033 4.544-5 4.57a6.705 6.705 0 0 1-1.344-.12L17 9.537zm3.293-8.243l1.414 1.414-18 18-1.414-1.414 18-18z" fill="#232323" fill-rule="evenodd"/>
</svg>
