<svg width="37px" height="37px" viewBox="0 0 37 37" xmlns="http://www.w3.org/2000/svg">
    <title>
        mic-off-m-l
    </title>
    <path d="M18.001 29.977c-2.577-.132-4.672-.836-6.34-1.985l1.443-1.444c1.508.939 3.434 1.465 5.892 1.452 4.401-.024 7.154-1.696 8.713-4.488.554-.992.917-2.064 1.122-3.137a10.2 10.2 0 0 0 .145-1.031c.015-.178.02-.3.02-.351l2 .015c-.003.369-.055.975-.202 1.742a12.427 12.427 0 0 1-1.34 3.738c-1.78 3.187-4.872 5.204-9.454 5.48V37h-1.999v-7.023zm-3.998-12.813l-1.876 1.877a7.713 7.713 0 0 1-.123-1.152V7.143S12.05.043 19 0c2.637-.016 5.951 1.8 6.792 5.369L24 7.164v-.021c0-3.054-2.41-5.16-4.986-5.143-2.245.014-3.54.896-4.32 2.463a6.844 6.844 0 0 0-.601 1.899 5.809 5.809 0 0 0-.089.78v10.022zm9.996-1.515l1.999-2v4.208s-.047 7.1-6.997 7.143c-1.47.009-2.617-.316-3.535-.815l1.497-1.497c.572.206 1.236.317 2.026.312 2.245-.014 3.54-.896 4.32-2.462a6.86 6.86 0 0 0 .6-1.9c.067-.388.089-.673.09-.781v-2.208zM7.929 23.24a12.964 12.964 0 0 1-.725-2.455 10.353 10.353 0 0 1-.198-1.733l1.999-.015c0 .053.006.173.02.35a10.742 10.742 0 0 0 .466 2.291L7.929 23.24zm-2.715 8.373L3.8 30.2l26.989-27 1.413 1.414-26.988 27z" fill="#232323" fill-rule="evenodd"/>
</svg>
