<svg width="61px" height="61px" viewBox="0 0 61 61" xmlns="http://www.w3.org/2000/svg">
    <title>
        mic-on-l
    </title>
    <path d="M33 49.779v11.13h-4V49.8c-7.49-.481-12.573-3.941-15.488-9.39-1.089-2.033-1.789-4.194-2.184-6.352-.238-1.302-.323-2.334-.328-2.968l4-.028c0 .082.009.278.033.57.042.51.116 1.085.23 1.706.325 1.775.9 3.548 1.775 5.185 2.484 4.642 6.867 7.374 13.95 7.335 7.059-.04 11.443-2.78 13.938-7.382.892-1.644 1.476-3.424 1.807-5.206.115-.623.19-1.2.234-1.711a9.39 9.39 0 0 0 .033-.572l4 .028c-.005.638-.091 1.675-.334 2.985-.403 2.168-1.115 4.34-2.223 6.383-2.924 5.392-7.992 8.844-15.443 9.397zm-9.86-18.535c.177 1.037.49 2.067.953 2.99 1.226 2.448 3.238 3.788 6.883 3.766 3.647-.022 5.678-1.378 6.914-3.811.47-.927.788-1.96.969-2.999.106-.61.14-1.05.141-1.19V12c0-4.735-3.845-8.025-7.976-8-3.647.022-5.678 1.378-6.914 3.811-.47.927-.788 1.96-.969 2.999-.106.61-.14 1.05-.141 1.19v18.036c.002.174.037.61.14 1.208zM19 30.054V12S19.08.072 31 0c5.22-.031 12 4.035 12 12v18s-.08 11.928-12 12c-11.92.071-12-11.947-12-11.947z" fill="#232323"/>
</svg>
