<svg width="37px" height="37px" viewBox="0 0 37 37" xmlns="http://www.w3.org/2000/svg">
    <title>
        mic-on-m
    </title>
    <path d="M6 19.055c.003.396.057 1.028.207 1.823a12.977 12.977 0 0 0 1.37 3.868c1.988 3.608 5.581 5.783 10.931 5.754 5.316-.03 8.893-2.2 10.887-5.768a12.928 12.928 0 0 0 1.395-3.888c.152-.799.207-1.435.21-1.833l-3-.022a7.94 7.94 0 0 1-.157 1.292 9.966 9.966 0 0 1-1.068 2.987c-1.472 2.637-4.063 4.209-8.283 4.232-4.235.023-6.822-1.543-8.288-4.202a10.016 10.016 0 0 1-1.05-2.976A8.018 8.018 0 0 1 9 19.033l-3 .022zm8.076-.587c.099.55.273 1.096.527 1.58.669 1.27 1.762 1.964 3.88 1.952 2.122-.012 3.23-.717 3.905-1.983a5.477 5.477 0 0 0 .535-1.582c.059-.319.077-.54.077-.578V7.143C23 4.728 20.863 2.987 18.517 3c-2.122.012-3.23.717-3.905 1.983a5.477 5.477 0 0 0-.535 1.582c-.059.319-.077.54-.077.578v10.73c.001.068.02.285.076.595zM11 17.888V7.144S11.05.043 18.5 0C21.763-.018 26 2.402 26 7.143v10.714s-.05 7.1-7.5 7.143c-7.45.042-7.5-7.111-7.5-7.111zM17 29v8h3v-8h-3z" fill="#232323"/>
</svg>
