<svg width="61px" height="61px" viewBox="0 0 61 61" xmlns="http://www.w3.org/2000/svg">
    <title>
        mic-on-fill-l
    </title>
    <path d="M33 49.779V61h-4V49.8c-7.49-.482-12.573-3.942-15.488-9.39-1.089-2.034-1.789-4.195-2.184-6.353-.238-1.302-.323-2.334-.328-2.968l4-.028c0 .082.009.278.033.57.042.51.116 1.085.23 1.706.325 1.775.9 3.548 1.775 5.185 2.484 4.642 6.866 7.374 13.95 7.335 7.059-.04 11.443-2.78 13.938-7.382.892-1.644 1.476-3.424 1.807-5.206.115-.623.19-1.2.233-1.711.025-.294.033-.49.034-.572l4 .028c-.005.638-.091 1.675-.334 2.985-.403 2.168-1.115 4.34-2.223 6.383-2.924 5.392-7.992 8.844-15.443 9.397zM19 30.053V12S19.08.072 31 0c5.22-.031 12 4.035 12 12v18s-.08 11.928-12 12c-11.92.071-12-11.947-12-11.947z" fill="#232323"/>
</svg>
