<svg width="23px" height="23px" viewBox="0 0 23 23" xmlns="http://www.w3.org/2000/svg">
    <title>
        mic-off
    </title>
    <path d="M2 19L20 1l1.414 1.414-18 18L2 19zm7.034-9.121l-1.93 1.93a5.34 5.34 0 0 1-.07-.785V5c.012-1.724 1.069-4.976 4.994-5 1.284.037 2.635.55 3.582 1.493.314.312.559.667.77 1.039l-1.502 1.503a2.731 2.731 0 0 0-.678-1.123c-.57-.568-1.396-.937-2.16-.912-2.902.018-3.004 2.7-3.006 3.007v4.872zM12.028 14c2.902-.018 3.004-2.701 3.006-3.007v-.044l2-2V11c-.012 1.724-1.07 4.977-4.994 5h-.041c-.665 0-1.242-.1-1.75-.266l1.735-1.735L12 14h.027zm-6.331-.818L4.08 14.8c-.38-.999-.541-1.98-.546-2.76l2-.02c0 .064.018.53.163 1.163zm6.272 4.583c6.332-.035 6.444-5.538 6.446-5.772l2 .015c0 .073-.156 7.022-7.382 7.689V23h-2v-3.286c-1.504-.114-2.74-.497-3.73-1.067L8.8 17.15c.818.373 1.831.615 3.112.615h.057z" fill="#232323" fill-rule="evenodd"/>
</svg>
