<svg width="37px" height="37px" viewBox="0 0 37 37" xmlns="http://www.w3.org/2000/svg">
    <title>
        file-xls-m
    </title>
    <path d="M10.22 29.243l3.542-5.12h-3.204l-2.07 3.127-2.07-3.127H3.246l3.588 5.243L3 34.854h3.173l2.315-3.419 2.315 3.419h3.266l-3.848-5.611zm7.758 3.327v-8.447h-2.729v10.731h7.282V32.57h-4.553zM28.436 24c1.549 0 3.128.475 4.232 1.196l-1.027 2.13c-1.135-.658-2.56-1.118-3.435-1.118-.705 0-1.18.26-1.18.781 0 1.855 5.672.798 5.672 4.676 0 2.147-1.9 3.281-4.292 3.281-1.794 0-3.634-.675-4.906-1.717l1.058-2.1c1.104.966 2.76 1.61 3.878 1.61.859 0 1.396-.323 1.396-.936 0-1.9-5.673-.766-5.673-4.568 0-1.978 1.702-3.235 4.277-3.235zM24.082 3H6v18H3V0h22.363L34 9.023V21h-3V10.227L24.082 3z" fill="#232323" fill-rule="evenodd"/>
</svg>
