<svg width="37px" height="37px" viewBox="0 0 37 37" xmlns="http://www.w3.org/2000/svg">
    <title>
        file-jpg-m-l
    </title>
    <path d="M11.36 23.8h-6.4v2.144h3.856v5.408c0 .96-.512 1.472-1.344 1.472-.688 0-1.584-.416-2.368-1.248l-1.168 1.792c.944 1.104 2.16 1.744 3.664 1.744 2.32 0 3.76-1.344 3.76-3.696V23.8zm2.256 0V35h2.528v-3.2h2.224c2.848 0 4.48-1.504 4.48-4.112 0-2.48-1.632-3.888-4.48-3.888h-4.752zm2.528 2.096h2.096c1.408 0 2.208.624 2.208 1.872 0 1.28-.8 1.92-2.208 1.92h-2.096v-3.792zm15.84 3.456h2.192v4.304c-1.184.864-2.992 1.456-4.544 1.456-3.392 0-5.968-2.464-5.968-5.712 0-3.232 2.624-5.68 6.112-5.68 1.664 0 3.36.64 4.496 1.632l-1.424 1.808c-.832-.768-1.984-1.248-3.072-1.248-1.984 0-3.52 1.52-3.52 3.488 0 1.984 1.552 3.504 3.536 3.504.672 0 1.472-.24 2.192-.608v-2.944zM25.076 2H5v18H3V0h22.916L35 9.267V20h-2v-9.916L25.076 2z" fill="#232323" fill-rule="evenodd"/>
</svg>
