<svg width="20px" height="22px" viewBox="0 0 20 22" xmlns="http://www.w3.org/2000/svg">
    <title>
        ppt
    </title>
    <path d="M19.5 16.75V22h-1.75v-5.25H15.5V15h6v1.75h-2zM16.391 0l5.612 5.593L22 13h-2V6.418L15.582 2H4v11H2V0h14.391zM2 15h3.05c1.79 0 2.82.88 2.82 2.44 0 1.64-1.03 2.59-2.82 2.59H3.78V22H2v-7zm1.78 1.4v2.23h1.18c.78 0 1.23-.39 1.23-1.13 0-.73-.45-1.1-1.23-1.1H3.78zM8.75 15h3.05c1.79 0 2.82.88 2.82 2.44 0 1.64-1.03 2.59-2.82 2.59h-1.27V22H8.75v-7zm1.78 1.4v2.23h1.18c.78 0 1.23-.39 1.23-1.13 0-.73-.45-1.1-1.23-1.1h-1.18z"/>
</svg>
