<svg width="23px" height="23px" viewBox="0 0 23 23" xmlns="http://www.w3.org/2000/svg">
    <title>
        file-zip
    </title>
    <path d="M9.926 15.847V14.65h-6.29v1.48h3.801L3.5 20.803V22h6.489v-1.48h-3.99l3.927-4.673zM13.369 22v-7.35H11.5V22h1.869zm1.998-7.35h3.203c1.88 0 2.961.924 2.961 2.562 0 1.722-1.081 2.72-2.961 2.72h-1.334V22h-1.869v-7.35zm1.87 1.47h1.239c.819 0 1.291.389 1.291 1.155 0 .777-.473 1.187-1.291 1.187h-1.24V16.12zM15.586 2H4v11H2V0h14.415L22 5.586V13h-2V6.414L15.586 2z" fill="#232323" fill-rule="evenodd"/>
</svg>
