<svg width="61px" height="61px" viewBox="0 0 61 61" xmlns="http://www.w3.org/2000/svg">
    <title>
        file-jpg-l
    </title>
    <path d="M17.708 39.137H6.753v3.67h6.6v9.257c0 1.643-.876 2.52-2.3 2.52-1.178 0-2.712-.713-4.054-2.137L5 55.515c1.616 1.89 3.697 2.985 6.272 2.985 3.971 0 6.436-2.3 6.436-6.327V39.137zm3.862 0v19.171h4.327v-5.477h3.807c4.875 0 7.668-2.575 7.668-7.039 0-4.245-2.793-6.655-7.668-6.655H21.57zm4.327 3.588h3.588c2.41 0 3.779 1.068 3.779 3.204 0 2.191-1.37 3.287-3.78 3.287h-3.587v-6.491zM53.01 48.64h3.752v7.368c-2.027 1.479-5.122 2.492-7.778 2.492-5.807 0-10.216-4.218-10.216-9.777C38.768 43.19 43.26 39 49.23 39c2.848 0 5.751 1.096 7.696 2.794l-2.438 3.094c-1.424-1.314-3.396-2.136-5.258-2.136-3.396 0-6.025 2.602-6.025 5.97 0 3.397 2.656 5.999 6.052 5.999 1.15 0 2.52-.411 3.753-1.041v-5.04zM40.5 4H9v28.945H5V0h37.192L57 15.26v17.685h-4V16.88L40.5 4z" fill="#232323" fill-rule="evenodd"/>
</svg>
