<svg width="61px" height="61px" viewBox="0 0 61 61" xmlns="http://www.w3.org/2000/svg">
    <title>
        file-zip-l
    </title>
    <path d="M25.394 42.054V39H9.348v3.777h9.697L9 54.697v3.054h16.554v-3.777H15.375l10.019-11.92zm8.783 15.697V39H29.41v18.751h4.768zM39.276 39h8.17C52.241 39 55 41.357 55 45.536c0 4.393-2.76 6.938-7.554 6.938h-3.402v5.277h-4.768V39zm4.768 3.75h3.16c2.09 0 3.296.991 3.296 2.947 0 1.982-1.206 3.027-3.295 3.027h-3.161V42.75zM40.5 4H9v28.945H5V0h37.192L57 15.26v17.685h-4V16.88L40.5 4z" fill="#232323" fill-rule="evenodd"/>
</svg>
