<svg width="61px" height="61px" viewBox="0 0 61 61" xmlns="http://www.w3.org/2000/svg">
    <title>
        file-pdf-l
    </title>
    <path d="M5 39v18.667h4.213v-5.334h3.707c4.747 0 7.467-2.506 7.467-6.853 0-4.133-2.72-6.48-7.467-6.48H5zm4.213 3.493h3.494c2.346 0 3.68 1.04 3.68 3.12 0 2.134-1.334 3.2-3.68 3.2H9.213v-6.32zM23.08 39v18.667h7.76c5.893 0 9.973-3.84 9.973-9.334C40.813 42.813 36.787 39 31 39h-7.92zm4.213 3.547h3.627c3.2 0 5.6 2.373 5.6 5.813 0 3.413-2.293 5.76-5.413 5.76h-3.814V42.547zm29.68-.054H47.8v4.587h8.427v3.52H47.8v7.067h-4.213V39H57l-.027 3.493zM40.5 4H9v28.945H5V0h37.192L57 15.26v17.685h-4V16.88L40.5 4z" fill="#232323" fill-rule="evenodd"/>
</svg>
