<svg width="37px" height="37px" viewBox="0 0 37 37" xmlns="http://www.w3.org/2000/svg">
    <title>
        file-xls-m-l
    </title>
    <path d="M10.296 29.16l3.728-5.36h-2.992L8.68 27.224 6.344 23.8H3.4l3.744 5.472L3.128 35h2.96l2.592-3.728L11.32 35h3.024l-4.048-5.84zm8 3.632V23.8h-2.528V35h7.328v-2.208h-4.8zm11.4-9.104c1.568 0 3.136.48 4.256 1.216L32.976 27c-1.184-.704-2.592-1.152-3.488-1.152-.848 0-1.424.304-1.424.912 0 2.064 5.968.912 5.952 4.944 0 2.192-1.904 3.376-4.384 3.376-1.84 0-3.68-.704-4.944-1.776l1.008-2.064c1.152 1.024 2.784 1.68 3.968 1.68 1.04 0 1.664-.384 1.664-1.072 0-2.112-5.968-.88-5.968-4.848 0-2.032 1.744-3.312 4.336-3.312zM25.076 2H5v18H3V0h22.916L35 9.267V20h-2v-9.916L25.076 2z" fill="#232323" fill-rule="evenodd"/>
</svg>
