<svg width="61px" height="61px" viewBox="0 0 61 61" xmlns="http://www.w3.org/2000/svg">
    <title>
        file-xls-l
    </title>
    <path d="M17.067 47.82l6.276-9.023h-5.037l-3.96 5.764-3.932-5.764H5.458l6.303 9.212L5 57.652h4.983l4.364-6.276 4.444 6.276h5.091l-6.815-9.832zm13.468 6.115V38.797H26.28v18.855h12.337v-3.717h-8.08zm19.192-15.327c2.64 0 5.28.808 7.165 2.047l-1.643 3.529c-1.993-1.185-4.364-1.94-5.872-1.94-1.428 0-2.397.512-2.397 1.536 0 3.474 10.047 1.535 10.02 8.323 0 3.69-3.205 5.683-7.38 5.683-3.098 0-6.196-1.185-8.324-2.99l1.697-3.474c1.94 1.724 4.687 2.828 6.68 2.828 1.751 0 2.802-.646 2.802-1.805 0-3.555-10.047-1.481-10.047-8.161 0-3.421 2.936-5.576 7.3-5.576zM40.5 4H9v28.945H5V0h37.192L57 15.26v17.685h-4V16.88L40.5 4z" fill="#232323" fill-rule="evenodd"/>
</svg>
