<svg width="37px" height="37px" viewBox="0 0 37 37" xmlns="http://www.w3.org/2000/svg">
    <title>
        file-zip-m
    </title>
    <path d="M14.617 25.791V24H5.204v2.216h5.689L5 33.209V35h9.711v-2.216H8.74l5.877-6.993zM19.77 35V24h-2.797v11h2.797zm2.99-11h4.794c2.813 0 4.431 1.383 4.431 3.834 0 2.577-1.618 4.07-4.431 4.07h-1.996V35h-2.797V24zm2.798 2.2h1.854c1.226 0 1.933.581 1.933 1.729 0 1.162-.707 1.775-1.933 1.775h-1.854V26.2zM24.082 3H6v18H3V0h22.363L34 9.023V21h-3V10.227L24.082 3z" fill="#232323" fill-rule="evenodd"/>
</svg>
