<svg width="33px" height="37px" viewBox="0 0 33 37" xmlns="http://www.w3.org/2000/svg">
    <title>
        ppt-m-l
    </title>
    <path d="M31.262 27v9.167h-2.5V27H24.5v-2h11v2h-4.238zM3 25h4.752c2.848 0 4.48 1.408 4.48 3.888 0 2.608-1.632 4.112-4.48 4.112H5.528v3.2H3V25zm2.528 2.096v3.792h2.096c1.408 0 2.208-.64 2.208-1.92 0-1.248-.8-1.872-2.208-1.872H5.528zM14 25h4.752c2.848 0 4.48 1.408 4.48 3.888 0 2.608-1.632 4.112-4.48 4.112h-2.224v3.2H14V25zm2.528 2.096v3.792h2.096c1.408 0 2.208-.64 2.208-1.92 0-1.248-.8-1.872-2.208-1.872h-2.096zM5 2v19H3V0h23.638L36 9.73V21h-2V10.535L25.787 2H5z"/>
</svg>
