<svg width="32px" height="35px" viewBox="0 0 32 35" xmlns="http://www.w3.org/2000/svg">
    <title>
        ppt-m
    </title>
    <path d="M30.935 26.815V34.9H28.12v-8.085H24.5V24h10v2.815h-3.565zM24.93 3H6v17.913H3V0h23.174l8.821 8.991L35 20.903h-3V10.265L24.931 3zM14 24h4.757c2.791 0 4.397 1.372 4.397 3.805 0 2.558-1.606 4.04-4.397 4.04h-1.981v3.072H14V24zm2.776 2.183v3.478h1.84c1.217 0 1.918-.608 1.918-1.762 0-1.139-.701-1.716-1.918-1.716h-1.84zM3 24h4.757c2.791 0 4.397 1.372 4.397 3.805 0 2.558-1.606 4.04-4.397 4.04H5.776v3.072H3V24zm2.776 2.183v3.478h1.84c1.217 0 1.918-.608 1.918-1.762 0-1.139-.701-1.716-1.918-1.716h-1.84z"/>
</svg>
