<svg width="23px" height="23px" viewBox="0 0 23 23" xmlns="http://www.w3.org/2000/svg">
    <title>
        file-jpg
    </title>
    <path d="M6.913 15.05H2.651v1.466h2.441v3.316c0 .58-.284.875-.763.875-.417 0-.986-.265-1.495-.794L2 21.123c.63.723 1.444 1.14 2.451 1.14 1.516 0 2.462-.875 2.462-2.39V15.05zm1.302.011v7.12h1.81v-2.003h1.293c1.82 0 2.868-.967 2.868-2.635 0-1.587-1.048-2.482-2.868-2.482H8.215zm1.81 1.424h1.201c.794 0 1.251.377 1.251 1.12 0 .752-.457 1.149-1.25 1.149h-1.201v-2.269zm9.837 2.075h1.567v2.777c-.763.54-1.963.926-2.96.926-2.167 0-3.805-1.567-3.805-3.642 0-2.065 1.679-3.621 3.927-3.621 1.058 0 2.177.407 2.909 1.058l-1.017 1.23c-.519-.477-1.241-.772-1.902-.772-1.17 0-2.065.915-2.065 2.105 0 1.21.905 2.126 2.085 2.126.366 0 .834-.132 1.261-.346v-1.84zM15.586 2H4v11H2V0h14.415L22 5.586V13h-2V6.414L15.586 2z" fill="#232323" fill-rule="evenodd"/>
</svg>
