<svg width="52px" height="59px" viewBox="0 0 52 59" xmlns="http://www.w3.org/2000/svg">
    <title>
        ppt-l
    </title>
    <path d="M50.75 43.5v15.13H46.5V43.5h-6V40h16v3.5h-5.75zM41.649 4H9v30H5V0h38.158L56.98 14.992l.02 18.99h-4v-16.99L41.649 4zM5 40h7.92c4.747 0 7.467 2.347 7.467 6.48 0 4.347-2.72 6.853-7.467 6.853H9.213v5.334H5V40zm4.213 3.493v6.32h3.494c2.346 0 3.68-1.066 3.68-3.2 0-2.08-1.334-3.12-3.68-3.12H9.213zM23 40h7.92c4.747 0 7.467 2.347 7.467 6.48 0 4.347-2.72 6.853-7.467 6.853h-3.707v5.334H23V40zm4.213 3.493v6.32h3.494c2.346 0 3.68-1.066 3.68-3.2 0-2.08-1.334-3.12-3.68-3.12h-3.494z"/>
</svg>
