<svg width="23px" height="23px" viewBox="0 0 23 23" xmlns="http://www.w3.org/2000/svg">
    <title>
        file-xls
    </title>
    <path d="M6.75 18.449l2.329-3.368H6.971l-1.36 2.057-1.362-2.057H2.16l2.36 3.448L2 22.14h2.087l1.523-2.248 1.523 2.248H9.28l-2.53-3.69zm5.102 2.188v-5.556h-1.795v7.058h4.79v-1.502h-2.995zM18.417 15c1.018 0 2.057.313 2.783.787l-.676 1.401c-.746-.433-1.684-.736-2.258-.736-.464 0-.777.172-.777.514 0 1.22 3.731.525 3.731 3.076 0 1.412-1.25 2.158-2.823 2.158-1.18 0-2.39-.444-3.227-1.13l.696-1.38c.726.634 1.815 1.058 2.55 1.058.566 0 .918-.212.918-.615 0-1.25-3.73-.504-3.73-3.005 0-1.301 1.119-2.128 2.813-2.128zm-2.83-13H4v11H2V0h14.415L22 5.586V13h-2V6.414L15.586 2z" fill="#232323" fill-rule="evenodd"/>
</svg>
