<svg width="23px" height="23px" viewBox="0 0 23 23" xmlns="http://www.w3.org/2000/svg">
    <title>
        file-pdf
    </title>
    <path d="M2 15v7h1.78v-1.97h1.27c1.79 0 2.82-.95 2.82-2.59 0-1.56-1.03-2.44-2.82-2.44H2zm1.78 1.4h1.18c.78 0 1.23.37 1.23 1.1 0 .74-.45 1.13-1.23 1.13H3.78V16.4zM8.8 15v7h2.94c2.25 0 3.79-1.43 3.79-3.5 0-2.08-1.52-3.5-3.72-3.5H8.8zm1.78 1.42h1.19c1.13 0 1.95.85 1.95 2.09 0 1.23-.78 2.07-1.87 2.07h-1.27v-4.16zm11.08-.02h-3.41v1.62h3.14v1.4h-3.14V22h-1.78v-7h5.19v1.4zM15.586 2H4v11H2V0h14.415L22 5.586V13h-2V6.414L15.586 2z" fill="#232323" fill-rule="evenodd"/>
</svg>
