<svg width="37px" height="37px" viewBox="0 0 37 37" xmlns="http://www.w3.org/2000/svg">
    <title>
        file-zip-m-l
    </title>
    <path d="M15.617 25.791V24H6.204v2.216h5.689L6 33.209V35h9.711v-2.216H9.74l5.877-6.993zM20.77 35V24h-2.797v11h2.797zm2.99-11h4.794c2.813 0 4.431 1.383 4.431 3.834 0 2.577-1.618 4.07-4.431 4.07h-1.996V35h-2.797V24zm2.798 2.2h1.854c1.226 0 1.933.581 1.933 1.729 0 1.162-.707 1.775-1.933 1.775h-1.854V26.2zM25.076 2H5v18H3V0h22.916L35 9.267V20h-2v-9.916L25.076 2z" fill="#232323" fill-rule="evenodd"/>
</svg>
