<svg width="37px" height="37px" viewBox="0 0 37 37" xmlns="http://www.w3.org/2000/svg">
    <title>
        file-doc-m-l
    </title>
    <path d="M3.232 23.795v10.546h4.285c3.255 0 5.508-2.17 5.508-5.273 0-3.118-2.224-5.273-5.42-5.273H3.233zM5.559 25.8H7.56c1.768 0 3.093 1.34 3.093 3.284 0 1.929-1.267 3.255-2.99 3.255H5.56V25.8zm13.63-2.079c-3.124 0-5.489 2.275-5.489 5.348 0 3.059 2.365 5.379 5.49 5.379s5.49-2.335 5.49-5.379c0-3.058-2.365-5.348-5.49-5.348zm.065 2.08c1.708 0 3.095 1.415 3.095 3.268 0 1.853-1.387 3.3-3.095 3.3-1.709 0-3.154-1.447-3.154-3.3 0-1.853 1.43-3.269 3.154-3.269zm11.598-2.08c1.521 0 3.118.678 4.158 1.748l-1.386 1.687c-.724-.829-1.763-1.371-2.742-1.371-1.808 0-3.21 1.401-3.21 3.24 0 1.837 1.402 3.253 3.21 3.253.949 0 1.988-.482 2.742-1.235l1.4 1.522c-1.114 1.145-2.726 1.883-4.263 1.883-3.149 0-5.529-2.335-5.529-5.394 0-3.043 2.426-5.333 5.62-5.333zM25.076 2H5v18H3V0h22.916L35 9.267V20h-2v-9.916L25.076 2z" fill="#232323" fill-rule="evenodd"/>
</svg>
