<svg width="61px" height="61px" viewBox="0 0 61 61" xmlns="http://www.w3.org/2000/svg">
    <title>
        file-doc-l
    </title>
    <path d="M5 39.126v17.58h7.144c5.425 0 9.181-3.616 9.181-8.79 0-5.199-3.707-8.79-9.034-8.79H5zm3.879 3.34h3.338c2.946 0 5.156 2.235 5.156 5.475 0 3.215-2.112 5.425-4.984 5.425H8.88v-10.9zM31.603 39c-5.21 0-9.152 3.792-9.152 8.916 0 5.098 3.943 8.966 9.152 8.966 5.208 0 9.152-3.893 9.152-8.966 0-5.098-3.944-8.916-9.152-8.916zm.106 3.466c2.848 0 5.16 2.36 5.16 5.45 0 3.09-2.312 5.5-5.16 5.5-2.848 0-5.257-2.41-5.257-5.5s2.385-5.45 5.257-5.45zM51.043 39c2.537 0 5.199 1.13 6.932 2.913l-2.31 2.813c-1.206-1.381-2.94-2.285-4.572-2.285-3.014 0-5.35 2.336-5.35 5.4 0 3.064 2.336 5.424 5.35 5.424 1.583 0 3.316-.803 4.571-2.059L58 53.743c-1.859 1.908-4.546 3.14-7.108 3.14-5.249 0-9.217-3.894-9.217-8.992 0-5.073 4.044-8.891 9.368-8.891zM40.5 4H9v28.945H5V0h37.192L57 15.26v17.685h-4V16.88L40.5 4z" fill="#232323" fill-rule="evenodd"/>
</svg>
