<svg width="23px" height="23px" viewBox="0 0 23 23" xmlns="http://www.w3.org/2000/svg">
    <title>
        file-doc
    </title>
    <path d="M19.598 15c1 0 2.04.443 2.713 1.135l-.991 1.174c-.443-.539-1.097-.876-1.693-.876-1.068 0-1.876.847-1.876 1.953 0 1.126.808 1.982 1.876 1.982.567 0 1.221-.308 1.693-.789l1 1.058c-.721.74-1.79 1.232-2.78 1.232-2.03 0-3.54-1.492-3.54-3.464C16 16.462 17.549 15 19.598 15zM1 15.058h2.896c2.116 0 3.578 1.366 3.578 3.367 0 1.99-1.481 3.367-3.646 3.367H1v-6.734zm1.712 1.366v4.002h1.222c1.049 0 1.799-.809 1.799-1.992 0-1.193-.789-2.01-1.876-2.01H2.712zM11.572 15c2.088 0 3.646 1.462 3.646 3.415 0 1.962-1.558 3.454-3.646 3.454-2.078 0-3.636-1.482-3.636-3.454 0-1.962 1.558-3.415 3.636-3.415zm.02 1.433c-1.04 0-1.905.857-1.905 1.992s.875 2.01 1.904 2.01c1.04 0 1.867-.875 1.867-2.01 0-1.135-.828-1.992-1.867-1.992zM14.585 2H3v11H1V0h14.415L21 5.586V13h-2V6.414L14.586 2z" fill="#232323" fill-rule="evenodd"/>
</svg>
