<svg width="37px" height="37px" viewBox="0 0 37 37" xmlns="http://www.w3.org/2000/svg">
    <title>
        file-jpg-m
    </title>
    <path d="M10.441 24.077H3.986v2.219h3.697v5.022c0 .878-.43 1.325-1.155 1.325-.632 0-1.494-.4-2.265-1.202L3 33.275C3.955 34.368 5.188 35 6.713 35c2.295 0 3.728-1.325 3.728-3.62v-7.303zm1.972.015v10.785h2.742v-3.035h1.957c2.758 0 4.345-1.464 4.345-3.99 0-2.404-1.587-3.76-4.345-3.76h-4.699zm2.742 2.157h1.818c1.202 0 1.895.57 1.895 1.695 0 1.14-.693 1.74-1.895 1.74h-1.818V26.25zm14.898 3.143h2.373v4.206C31.27 34.415 29.452 35 27.943 35c-3.282 0-5.762-2.373-5.762-5.515 0-3.128 2.542-5.485 5.946-5.485 1.603 0 3.297.616 4.407 1.602l-1.541 1.864c-.786-.724-1.88-1.17-2.881-1.17-1.772 0-3.127 1.386-3.127 3.189 0 1.833 1.37 3.22 3.158 3.22.554 0 1.263-.2 1.91-.524v-2.789zM24.082 3H6v18H3V0h22.363L34 9.023V21h-3V10.227L24.082 3z" fill="#232323" fill-rule="evenodd"/>
</svg>
