<svg width="37px" height="37px" viewBox="0 0 37 37" xmlns="http://www.w3.org/2000/svg">
    <title>
        file-pdf-m-l
    </title>
    <path d="M3.232 23.8V35H5.76v-3.2h2.224c2.848 0 4.48-1.504 4.48-4.112 0-2.48-1.632-3.888-4.48-3.888H3.232zm2.528 2.096h2.096c1.408 0 2.208.624 2.208 1.872 0 1.28-.8 1.92-2.208 1.92H5.76v-3.792zm8.32-2.096V35h4.656c3.536 0 5.984-2.304 5.984-5.6 0-3.312-2.416-5.6-5.888-5.6H14.08zm2.528 2.128h2.176c1.92 0 3.36 1.424 3.36 3.488 0 2.048-1.376 3.456-3.248 3.456h-2.288v-6.944zm17.808-.032h-5.504v2.752h5.056v2.112h-5.056V35h-2.528V23.8h8.048l-.016 2.096zM25.076 2H5v18H3V0h22.916L35 9.267V20h-2v-9.916L25.076 2z" fill="#232323" fill-rule="evenodd"/>
</svg>
