<svg width="37px" height="37px" viewBox="0 0 37 37" xmlns="http://www.w3.org/2000/svg">
    <title>
        file-doc-m
    </title>
    <path d="M24.082 3H6v18H3V0h22.363L34 9.023V21h-3V10.227L24.082 3zm6.478 21c1.546 0 3.152.693 4.193 1.779l-1.532 1.838c-.683-.844-1.694-1.371-2.616-1.371-1.65 0-2.9 1.326-2.9 3.06 0 1.763 1.25 3.104 2.9 3.104.877 0 1.888-.482 2.616-1.235l1.547 1.657c-1.115 1.161-2.766 1.93-4.297 1.93-3.137 0-5.471-2.336-5.471-5.426C25 26.29 27.394 24 30.56 24zM2 24.09h4.475c3.27 0 5.53 2.14 5.53 5.276 0 3.12-2.29 5.275-5.634 5.275H2v-10.55zm2.646 2.14v6.27h1.888c1.62 0 2.78-1.265 2.78-3.12 0-1.868-1.219-3.15-2.899-3.15H4.646zM18.34 24c3.226 0 5.634 2.291 5.634 5.35 0 3.076-2.408 5.412-5.634 5.412-3.211 0-5.62-2.321-5.62-5.411 0-3.075 2.409-5.351 5.62-5.351zm.03 2.246c-1.606 0-2.944 1.341-2.944 3.12 0 1.778 1.353 3.15 2.944 3.15 1.605 0 2.884-1.372 2.884-3.15 0-1.779-1.279-3.12-2.884-3.12z" fill="#232323"/>
</svg>
