<svg width="37px" height="37px" viewBox="0 0 37 37" xmlns="http://www.w3.org/2000/svg">
    <title>
        file-pdf-m
    </title>
    <path d="M3 24v10.917h2.776v-3.073h1.98c2.792 0 4.398-1.481 4.398-4.039 0-2.433-1.606-3.805-4.397-3.805H3zm2.776 2.183h1.84c1.217 0 1.918.577 1.918 1.716 0 1.154-.701 1.762-1.918 1.762h-1.84v-3.478zM13.605 24v10.917h4.585c3.509 0 5.91-2.23 5.91-5.459 0-3.243-2.37-5.458-5.8-5.458h-4.694zm2.776 2.215h1.855c1.763 0 3.041 1.325 3.041 3.259 0 1.918-1.216 3.228-2.916 3.228h-1.98v-6.487zm17.513-.032h-5.318v2.527h4.897v2.183h-4.897v4.024H25.8V24h8.094v2.183zM24.082 3H6v18H3V0h22.363L34 9.023V21h-3V10.227L24.082 3z" fill="#232323" fill-rule="evenodd"/>
</svg>
