<svg width="61px" height="61px" viewBox="0 0 61 61" xmlns="http://www.w3.org/2000/svg">
    <title>
        attachment-l
    </title>
    <path d="M39.856 11.578a11.322 11.322 0 0 0-1.018-3.2C37.448 5.607 35.029 4 31 4c-4.03 0-6.448 1.607-7.838 4.378a11.322 11.322 0 0 0-1.018 3.2A9.329 9.329 0 0 0 22 12.96v6.577h-4v-6.576c0-.448.05-1.156.2-2.044a15.262 15.262 0 0 1 1.387-4.334C21.633 2.504 25.403 0 31 0s9.367 2.504 11.413 6.584a15.262 15.262 0 0 1 1.388 4.334c.148.888.199 1.596.199 2.044v34.81c-.002.484-.05 1.173-.198 2.078-.244 1.496-.685 2.997-1.38 4.416C40.378 58.434 36.608 61 31 61c-5.609 0-9.38-2.566-11.421-6.734-.696-1.42-1.137-2.92-1.381-4.416A13.515 13.515 0 0 1 18 47.773V30.5c.002-.349.034-.801.132-1.402.162-.99.454-1.985.918-2.932 1.38-2.82 3.961-4.575 7.72-4.575 3.757 0 6.337 1.755 7.718 4.574.465.947.757 1.941.919 2.932.098.6.132 1.084.132 1.402v11.228h-4V30.5c0-.115-.02-.386-.08-.757a6.555 6.555 0 0 0-.563-1.817c-.734-1.5-1.961-2.334-4.127-2.334-2.165 0-3.393.835-4.127 2.334a6.557 6.557 0 0 0-.562 1.817 5.49 5.49 0 0 0-.08.758v17.273a11.763 11.763 0 0 0 .146 1.432c.185 1.134.517 2.265 1.025 3.302C24.566 55.355 26.984 57 31 57s6.434-1.645 7.83-4.493c.507-1.037.839-2.168 1.024-3.302.065-.398.107-.765.13-1.09.012-.181.017-.318.016-.342V12.96c0-.239-.035-.73-.144-1.383z" fill="#232323"/>
</svg>
