<svg width="37px" height="37px" viewBox="0 0 37 37" xmlns="http://www.w3.org/2000/svg">
    <title>
        attachment-m-l
    </title>
    <path d="M13 11.77V7.73a6.221 6.221 0 0 1 .089-.893 7.372 7.372 0 0 1 .624-2.037C14.568 3.028 16.058 2 18.5 2c2.442 0 3.932 1.028 4.787 2.8.31.641.512 1.338.624 2.037.067.417.09.748.089.894v21.375a6.5 6.5 0 0 1-.09.922 7.767 7.767 0 0 1-.627 2.099C22.425 33.947 20.936 35 18.5 35c-2.436 0-3.925-1.053-4.783-2.873a7.767 7.767 0 0 1-.628-2.099c-.067-.43-.09-.77-.089-.922V18.5a3.716 3.716 0 0 1 .05-.508c.065-.41.18-.817.354-1.187.468-.992 1.254-1.547 2.596-1.547s2.128.555 2.596 1.547c.174.37.29.777.354 1.187.038.243.05.424.05.507v6.895h2v-6.895a6.13 6.13 0 0 0-.595-2.547c-.783-1.66-2.247-2.694-4.405-2.694-2.158 0-3.622 1.035-4.405 2.694A6.131 6.131 0 0 0 11 18.5v10.606c0 .996.224 2.423.908 3.873C13.08 35.468 15.248 37 18.5 37s5.42-1.532 6.592-4.02c.684-1.45.908-2.878.908-3.874V7.731c0-.98-.225-2.378-.912-3.8C23.913 1.496 21.746 0 18.5 0s-5.413 1.496-6.588 3.93C11.225 5.354 11 6.753 11 7.73v4.04h2z" fill="#232323"/>
</svg>
