<svg width="37px" height="37px" viewBox="0 0 37 37" xmlns="http://www.w3.org/2000/svg">
    <title>
        attachment-m
    </title>
    <path d="M14 12.154V8.346c-.002-.095.02-.383.08-.74a6.107 6.107 0 0 1 .567-1.75C15.413 4.362 16.736 3.5 19 3.5s3.586.86 4.352 2.357a6.07 6.07 0 0 1 .567 1.75c.061.356.082.644.08.739V28.5c.002.102-.02.4-.08.77a6.427 6.427 0 0 1-.574 1.81c-.77 1.54-2.09 2.42-4.345 2.42s-3.576-.88-4.346-2.42a6.427 6.427 0 0 1-.573-1.81A5.335 5.335 0 0 1 14 28.5v-10c-.002-.024.01-.185.042-.379.055-.33.154-.658.3-.95.379-.759.997-1.171 2.158-1.171 1.16 0 1.779.412 2.158 1.17.146.292.245.62.3.95.032.194.042.332.042.38V25h3v-6.5c0-.713-.16-1.676-.659-2.671C20.471 14.088 18.84 13 16.5 13c-2.34 0-3.971 1.088-4.842 2.83A6.076 6.076 0 0 0 11 18.5v10c0 1.025.239 2.456.97 3.92 1.262 2.523 3.597 4.08 7.03 4.08 3.433 0 5.768-1.557 7.029-4.08.732-1.464.97-2.895.97-3.92V8.346c0-1.01-.24-2.418-.976-3.857C24.758 2.02 22.423.5 19 .5c-3.424 0-5.758 1.519-7.023 3.99C11.24 5.927 11 7.335 11 8.345v3.808h3z" fill="#232323"/>
</svg>
