<svg width="61px" height="61px" viewBox="0 0 61 61" xmlns="http://www.w3.org/2000/svg">
    <title>
        close-circle-l
    </title>
    <path d="M11.762 49.238c10.349 10.35 27.127 10.349 37.476 0s10.35-27.127 0-37.476c-10.349-10.35-27.128-10.35-37.476 0-10.35 10.348-10.35 27.127 0 37.476zm-2.829 2.829c-11.91-11.911-11.91-31.223 0-43.134 11.91-11.91 31.223-11.91 43.134 0 11.91 11.911 11.91 31.223 0 43.133-11.911 11.911-31.223 11.912-43.134 0zM41.46 16.71L16.71 41.46l2.829 2.828L44.288 19.54l-2.828-2.83zm-24.75 2.83l24.75 24.748 2.828-2.828L19.54 16.711l-2.83 2.829z" fill="#232323"/>
</svg>
