<svg width="37px" height="37px" viewBox="0 0 37 37" xmlns="http://www.w3.org/2000/svg" xmlns:xlink="http://www.w3.org/1999/xlink">
    <title>
        close-circle-m
    </title>
    <defs>
        <path d="M34 18.5C34 9.94 27.06 3 18.5 3 9.94 3 3 9.94 3 18.5 3 27.06 9.94 34 18.5 34 27.06 34 34 27.06 34 18.5zm3 0C37 28.717 28.717 37 18.5 37S0 28.717 0 18.5C0 8.282 8.283 0 18.5 0S37 8.282 37 18.5zm-26.278-5.657l13.435 13.435 2.121-2.121-13.435-13.435-2.121 2.121zm2.121 13.435l13.435-13.435-2.121-2.121-13.435 13.435 2.121 2.121z" id="a"/>
    </defs>
    <use fill="#232323" xlink:href="#a"/>
</svg>
