<svg width="37px" height="37px" viewBox="0 0 37 37" xmlns="http://www.w3.org/2000/svg">
    <title>
        cloud-upload-m
    </title>
    <path d="M23.151 10.21c-1.25-.8-2.772-1.217-4.635-1.21-3.912.015-6.276 1.328-7.707 3.531a8.591 8.591 0 0 0-1.09 2.495 6.31 6.31 0 0 0-.192.975l-.173 2.497-2.487.278a4.8 4.8 0 0 0-.569.125 6.16 6.16 0 0 0-1.506.623C3.616 20.218 3 21.172 3 22.778c0 1.654.629 2.68 1.799 3.436.452.292.955.517 1.46.677.156.05.286.086.38.109h3.366v3H6.343S0 29.032 0 22.778c0-6.254 6.534-6.984 6.534-6.984S7.207 6.044 18.504 6c11.298-.045 12.158 12.701 12.158 12.701S37 18.365 37 24.181C37 29.994 30.667 30 30.657 30h-2.652v-3h2.652C32.365 27 34 26.249 34 24.18c0-1.253-.393-1.773-1.297-2.14a5.069 5.069 0 0 0-1.903-.342l-2.933.156-.199-2.95a12.23 12.23 0 0 0-.249-1.557c-.269-1.25-.684-2.497-1.263-3.633-.776-1.521-1.755-2.704-3.005-3.504-1.25-.8-2.772-1.217-4.635-1.21-3.912.015-6.276 1.328-7.707 3.531a8.591 8.591 0 0 0-1.09 2.495 6.31 6.31 0 0 0-.192.975l-.173 2.497-2.487.278a4.8 4.8 0 0 0-.569.125 6.16 6.16 0 0 0-1.506.623C3.616 20.218 3 21.172 3 22.778c0 1.654.629 2.68 1.799 3.436.452.292.955.517 1.46.677.156.05.286.086.38.109h3.366v3H6.343S0 29.032 0 22.778c0-6.254 6.534-6.984 6.534-6.984S7.207 6.044 18.504 6c11.298-.045 12.158 12.701 12.158 12.701S37 18.365 37 24.181C37 29.994 30.667 30 30.657 30h-2.652v-3h2.652C32.365 27 34 26.249 34 24.18c0-1.253-.393-1.773-1.297-2.14a5.069 5.069 0 0 0-1.903-.342l-2.933.156-.199-2.95a12.23 12.23 0 0 0-.249-1.557c-.269-1.25-.684-2.497-1.263-3.633-.776-1.521-1.755-2.704-3.005-3.504zM20 21.426V30h-3v-8.574l-3.983 3.676-2.034-2.204 7.517-6.94 7.517 6.94-2.034 2.204L20 21.426z" fill="#232323"/>
</svg>
