<svg width="37px" height="37px" viewBox="0 0 37 37" xmlns="http://www.w3.org/2000/svg">
    <title>
        cloud-upload-m-l
    </title>
    <path d="M19 19.174V30h-2V19.174l-5.35 4.585-1.3-1.518L18 15.683l7.65 6.558-1.3 1.518L19 19.174zM7.716 28h2.287v2H7.622S0 29.38 0 22.925c0-6.456 7.074-6.916 7.074-6.916S7.203 6.045 18.5 6c11.297-.045 12.157 12.701 12.157 12.701S37 18.388 37 24.203c0 3.877-2.114 5.81-6.343 5.797h-2.49v-2h2.496c3.159.01 4.337-1.068 4.337-3.797 0-1.685-.662-2.562-1.929-3.08a6.028 6.028 0 0 0-2.318-.424l-1.96.097-.131-1.96a7.953 7.953 0 0 0-.047-.421c-.05-.382-.123-.812-.223-1.278-.286-1.33-.727-2.657-1.35-3.878-1.712-3.356-4.4-5.275-8.534-5.259-4.22.017-6.765 1.508-8.219 4.01a9.32 9.32 0 0 0-1.057 2.831 7.264 7.264 0 0 0-.159 1.193l-.024 1.85-1.846.12a6.282 6.282 0 0 0-.81.132c-.666.144-1.33.37-1.932.683C2.873 19.647 2 20.899 2 22.925c0 1.995.955 3.286 2.712 4.173.672.34 1.411.587 2.153.752.383.085.68.131.85.15z" fill="#232323"/>
</svg>
