<svg width="37px" height="37px" viewBox="0 0 37 37" xmlns="http://www.w3.org/2000/svg">
    <title>
        cloud-download-m
    </title>
    <path d="M17 24.574V16h3v8.583l4.006-3.684 2.031 2.208-7.539 6.933-7.515-6.938 2.034-2.204L17 24.574zM10 27v3H6.338s-6.343-.968-6.343-7.222c0-6.254 6.534-6.984 6.534-6.984S7.203 6.044 18.5 6c11.297-.045 12.157 12.701 12.157 12.701s6.338-.336 6.338 5.48c0 5.814-6.332 5.819-6.342 5.819H28v-3h2.653c1.708 0 3.342-.751 3.342-2.82 0-1.253-.393-1.773-1.296-2.14a5.069 5.069 0 0 0-1.904-.342l-2.932.156-.2-2.95a12.1 12.1 0 0 0-.248-1.557c-.27-1.25-.684-2.497-1.264-3.633C24.6 10.67 22.237 8.985 18.511 9c-3.912.015-6.275 1.328-7.706 3.531a8.591 8.591 0 0 0-1.09 2.495 6.31 6.31 0 0 0-.193.975l-.172 2.497-2.487.278a4.8 4.8 0 0 0-.57.125 6.16 6.16 0 0 0-1.506.623c-1.176.694-1.792 1.648-1.792 3.254 0 1.654.63 2.68 1.8 3.436.451.292.955.517 1.459.677.156.05.286.086.38.109H10z" fill="#232323"/>
</svg>
