<svg width="61px" height="61px" viewBox="0 0 61 61" xmlns="http://www.w3.org/2000/svg">
    <title>
        cloud-download-l
    </title>
    <path d="M28 41.479V26h4v15.479l7.655-6.959 2.69 2.96L30 48.703 17.655 37.48l2.69-2.96L28 41.48zM16 45v4h-5S0 47.737 0 37.047 11 25 11 25s.861-15.926 19.487-16c18.625-.073 20.056 20.891 20.056 20.891S61 29.863 61 39.427C61 48.992 50.543 49 50.543 49H46v-4h4.54c.137 0 .51-.025 1.031-.105.883-.135 1.759-.376 2.535-.731 1.92-.88 2.894-2.217 2.894-4.737 0-2.516-.969-3.842-2.884-4.713-.77-.35-1.64-.587-2.519-.72a8.167 8.167 0 0 0-1.048-.103l-3.742.01-.255-3.737a12.537 12.537 0 0 0-.072-.648c-.08-.61-.198-1.298-.36-2.044-.46-2.13-1.17-4.256-2.167-6.204-2.713-5.3-6.92-8.294-13.45-8.268-6.769.027-10.904 2.323-13.358 6.156a14.523 14.523 0 0 0-1.836 4.312c-.214.86-.3 1.488-.315 1.748l-.18 3.344-3.324.41c-.15.018-.551.096-1.111.256-.964.275-1.927.674-2.798 1.205C5.275 31.836 4 33.85 4 37.047c0 3.188 1.266 5.178 3.56 6.556.867.522 1.827.911 2.788 1.178.41.113.735.183.938.219H16z" fill="#232323"/>
</svg>
