<svg width="61px" height="61px" viewBox="0 0 61 61" xmlns="http://www.w3.org/2000/svg">
    <title>
        drag-and-drop-l
    </title>
    <path d="M30.025 32.958v20.505l-7-6.685-2.717 2.844 11.65 11.127L43.672 49.63l-2.708-2.853-7.005 6.65v-20.47h19.505l-6.666 7.003 2.849 2.712 11.12-11.681-11.12-11.681-2.85 2.712 6.667 7.002H33.958V8.537l7.003 6.666 2.712-2.849-11.681-11.12-11.681 11.12 2.712 2.85 7.002-6.667v20.488H9.537l6.666-7.002-2.849-2.712-11.12 11.681L13.36 42.673l2.848-2.713-6.668-7.002h20.486z" fill="#232323"/>
</svg>
