<svg width="23px" height="23px" viewBox="0 0 23 23" xmlns="http://www.w3.org/2000/svg">
    <title>
        drag-and-drop
    </title>
    <path d="M19.229 11.048h-6.277V4.775l2.184 2.184 1.347-1.347L12 1.13 7.517 5.612 8.864 6.96l2.184-2.184v6.273H4.775L6.96 8.864 5.612 7.517 1.13 12l4.483 4.483 1.347-1.347-2.184-2.184h6.273v6.279l-2.183-2.19-1.349 1.346 4.471 4.484 4.495-4.48-1.345-1.35-2.185 2.178v-6.267h6.273l-2.184 2.184 1.347 1.347 4.487-4.487-4.488-4.48-1.345 1.349 2.187 2.183z" fill="#232323"/>
</svg>
