<svg width="37px" height="37px" viewBox="0 0 37 37" xmlns="http://www.w3.org/2000/svg">
    <title>
        expand-m
    </title>
    <path d="M34 31.879L20.621 18.5 34 5.122V13.5h3V2.122l.061-.061L37 1.999V0h-2l-.06-.06-.06.06H23.5v3h8.378L18.5 16.379 5.121 3H13.5V0H2.121l-.06-.06L2 0H0v2l-.06.06.06.061V13.5h3V5.121l13.379 13.38L3 31.878V23.5H0v11.38l-.06.06L0 35v2h2l.06.06.061-.06H13.5v-3H5.121l13.38-13.379L31.878 34H23.5v3h11.38l.06.06L35 37h2v-2l.06-.06-.06-.061V23.5h-3v8.378z" fill="#232323"/>
</svg>
