<svg width="37px" height="37px" viewBox="0 0 37 37" xmlns="http://www.w3.org/2000/svg">
    <title>
        filter-m-l
    </title>
    <path d="M14 8V6h23v2H14zm0 22v-2h23v2H14zM0 19v-2h23v2H0zM2.879 4.879A3 3 0 1 0 7.122 9.12a3 3 0 0 0-4.243-4.24zm5.656-1.414a5 5 0 1 1-7.07 7.07 5 5 0 0 1 7.07-7.07zM2.88 26.879a3 3 0 1 0 4.243 4.242 3 3 0 0 0-4.243-4.242zm5.656-1.414a5 5 0 1 1-7.07 7.07 5 5 0 0 1 7.07-7.07zm21.344-9.586a3 3 0 1 0 4.243 4.242 3 3 0 0 0-4.243-4.242zm5.656-1.414a5 5 0 1 1-7.07 7.07 5 5 0 0 1 7.07-7.07z" fill="#232323"/>
</svg>
