<svg width="37px" height="37px" viewBox="0 0 37 37" xmlns="http://www.w3.org/2000/svg">
    <title>
        filter-m
    </title>
    <path d="M14 9h23V6H14v3zm0 22h23v-3H14v3zM0 20h23v-3H0v3zM4.44 6.44a1.5 1.5 0 1 0 2.12 2.12 1.5 1.5 0 0 0-2.12-2.12zm4.242-2.122a4.5 4.5 0 1 1-6.364 6.364 4.5 4.5 0 0 1 6.364-6.364zM4.439 28.44a1.5 1.5 0 1 0 2.122 2.122 1.5 1.5 0 0 0-2.122-2.122zm4.243-2.12a4.5 4.5 0 1 1-6.364 6.363 4.5 4.5 0 0 1 6.364-6.364zm23.879-8.88a1.5 1.5 0 1 0-2.122 2.121 1.5 1.5 0 0 0 2.122-2.12zm2.12-2.12a4.5 4.5 0 1 1-6.363 6.363 4.5 4.5 0 0 1 6.364-6.364z" fill="#232323"/>
</svg>
