<svg width="61px" height="61px" viewBox="0 0 61 61" xmlns="http://www.w3.org/2000/svg">
    <title>
        filter-l
    </title>
    <path d="M23 14h38v-4H23v4zm0 36h38v-4H23v4zM0 32h38v-4H0v4zM10.828 9.172a4 4 0 1 0-5.657 5.656 4 4 0 0 0 5.657-5.656zm2.829-2.829A8 8 0 1 1 2.344 17.657 8 8 0 0 1 13.657 6.343zM5.172 45.172a4 4 0 1 0 5.657 5.657 4 4 0 0 0-5.657-5.657zm8.485-2.829A8 8 0 1 1 2.344 53.657a8 8 0 0 1 11.313-11.314zm42.171-15.171a4 4 0 1 0-5.657 5.656 4 4 0 0 0 5.657-5.656zm2.829-2.829a8 8 0 1 1-11.313 11.314 8 8 0 0 1 11.313-11.314z" fill="#232323"/>
</svg>
