<svg width="23px" height="23px" viewBox="0 0 23 23" xmlns="http://www.w3.org/2000/svg">
    <title>
        filter
    </title>
    <path d="M9 6h14V4H9v2zm-9 7h14v-2H0v2zm9 7h14v-2H9v2zM3.707 4.293a1 1 0 1 0-1.414 1.414 1 1 0 0 0 1.414-1.414zm1.414-1.414A3 3 0 1 1 .88 7.12a3 3 0 0 1 4.24-4.24zM2.293 18.293a1 1 0 1 0 1.414 1.414 1 1 0 0 0-1.414-1.414zm2.828-1.414A3 3 0 1 1 .88 21.12a3 3 0 0 1 4.24-4.24zm14.172-5.586a1 1 0 1 0 1.414 1.414 1 1 0 0 0-1.414-1.414zm2.828-1.414a3 3 0 1 1-4.242 4.242A3 3 0 0 1 22.12 9.88z" fill="#232323"/>
</svg>
