<?xml version="1.0" encoding="UTF-8"?>
<svg width="39px" height="38px" viewBox="0 0 39 38" version="1.1" xmlns="http://www.w3.org/2000/svg" xmlns:xlink="http://www.w3.org/1999/xlink">
    <!-- Generator: Sketch 51.2 (57519) - http://www.bohemiancoding.com/sketch -->
    <title>language-switcher-m-l</title>
    <desc>Created with Sketch.</desc>
    <defs>
        <path d="M27.8044636,12.0144823 C27.887304,11.7035699 28.1184175,11.4381981 28.4455186,11.3255682 C28.9677141,11.1457618 29.536799,11.4233231 29.7166053,11.9455186 L38.1813773,36.5290015 L36.2903402,37.1801379 L33.1293652,28 L24.3580691,28 L21.0733776,37.5394366 L19.1823405,36.8883003 L22.532304,27.1592998 C22.2213621,26.9932881 21.8265061,26.7870072 21.3295823,26.5300695 C19.6009864,25.6366342 19.476037,25.571365 19.13502,25.3742301 C16.3649918,23.7729332 14.9859271,22.9388701 13.0158324,21.6537774 C9.63686455,25.139415 5.69453886,27.4965298 2.13755165,27.9904946 L1.86244835,26.0095054 C4.87654838,25.5909323 8.3050674,23.5597674 11.3193406,20.5295872 C9.67646311,19.4089562 8.8878604,18.7048091 7.11076129,16.8681555 C5.40399811,15.1041949 3.42812101,12.1223304 2.60238472,10.4407798 L4.39761528,9.55922022 C5.1377988,11.066549 7.00128262,13.8787969 8.54808588,15.4774369 C10.3189065,17.3076017 10.994289,17.9023031 12.6932998,19.0447243 C14.8552713,16.5349419 16.7079844,13.510749 17.8954586,10.2357275 C18.1475182,9.54055399 18.3978354,8.79800437 18.6493929,8 L0,8 L0,6 L11,6 L11,8.31792919e-15 L13,7.10542736e-15 L13,6 L25,6 L25,8 L20.7435284,8 C20.421002,9.05468032 20.1004378,10.0217929 19.7756794,10.9174676 C18.5372375,14.3330567 16.6278281,17.4963386 14.376132,20.1527979 C16.175342,21.3205534 17.5242081,22.1329217 20.135967,23.6427264 C20.4337177,23.81485 20.5861727,23.8944871 22.1971203,24.7271104 C22.5868851,24.9286391 22.9143824,25.0990635 23.1914262,25.2450699 L27.6471125,12.3048173 C27.684243,12.1969825 27.7379737,12.0995797 27.8044636,12.0144823 Z M28.7437171,15.2631531 L25.0467243,26 L32.44071,26 L28.7437171,15.2631531 Z" id="path-1"></path>
    </defs>
    <g id="Page-1" stroke="none" stroke-width="1" fill="none" fill-rule="evenodd">
        <g id="02_Design/Icons/02_Medium-Light/UI-Controls/language-switcher-m-l">
            <mask id="mask-2" fill="white">
                <use xlink:href="#path-1"></use>
            </mask>
            <use id="language-switcher-m-l" fill="#232323" fill-rule="nonzero" xlink:href="#path-1"></use>
        </g>
    </g>
</svg>