<?xml version="1.0" encoding="UTF-8"?>
<svg width="23px" height="23px" viewBox="0 0 23 23" version="1.1" xmlns="http://www.w3.org/2000/svg" xmlns:xlink="http://www.w3.org/1999/xlink">
    <!-- Generator: Sketch 51.2 (57519) - http://www.bohemiancoding.com/sketch -->
    <title>language-switcher</title>
    <desc>Created with Sketch.</desc>
    <defs>
        <path d="M16.1887897,6.96460335 C16.309101,6.77536734 16.4934584,6.62526209 16.7233824,6.55055525 C17.2486364,6.37988988 17.8127905,6.66734077 17.9834559,7.19259478 L22.7732193,21.9339708 L20.8711063,22.5520048 L19.0671505,17 L14.7946008,17 L12.8823256,22.5536506 L10.9912884,21.9025143 L12.8846189,16.4038832 C12.7295266,16.3220547 12.5447402,16.2257934 12.3264538,16.112927 C11.293364,15.5789683 11.2253181,15.5434235 11.0153304,15.4220339 C9.35182696,14.4603965 8.53276509,13.9643433 7.3369724,13.1832013 C5.4210592,15.2706052 3.19107708,16.6825638 1.14832248,16.988939 L0.851677524,15.011061 C2.36434938,14.7841883 4.10648542,13.6886303 5.67169049,12.0402528 C5.08591726,11.5919331 4.61665705,11.1440047 3.83458751,10.3357263 C2.79522258,9.26152989 1.60690669,7.46820128 1.10238472,6.44077978 L2.89761528,5.55922022 C3.31658448,6.41241987 4.39250709,8.03613189 5.2719121,8.94500773 C6.01534318,9.71335283 6.41824074,10.0997237 6.95650129,10.5047367 C7.96558427,9.13884725 8.8292344,7.54294936 9.40509355,5.82768922 C9.49365076,5.56391177 9.58187907,5.2884318 9.67020107,5 L0,5 L0,3 L6,3 L6,2.38963768e-14 L8,2.30926389e-14 L8,3 L15,3 L15,5 L11.7570967,5 C11.6055357,5.52197018 11.4542256,6.0081092 11.3010942,6.46422785 C10.6692984,8.34610159 9.72934297,10.1048389 8.61289901,11.6274592 C9.68002659,12.320641 10.4701344,12.7967364 12.0162774,13.6905302 C12.1829988,13.7869084 12.2785503,13.8368212 13.2148764,14.3207642 C13.3337602,14.3822334 13.442879,14.4388207 13.5432433,14.4910993 L16.0375948,7.24697639 C16.0735725,7.14248969 16.1251355,7.04779728 16.1887897,6.96460335 Z M16.9928268,10.6158881 L15.4832561,15 L18.4173112,15 L16.9928268,10.6158881 Z" id="path-1"></path>
    </defs>
    <g id="Page-1" stroke="none" stroke-width="1" fill="none" fill-rule="evenodd">
        <g id="02_Design/Icons/01_Small/UI-Controls/language-switcher">
            <mask id="mask-2" fill="white">
                <use xlink:href="#path-1"></use>
            </mask>
            <use id="language-switcher" fill="#232323" fill-rule="nonzero" xlink:href="#path-1"></use>
        </g>
    </g>
</svg>