<?xml version="1.0" encoding="UTF-8"?>
<svg width="61px" height="60px" viewBox="0 0 61 60" version="1.1" xmlns="http://www.w3.org/2000/svg" xmlns:xlink="http://www.w3.org/1999/xlink">
    <!-- Generator: Sketch 51.2 (57519) - http://www.bohemiancoding.com/sketch -->
    <title>language-switcher-l</title>
    <desc>Created with Sketch.</desc>
    <defs>
        <path d="M44.7407092,17.0138425 C45.6432006,16.9059627 46.5299742,17.4364985 46.8379055,18.330796 L60.4814184,57.9544347 L56.7515099,59.2387451 L51.1600616,43 L38.3213568,43 L32.7299085,59.2387451 L29,57.9544347 L34.5976859,41.6975745 C34.1403634,41.470051 33.5771602,41.1945973 32.8896029,40.8613103 C30.1582759,39.5378389 29.9671879,39.4442598 29.422526,39.1490806 C25.5761086,37.064516 23.4305691,35.8593567 20.8485076,34.3018887 C15.4441592,40.1692762 9.05814682,44.1549578 3.28280836,44.9799039 L2.71719164,41.0200961 C7.3704632,40.3554254 12.7032585,37.0662483 17.3761036,32.1633321 C14.5796185,30.3917843 13.3294441,29.3592433 10.4169515,26.5372775 C7.69097668,23.8960323 4.55175928,19.4546246 3.2283253,16.9279918 L6.7716747,15.0720082 C7.91088383,17.2469283 10.8096357,21.3481221 13.2003808,23.6645574 C16.0928655,26.4671371 17.0962474,27.2767199 20.0324416,29.1085369 C23.0399893,25.3206416 25.6095266,20.8600118 27.3024291,16.0576335 C27.6406281,15.09824 27.9769262,14.0818146 28.3143109,13 L0,13 L0,9 L18,9 L18,-2.42465237e-15 L22,-4.4408921e-15 L22,9 L40,9 L40,13 L32.497128,13 C32.0237029,14.5778812 31.5523101,16.0331657 31.0748967,17.3874787 C29.2934544,22.4410243 26.6265044,27.1536829 23.4679043,31.2090923 C25.7594723,32.579085 27.8156567,33.7285844 31.328428,35.6323295 C31.7883238,35.8815699 32.0334957,36.0016348 34.5540467,37.2229673 C35.0723028,37.4741849 35.5206838,37.6926694 35.9106336,37.8844973 L42.6435129,18.330796 C42.9514442,17.4364985 43.8382178,16.9059627 44.7407092,17.0138425 Z M44.7407092,24.356847 L39.6986673,39 L49.7827511,39 L44.7407092,24.356847 Z" id="path-1"></path>
    </defs>
    <g id="Page-1" stroke="none" stroke-width="1" fill="none" fill-rule="evenodd">
        <g id="02_Design/Icons/03_Large/UI-Controls/language-switcher-l">
            <mask id="mask-2" fill="white">
                <use xlink:href="#path-1"></use>
            </mask>
            <use id="language-switcher-l" fill="#232323" fill-rule="nonzero" xlink:href="#path-1"></use>
        </g>
    </g>
</svg>