<?xml version="1.0" encoding="UTF-8"?>
<svg width="37px" height="37px" viewBox="0 0 37 37" version="1.1" xmlns="http://www.w3.org/2000/svg" xmlns:xlink="http://www.w3.org/1999/xlink">
    <!-- Generator: Sketch 51.2 (57519) - http://www.bohemiancoding.com/sketch -->
    <title>language-switcher-m</title>
    <desc>Created with Sketch.</desc>
    <defs>
        <path d="M25.675874,11.1631377 C25.7910228,10.6679526 26.1551445,10.2435137 26.6739076,10.0749574 C27.4617887,9.81895933 28.3080199,10.2501357 28.5640179,11.0380167 L36.4022184,35.1615171 L33.5490488,36.0885681 L30.595994,27 L23.5470789,27 L20.5992245,36.0725628 L17.8504408,35.1794288 L20.8673279,25.894405 C20.5507933,25.72325 20.0771444,25.4792607 19.4000136,25.1365165 C17.7673826,24.3104463 17.6583924,24.2547123 17.3279189,24.0676942 C15.3081142,22.9246675 14.0753621,22.2064724 12.7564253,21.3876229 C9.52644224,25.0075363 5.70056981,27.4696678 2.21918527,27.9838995 L1.78081473,25.0161005 C4.43408313,24.6241889 7.49704257,22.6700747 10.1951278,19.7505038 C8.48839739,18.6237469 7.7328198,17.9746793 5.97580645,16.1970139 C4.33486844,14.5367882 2.45610461,11.7611714 1.65922745,10.1725541 L4.34077255,8.82744594 C5.00608974,10.1537914 6.71237019,12.6745876 8.10948461,14.0881238 C9.81176848,15.8104164 10.3915709,16.2993285 12.1143235,17.4216081 C13.7191259,15.2394567 15.0893703,12.7121506 16.0128322,10.0031934 C16.2260169,9.37782052 16.4380079,8.71218394 16.6509677,8 L1.77635684e-15,8 L1.77635684e-15,5 L10,5 L10,1.27373417e-15 L13,3.15544362e-30 L13,5 L23,5 L23,8 L19.7764975,8 C19.4686956,9.07609975 19.1627719,10.0606363 18.8523776,10.9711718 C17.8550354,13.8968552 16.3906506,16.6380037 14.6521771,19.0324946 C15.823085,19.752397 16.9828461,20.4253455 18.80546,21.4567801 C19.0714427,21.6073022 19.2214818,21.6840274 20.7071061,22.4357117 C21.1544458,22.6621403 21.5143789,22.8457961 21.8082551,22.998529 L25.579656,11.3913504 C25.6056541,11.3113366 25.6379707,11.2351414 25.675874,11.1631377 Z M27.0715365,16.152835 L24.521838,24 L29.6212349,24 L27.0715365,16.152835 Z" id="path-1"></path>
    </defs>
    <g id="Page-1" stroke="none" stroke-width="1" fill="none" fill-rule="evenodd">
        <g id="02_Design/Icons/02_Medium/UI-Controls/language-switcher-m">
            <mask id="mask-2" fill="white">
                <use xlink:href="#path-1"></use>
            </mask>
            <use id="language-switcher-m" fill="#232323" fill-rule="nonzero" xlink:href="#path-1"></use>
        </g>
    </g>
</svg>