<svg width="23px" height="23px" viewBox="0 0 23 23" xmlns="http://www.w3.org/2000/svg">
    <title>
        link
    </title>
    <path d="M9.85 8.412L8.436 6.998l4.242-4.242a6.004 6.004 0 0 1 8.486 0 6.004 6.004 0 0 1-.004 8.489L17.004 15.4l-1.414-1.414 4.156-4.156a4.004 4.004 0 0 0 .004-5.661 4.004 4.004 0 0 0-5.658 0L9.85 8.413zm4.237 7.077l1.415 1.414-4.31 4.31c-2.307 2.306-6.073 2.267-8.413-.073-2.337-2.336-2.38-6.104-.078-8.406l4.32-4.322 1.415 1.415-4.321 4.321c-1.514 1.514-1.485 4.015.078 5.578 1.566 1.566 4.066 1.592 5.584.073l4.31-4.31zm-4.944.702L7.73 14.776l6.364-6.364 1.414 1.415-6.364 6.364z" fill="#232323"/>
</svg>
