<svg width="61px" height="61px" viewBox="0 0 61 61" xmlns="http://www.w3.org/2000/svg">
    <title>
        link-l
    </title>
    <path d="M25.284 19.627L22.456 16.8 34.47 4.785c5.862-5.862 15.361-5.866 21.22-.007 5.858 5.858 5.857 15.357-.003 21.216L43.672 38.01l-2.829-2.829L52.86 23.165c4.297-4.297 4.298-11.263.002-15.558-4.296-4.297-11.263-4.294-15.563.007L25.284 19.627zm9.9 21.214l2.828 2.828-12.02 12.02c-5.858 5.858-15.356 5.859-21.214 0-5.859-5.858-5.856-15.356.004-21.216L16.8 22.456l2.828 2.828L7.611 37.301c-4.299 4.299-4.3 11.264-.004 15.56 4.295 4.296 11.26 4.295 15.557 0l12.02-12.02zm-13.435.707l-2.829-2.829 19.8-19.799 2.828 2.829-19.8 19.799z" fill="#232323"/>
</svg>
