<svg width="37px" height="37px" viewBox="0 0 37 37" xmlns="http://www.w3.org/2000/svg">
    <title>
        link-m
    </title>
    <path d="M15.672 12.136l-2.122-2.121 6.363-6.363c3.708-3.708 9.73-3.707 13.436-.001 3.71 3.71 3.708 9.727-.004 13.44l-6.04 6.04-2.122-2.121 6.04-6.041a6.503 6.503 0 0 0 .005-9.197 6.507 6.507 0 0 0-9.194.002l-6.362 6.362zm5.648 12.737l2.121 2.121-6.66 6.66c-3.555 3.555-9.433 3.392-13.13-.305-3.693-3.692-3.863-9.572-.315-13.12l6.679-6.679 2.121 2.122-6.678 6.678c-2.349 2.348-2.233 6.33.314 8.878 2.551 2.551 6.531 2.661 8.887.306l6.66-6.661zm-7.77.698l-2.12-2.121 12.02-12.021 2.122 2.121-12.02 12.021z" fill="#232323"/>
</svg>
