<svg width="61px" height="61px" viewBox="0 0 61 61" xmlns="http://www.w3.org/2000/svg">
    <title>
        refresh-l
    </title>
    <path d="M51.596 15H42v4h16V2h-4v9.568C44.568-.142 27.697-3.65 14.707 4.25.377 12.966-4.279 31.742 4.302 46.196c8.589 14.469 27.19 19.132 41.535 10.408C55.022 51.018 60.987 41.419 61 31.46l-4-.006c-.012 8.495-5.197 16.84-13.242 21.732-12.44 7.566-28.563 3.525-36.017-9.032-7.462-12.57-3.41-28.911 9.045-36.486C28.348.636 43.547 4.078 51.596 15z" fill="#232323"/>
</svg>
