<svg width="37px" height="37px" viewBox="0 0 37 37" xmlns="http://www.w3.org/2000/svg">
    <title>
        refresh-m
    </title>
    <path d="M33 9.99l-.018.01H33v-.01zm0-2.667V3h3v10h-9v-3h4.233C26.642 3.168 17.432.915 10.479 5.143 3.194 9.573.823 19.134 5.19 26.488c4.359 7.343 13.785 9.706 21.06 5.282 4.711-2.865 7.744-7.746 7.751-12.701l3 .004c-.008 6.053-3.626 11.875-9.192 15.26-8.703 5.293-19.989 2.463-25.2-6.314C-2.594 19.253.229 7.866 8.92 2.58 16.917-2.283 27.33-.025 33 7.323z" fill="#232323"/>
</svg>
