<svg width="37px" height="37px" viewBox="0 0 37 37" xmlns="http://www.w3.org/2000/svg">
    <title>
        reset-m
    </title>
    <path d="M4.018 10L4 9.99V10h.018zM4 7.323C9.67-.025 20.083-2.283 28.08 2.58c8.692 5.286 11.515 16.673 6.311 25.44-5.21 8.776-16.496 11.606-25.199 6.313C3.626 30.948.008 25.126 0 19.073l3-.004c.007 4.955 3.04 9.836 7.751 12.7 7.275 4.425 16.701 2.062 21.06-5.281 4.366-7.354 1.995-16.914-5.29-21.345C19.568.915 10.358 3.168 5.767 10H10v3H1V3h3v4.323z" fill="#232323"/>
</svg>
