<svg width="61px" height="61px" viewBox="0 0 61 61" xmlns="http://www.w3.org/2000/svg">
    <title>
        search-l
    </title>
    <path d="M8.979 8.98c-6.639 6.639-6.639 17.402 0 24.041 6.639 6.639 17.402 6.639 24.042 0 6.639-6.64 6.639-17.402 0-24.042-6.64-6.639-17.403-6.639-24.042 0zm26.87-2.829c8.201 8.201 8.201 21.497 0 29.699-8.201 8.2-21.497 8.2-29.699 0-8.2-8.202-8.2-21.498 0-29.699 8.202-8.201 21.498-8.201 29.699 0zm1.737 34.263l2.828-2.828 20 20-2.828 2.828-20-20z" fill="#232323"/>
</svg>
