<svg width="37px" height="37px" viewBox="0 0 37 37" xmlns="http://www.w3.org/2000/svg">
    <title>
        settings-m-l
    </title>
    <path d="M36.568 12.798l-4.387-7.265-5.161 1.66c-1.097-.922-2.179-1.577-3.393-2.027L22.493 0h-8.409L12.95 5.17c-1.178.448-2.316 1.147-3.385 2.026L4.396 5.533 0 12.813l4.38 3.84c-.024.19-.04.388-.052.6-.017.32-.021.573-.021 1.088 0 .515.004.768.02 1.088.013.222.03.43.056.627l-4.365 4.16 4.378 7.251 5.162-1.66c1.097.922 2.179 1.577 3.393 2.027L14.084 37h8.41l1.143-5.214c1.29-.57 2.425-1.233 3.37-1.983l5.174 1.664 4.397-7.28-4.388-3.848c.028-.22.047-.441.06-.671.017-.325.02-.573.02-1.168h-2c0 .558-.002.783-.017 1.06-.019.342-.055.65-.119.977l-.11.563L34 24.586l-2.713 4.492-4.733-1.522-.427.376c-.953.84-2.223 1.588-3.737 2.212l-.484.199L20.884 35h-5.19l-1.035-4.715-.557-.172c-1.318-.407-2.43-1.08-3.644-2.174l-.428-.385-4.74 1.524-2.73-4.522 4.01-3.822-.137-.56a4.806 4.806 0 0 1-.108-.853c-.015-.272-.018-.5-.018-.98s.003-.708.018-.98c.018-.345.054-.628.108-.852l.143-.589-3.998-3.506L5.29 7.922l4.734 1.522.426-.376c1.164-1.027 2.413-1.798 3.652-2.18l.557-.173L15.693 2h5.191l1.035 4.715.557.172c1.317.407 2.43 1.08 3.644 2.174l.427.385 4.74-1.524 2.722 4.507-4.004 3.664.14.575c.105.434.126.8.126 1.832h2c0-.81-.013-1.284-.069-1.706l4.366-3.996zM14 18.5c0 2.579 1.921 4.5 4.5 4.5 2.579 0 4.5-1.921 4.5-4.5 0-2.579-1.921-4.5-4.5-4.5-2.579 0-4.5 1.921-4.5 4.5zm-2 0c0-3.683 2.817-6.5 6.5-6.5s6.5 2.817 6.5 6.5-2.817 6.5-6.5 6.5-6.5-2.817-6.5-6.5z" fill="#232323"/>
</svg>
