<svg width="37px" height="37px" viewBox="0 0 37 37" xmlns="http://www.w3.org/2000/svg" xmlns:xlink="http://www.w3.org/1999/xlink">
    <title>
        settings-m
    </title>
    <defs>
        <path d="M36.919 13.059L32.22 5.272l-5.133 1.652c-.952-.77-1.905-1.347-2.951-1.767L23.007 0h-9.014l-1.132 5.164c-1.022.423-2.006 1.026-2.938 1.764L4.779 5.272l-4.712 7.81 4.378 3.841c-.01.11-.018.222-.024.337a18.75 18.75 0 0 0-.021 1.085c0 .51.004.763.02 1.086.008.13.017.256.028.378L.094 23.963l4.685 7.765 5.133-1.652c.952.77 1.905 1.347 2.951 1.767L13.993 37h9.014l1.144-5.221c1.092-.5 2.07-1.072 2.915-1.71l5.155 1.66 4.712-7.81-4.384-3.848c.013-.134.023-.27.03-.408.018-.328.021-.575.021-1.163h-3c0 .533-.003.745-.017 1.001a6.11 6.11 0 0 1-.106.877l-.164.845 3.754 3.295-2.188 3.627-4.482-1.444-.64.566c-.877.774-2.06 1.47-3.479 2.055l-.725.3-.96 4.378h-4.186l-.979-4.466-.835-.258c-1.2-.37-2.214-.986-3.339-2l-.641-.578-4.492 1.447-2.215-3.672 3.806-3.63L7.508 20a4.192 4.192 0 0 1-.091-.732 16.044 16.044 0 0 1-.017-.924c0-.456.003-.671.017-.923.016-.305.047-.55.09-.732l.215-.882-3.79-3.326 2.189-3.627 4.482 1.444.64-.566c1.078-.951 2.227-1.662 3.35-2.009l.835-.258L16.407 3h4.186l.979 4.466.835.258c1.2.37 2.214.986 3.339 2l.641.578 4.492-1.447 2.202 3.65-3.798 3.478.21.862c.088.366.107.695.107 1.655h3c0-.643-.008-1.079-.04-1.45l4.359-3.991zM15 18.5c0 2.026 1.474 3.5 3.5 3.5s3.5-1.474 3.5-3.5-1.474-3.5-3.5-3.5-3.5 1.474-3.5 3.5zm-3 0c0-3.683 2.817-6.5 6.5-6.5s6.5 2.817 6.5 6.5-2.817 6.5-6.5 6.5-6.5-2.817-6.5-6.5z" id="a"/>
    </defs>
    <use fill="#232323" xlink:href="#a"/>
</svg>
