<svg width="23px" height="23px" viewBox="0 0 23 23" xmlns="http://www.w3.org/2000/svg">
    <title>
        settings
    </title>
    <path d="M22.99 8.18l-2.995-4.952L16.81 4.25a7.1 7.1 0 0 0-1.76-1.054L14.348 0H8.652l-.703 3.201a7.783 7.783 0 0 0-1.752 1.052L3.005 3.228 0 8.196l2.736 2.395a11.402 11.402 0 0 0-.022.814 11.402 11.402 0 0 0 .024.844L.019 14.836l2.986 4.936L6.19 18.75a7.1 7.1 0 0 0 1.76 1.054L8.652 23h5.696l.712-3.239a9.693 9.693 0 0 0 1.734-1.016l3.2 1.027L23 14.804l-2.74-2.398a3.5 3.5 0 0 0 .013-.183c.011-.205.013-.359.013-.723h-2.034c0 .325-.002.454-.01.607-.01.183-.03.346-.063.519l-.117.602 2.285 2-1.249 2.066-2.745-.882-.428.377c-.532.469-1.254.892-2.12 1.249l-.497.204L12.72 21h-2.44l-.6-2.818-.569-.175c-.728-.225-1.343-.596-2.027-1.211l-.429-.386-2.752.884-1.268-2.097 2.323-2.21-.146-.6a2.435 2.435 0 0 1-.053-.422 9.724 9.724 0 0 1-.01-.56c0-.278.002-.409.01-.56.01-.179.028-.32.053-.422l.153-.629-2.311-2.023 1.249-2.065 2.745.882.428-.377c.656-.577 1.354-1.008 2.035-1.218l.57-.175L10.278 2h2.442l.6 2.818.569.175c.728.225 1.343.596 2.027 1.211l.429.386 2.752-.884 1.26 2.081-2.318 2.117.15.614c.05.21.062.404.062.982h2.034c0-.359-.004-.615-.02-.833L22.99 8.18zM9 11.5c0 1.445 1.055 2.5 2.5 2.5s2.5-1.055 2.5-2.5S12.945 9 11.5 9 9 10.055 9 11.5zm-2 0C7 8.95 8.95 7 11.5 7S16 8.95 16 11.5 14.05 16 11.5 16 7 14.05 7 11.5z" fill="#232323"/>
</svg>
