<?xml version="1.0" encoding="UTF-8"?>
<svg width="59px" height="58px" viewBox="0 0 59 58" version="1.1" xmlns="http://www.w3.org/2000/svg" xmlns:xlink="http://www.w3.org/1999/xlink">
    <!-- Generator: Sketch 51.3 (57544) - http://www.bohemiancoding.com/sketch -->
    <title>tools-l</title>
    <desc>Created with Sketch.</desc>
    <defs>
        <path d="M48.5308722,7.88318182 L42.6797577,13.7155069 L43.5797772,17.5907989 L47.6926459,18.6933555 L53.5793488,12.7626023 C53.5787451,12.7620001 53.5781412,12.7613982 53.5775372,12.7607968 L54.6926157,11.6410047 L54.8856921,11.4464836 L56.3999926,9.92641051 C58.2037094,11.7225348 59.0983014,14.5416546 59.2278419,18.4095597 C59.1809213,27.8923523 52.1758355,35.7651133 42.9502796,36.2486042 C40.3149901,36.3867139 38.139963,36.235961 36.3330898,35.6686107 L12.1947945,59.84241 L1.54520953,49.2445797 L25.7053299,25.0964065 C25.283146,23.6181777 25.0655339,21.8931588 25.0655339,20.042738 C25.0655339,10.5501549 31.9455487,2.74863678 41.169287,2.26524114 C44.9379126,2.06773584 49.493124,3.18383935 51.3642334,5.0596948 L48.5322259,7.88453705 C48.5317753,7.88408529 48.5313241,7.88363355 48.5308722,7.88318182 Z M44.3271287,6.42564726 C43.345404,6.2784628 42.317969,6.21053065 41.3786308,6.25975928 C34.3464586,6.62829981 29.0655339,12.616547 29.0655339,20.042738 C29.0655339,22.8428472 29.6934644,25.1188196 30.4906923,25.9332161 L30.4863532,25.9374637 L30.5042229,25.9553423 L7.20966468,49.2383814 L12.1858341,54.1903677 L32.7796308,33.5662803 C32.7678675,33.5546357 32.7561287,33.5429486 32.7444143,33.531219 L35.5746751,30.7046267 C36.8513372,31.9829458 39.0909911,32.4453716 42.7409357,32.2540861 C49.7863629,31.8848509 55.1911729,25.8105817 55.2290133,18.4673867 C55.2099593,17.9050046 55.1716659,17.3804417 55.1152091,16.8933079 L48.897471,23.1575736 L40.2263177,20.8330556 L38.2801378,12.4532198 L44.3271287,6.42564726 Z" id="path-1"></path>
    </defs>
    <g id="Page-1" stroke="none" stroke-width="1" fill="none" fill-rule="evenodd">
        <g id="Large_Icon3" transform="translate(-1.000000, -2.000000)">
            <mask id="mask-2" fill="white">
                <use xlink:href="#path-1"></use>
            </mask>
            <use id="tools-l" fill="#232323" fill-rule="nonzero" xlink:href="#path-1"></use>
        </g>
    </g>
</svg>