<?xml version="1.0" encoding="UTF-8"?>
<svg width="35px" height="35px" viewBox="0 0 35 35" version="1.1" xmlns="http://www.w3.org/2000/svg" xmlns:xlink="http://www.w3.org/1999/xlink">
    <!-- Generator: Sketch 51.3 (57544) - http://www.bohemiancoding.com/sketch -->
    <title>tools-m</title>
    <desc>Created with Sketch.</desc>
    <defs>
        <path d="M28.8808734,5.31010451 L25.8042619,8.39591361 L26.3543126,10.4023884 L28.4739131,11.0589504 L32.8022058,6.73924782 L32.8084561,6.74551058 L33.8100842,5.74048902 C35.1231635,7.04913466 35.3934659,8.2746134 35.4939049,11.1508108 C35.6866495,16.6702939 31.3684747,21.3009694 25.8489916,21.493714 C24.4761944,21.5416532 23.4589313,21.4925393 22.5651195,21.2625115 L8.15346272,35.6970329 L1.22719264,28.7907935 L15.7278594,14.2251951 C15.5603089,13.3726887 15.4835502,12.4899411 15.505858,11.7511779 C15.6741932,6.17644548 19.7464824,1.69462745 25.1510016,1.50589748 C27.3908989,1.42767854 29.8544629,2.04688356 31.005233,3.19163878 L28.8894784,5.31851031 C28.8866613,5.31570785 28.8837928,5.31290588 28.8808734,5.31010451 Z M25.452292,4.49994861 C25.3864448,4.50043328 25.3208734,4.50179406 25.2557001,4.50406996 C21.4940151,4.63543089 18.626808,7.79097809 18.5044912,11.841725 C18.4747347,12.8271664 18.8447108,14.7051726 19.0700544,15.0302734 L19.1150095,15.0750281 L5.46816014,28.7829858 L8.14871098,31.4557846 L21.9695967,17.6129715 L22.1313791,17.7744976 C23.0755748,18.436421 23.8045643,18.5632784 25.7442931,18.4955415 C29.5988805,18.3609364 32.6164873,15.134317 32.4966286,11.2826512 L29.3133587,14.4596035 L23.8958269,12.7814825 L22.4508215,7.51039208 L25.452292,4.49994861 Z" id="path-1"></path>
    </defs>
    <g id="Page-1" stroke="none" stroke-width="1" fill="none" fill-rule="evenodd">
        <g id="Medium_Icon3" transform="translate(-1.000000, -1.000000)">
            <mask id="mask-2" fill="white">
                <use xlink:href="#path-1"></use>
            </mask>
            <use id="tools-m" fill="#232323" fill-rule="nonzero" xlink:href="#path-1"></use>
        </g>
    </g>
</svg>