<?xml version="1.0" encoding="UTF-8"?>
<svg width="21px" height="21px" viewBox="0 0 21 21" version="1.1" xmlns="http://www.w3.org/2000/svg" xmlns:xlink="http://www.w3.org/1999/xlink">
    <!-- Generator: Sketch 51.3 (57544) - http://www.bohemiancoding.com/sketch -->
    <title>tools</title>
    <desc>Created with Sketch.</desc>
    <defs>
        <path d="M14.4403271,12.7950546 L5.55439295,21.5939577 L1.52991357,17.2640766 L10.2062494,8.59570927 C10.0718246,8.07587096 10,7.52873304 10,7 C10,3.6862915 12.6862915,1 16,1 C17.4366323,1 18.7339004,1.36390579 19.5066168,2.16778315 L18.9464308,2.70625453 L16.1317797,5.52182222 L16.4447955,6.54745577 L17.4808378,6.86690961 L20.2930253,4.05577243 L20.8885741,3.4494607 C21.6757192,4.22182224 22,5.51012928 22,7 C22,10.3137085 19.3137085,13 16,13 C15.4669025,13 14.9434608,12.9301562 14.4403271,12.7950546 Z M13.9290477,10.4867163 L13.9569835,10.4398076 C14.5697965,10.804759 15.2693938,11 16,11 C18.1486191,11 19.901564,9.30591707 19.9959961,7.18058966 L18.0427659,9.13309039 L14.8416031,8.14604212 L13.8682203,4.95663721 L15.8216836,3.00390353 C13.6952911,3.0971862 12,4.85061488 12,7 C12,7.73339894 12.2113051,8.53809834 12.5344478,9.04982562 L12.5321242,9.05129296 L12.5560273,9.07521804 L4.30819101,17.3154793 L5.6139726,18.7203515 L13.9290477,10.4867163 Z" id="path-1"></path>
    </defs>
    <g id="Page-1" stroke="none" stroke-width="1" fill="none" fill-rule="evenodd">
        <g id="Small_Icon1-Copy" transform="translate(-1.000000, -1.000000)">
            <mask id="mask-2" fill="white">
                <use xlink:href="#path-1"></use>
            </mask>
            <use id="tools" fill="#232323" fill-rule="nonzero" xlink:href="#path-1"></use>
        </g>
    </g>
</svg>