<?xml version="1.0" encoding="UTF-8"?>
<svg width="37px" height="37px" viewBox="0 0 37 37" version="1.1" xmlns="http://www.w3.org/2000/svg" xmlns:xlink="http://www.w3.org/1999/xlink">
    <!-- Generator: Sketch 51.3 (57544) - http://www.bohemiancoding.com/sketch -->
    <title>tools-m-l</title>
    <desc>Created with Sketch.</desc>
    <defs>
        <path d="M31.7691262,4.29079777 L31.7715928,4.29326991 L26.9782014,9.07574716 L27.4475252,11.3373972 L29.8480397,11.9226677 L34.5888285,7.17603469 L35.96386,5.76857039 C37.253953,7.02893521 37.5333621,8.23245834 37.6932408,11.2833106 C37.9962877,17.0657909 33.5640148,21.9875705 27.7942682,22.2899501 C26.0817466,22.3796996 24.4377712,22.0971977 23.1107174,21.4770217 L7.28600315,37.2828451 L1.65108278,31.6146879 L17.3951668,15.9480167 C17.0076553,14.791277 16.7848838,13.3898367 16.7984325,12.326716 C16.8731971,6.46020053 21.0546256,1.69445037 26.6994,1.39862028 C28.9442371,1.28097335 31.7970775,2.04564966 32.9057629,3.16826184 L31.7691262,4.29079777 Z M29.5320886,3.70246602 C28.6629422,3.48081496 27.6618864,3.35092319 26.8040719,3.39587934 C22.2536094,3.63435898 18.8600811,7.50210606 18.7982701,12.3522025 C18.7825643,13.5845836 19.2731789,15.7261933 19.7288128,16.2887922 L19.8080793,16.3684504 L4.47882668,31.6223299 L7.29101214,34.4511027 L21.4251807,20.3338069 L22.8253474,18.9056844 C23.8031318,19.8654268 25.6560554,20.3992644 27.6895963,20.2926911 C32.3563556,20.0481166 35.9412164,16.0673386 35.6966874,11.4014472 C35.645184,10.4186455 35.5838011,9.68552349 35.4826805,9.11125189 L30.4677656,14.1323488 L25.7460159,12.9811369 L24.8002494,8.42353126 L29.5320886,3.70246602 Z" id="path-1"></path>
    </defs>
    <g id="Page-1" stroke="none" stroke-width="1" fill="none" fill-rule="evenodd">
        <g id="Medium-Light_Icon3" transform="translate(-1.000000, -1.000000)">
            <mask id="mask-2" fill="white">
                <use xlink:href="#path-1"></use>
            </mask>
            <use id="tools-m-l" fill="#232323" fill-rule="nonzero" xlink:href="#path-1"></use>
        </g>
    </g>
</svg>