<svg width="37px" height="37px" viewBox="0 0 37 37" xmlns="http://www.w3.org/2000/svg">
    <title>
        view-m
    </title>
    <path d="M22 18.5c0-1.934-1.566-3.5-3.5-3.5a3.499 3.499 0 0 0-3.5 3.5c0 1.934 1.566 3.5 3.5 3.5s3.5-1.566 3.5-3.5zm3 0a6.5 6.5 0 1 1-13 0 6.5 6.5 0 0 1 13 0zM18.5 10c-6.313 0-12.008 3.31-15.097 8.5C6.492 23.69 12.187 27 18.5 27c6.313 0 12.007-3.31 15.097-8.5-3.09-5.19-8.784-8.5-15.097-8.5zM37 18.5C33.714 25.3 26.665 30 18.5 30S3.285 25.3 0 18.5C3.285 11.7 10.335 7 18.5 7S33.714 11.7 37 18.5z" fill="#232323"/>
</svg>
