<svg width="37px" height="37px" viewBox="0 0 37 37" xmlns="http://www.w3.org/2000/svg">
    <title>
        view-m-l
    </title>
    <path d="M23 18.5a4.5 4.5 0 0 0-4.5-4.5 4.499 4.499 0 0 0-4.5 4.5c0 2.486 2.014 4.5 4.5 4.5s4.5-2.014 4.5-4.5zm2 0a6.5 6.5 0 1 1-13 0 6.5 6.5 0 0 1 13 0zM18.5 9c-6.874 0-13.06 3.717-16.25 9.5C5.442 24.283 11.627 28 18.5 28c6.874 0 13.057-3.716 16.25-9.5C31.556 12.716 25.373 9 18.5 9zM37 18.5C33.714 25.3 26.665 30 18.5 30S3.285 25.3 0 18.5C3.285 11.7 10.335 7 18.5 7S33.714 11.7 37 18.5z" fill="#232323"/>
</svg>
