<svg width="37px" height="37px" viewBox="0 0 37 37" xmlns="http://www.w3.org/2000/svg">
    <title>
        zoom-out-m-l
    </title>
    <path d="M7 14h12v-2H7v2zM5.222 5.222c-4.296 4.296-4.296 11.26 0 15.556 4.296 4.296 11.26 4.296 15.556 0 4.296-4.296 4.296-11.26 0-15.556-4.296-4.296-11.26-4.296-15.556 0zm16.97-1.414c5.077 5.077 5.077 13.308 0 18.385-5.077 5.076-13.308 5.076-18.385 0-5.076-5.077-5.076-13.308 0-18.385 5.077-5.077 13.308-5.077 18.385 0zm1.1 20.9l12 12 1.415-1.415-12-12-1.414 1.414z" fill="#232323"/>
</svg>
