<svg width="37px" height="36px" viewBox="0 0 37 36" xmlns="http://www.w3.org/2000/svg" xmlns:xlink="http://www.w3.org/1999/xlink">
    <title>
        clear-formatting-m
    </title>
    <defs>
        <path d="M13.25 15H5.52l-2.664 6.594L.075 20.47 7.877 1.16A1.5 1.5 0 0 1 9.03.241c.594-.123 1.287.094 1.652.559.083.098.147.212.187.334l5.95 14.726 8.287-8.288 11.375 11.375L19.42 36.01 8.043 24.635l6.474-6.473L13.249 15zm-1.203-3L9.4 5.398 6.733 12h5.314zm10.127 17.013L15.04 21.88l-2.755 2.755 7.133 7.133 2.755-2.755zm2.121-2.122l7.944-7.944-7.133-7.132-7.943 7.944 7.132 7.132z" id="a"/>
    </defs>
    <use fill="#232323" xlink:href="#a"/>
</svg>
