<svg width="61px" height="60px" viewBox="0 0 61 60" xmlns="http://www.w3.org/2000/svg" xmlns:xlink="http://www.w3.org/1999/xlink">
    <title>
        clear-formatting-l
    </title>
    <defs>
        <path d="M22.459 25H8.009L3.8 35.424.09 33.925 13.13 1.652A2 2 0 0 1 15.241.417a1.94 1.94 0 0 1 2.065 1.195l10.06 24.898L41.39 12.484l18.754 18.754-28.13 28.13L13.26 40.615l11.036-11.037L22.459 25zm-1.606-4L15.257 7.062 9.627 21h11.226zm16.596 27.277L24.352 35.18l-5.434 5.435L32.015 53.71l5.434-5.434zm2.828-2.828l14.211-14.211L41.391 18.14l-14.21 14.211 13.096 13.097z" id="a"/>
    </defs>
    <use fill="#232323" xlink:href="#a"/>
</svg>
