<svg width="23px" height="23px" viewBox="0 0 23 23" xmlns="http://www.w3.org/2000/svg" xmlns:xlink="http://www.w3.org/1999/xlink">
    <title>
        clear-formatting
    </title>
    <defs>
        <path d="M8.468 10H3.45l-1.625 4.022-1.855-.75L5.028.757a1 1 0 0 1 1.77-.162c.042.06.078.125.106.196l3.632 8.988 5.07-5.07 7.072 7.07L12.07 22.385 5 15.314l4-4L8.467 10zM7.66 8l-1.7-4.21L4.257 8H7.66zm5.947 10.02l-4.243-4.242-1.536 1.536 4.243 4.242 1.536-1.535zm1.414-1.413l4.828-4.829-4.242-4.242-4.829 4.828 4.243 4.243z" id="a"/>
    </defs>
    <use fill="#232323" xlink:href="#a"/>
</svg>
