<svg width="37px" height="37px" viewBox="0 0 37 37" xmlns="http://www.w3.org/2000/svg">
    <title>
        list-ordered-m
    </title>
    <path d="M9 11V8h28v3H9zm0 9v-3h28v3H9zm0 9v-3h28v3H9zm-5.526-1.52a1.298 1.298 0 0 1 .611.43c.074.098.13.204.17.317.04.114.06.228.06.344 0 .287-.06.534-.181.74-.12.206-.278.375-.473.507a2.022 2.022 0 0 1-.66.288 3.11 3.11 0 0 1-1.483.004 2.238 2.238 0 0 1-.667-.275 2.049 2.049 0 0 1-.528-.472 1.753 1.753 0 0 1-.323-.68l1.542-.362c.028.12.096.231.205.333a.59.59 0 0 0 .42.153.659.659 0 0 0 .146-.017.46.46 0 0 0 .14-.056.283.283 0 0 0 .146-.26c0-.149-.066-.246-.195-.292a1.59 1.59 0 0 0-.521-.07H1.41v-1.139h.528c.176 0 .318-.024.424-.073.107-.049.16-.142.16-.281 0-.107-.042-.18-.125-.223a.583.583 0 0 0-.264-.062.526.526 0 0 0-.32.108.47.47 0 0 0-.18.316L.097 26.43a1.875 1.875 0 0 1 .879-1.118c.197-.112.408-.191.632-.24a3.003 3.003 0 0 1 1.337.007c.232.053.443.139.633.257s.345.269.465.452c.12.182.181.404.181.663 0 .278-.073.5-.219.663a1.11 1.11 0 0 1-.531.337v.028zm-1.327-9.264a.887.887 0 0 0 .194-.201.4.4 0 0 0 .077-.23.368.368 0 0 0-.087-.243c-.058-.07-.15-.104-.275-.104a.414.414 0 0 0-.333.16.716.716 0 0 0-.146.43L0 17.849a2.04 2.04 0 0 1 .25-.827c.134-.231.302-.424.504-.576.201-.153.426-.266.674-.337.247-.072.503-.108.767-.108.241 0 .48.03.72.09.238.06.45.154.635.282.185.127.336.293.452.496.115.204.173.45.173.737 0 .204-.026.383-.08.538a1.49 1.49 0 0 1-.215.414c-.09.12-.192.229-.306.326-.113.097-.232.19-.357.278l-.723.514H4.19v1.383H.201v-1.286l1.946-1.556zm-.542-9.465l-.827.57L0 8.11 1.744 7h1.528v4.919H1.605V8.75z" fill="#232323"/>
</svg>
