<svg width="23px" height="23px" viewBox="0 0 23 23" xmlns="http://www.w3.org/2000/svg">
    <title>
        list-ordered
    </title>
    <path d="M7 6V4h16v2H7zm0 7v-2h16v2H7zm0 7v-2h16v2H7zm-4.25-1.037a1.027 1.027 0 0 1 .484.341.893.893 0 0 1 .182.523 1.141 1.141 0 0 1-.517.987 1.6 1.6 0 0 1-.523.229 2.462 2.462 0 0 1-1.174.002 1.772 1.772 0 0 1-.528-.217 1.622 1.622 0 0 1-.418-.374A1.37 1.37 0 0 1 0 19.915l1.221-.286a.524.524 0 0 0 .162.264.47.47 0 0 0 .333.121.521.521 0 0 0 .116-.014.364.364 0 0 0 .11-.044.224.224 0 0 0 .116-.206c-.001-.117-.052-.194-.155-.231a1.26 1.26 0 0 0-.412-.055h-.374v-.902h.418c.139 0 .25-.02.335-.058.084-.038.127-.112.127-.223 0-.084-.033-.142-.1-.175a.461.461 0 0 0-.208-.05.417.417 0 0 0-.253.085.372.372 0 0 0-.143.25l-1.216-.258c.066-.213.16-.391.28-.536a1.5 1.5 0 0 1 .416-.35 1.82 1.82 0 0 1 .5-.19 2.377 2.377 0 0 1 1.059.006c.183.042.35.11.5.204.15.093.274.212.369.357.095.145.143.32.143.526 0 .22-.058.395-.173.525a.878.878 0 0 1-.421.267v.021zM1.7 11.755a.702.702 0 0 0 .154-.159.32.32 0 0 0 .06-.181.292.292 0 0 0-.069-.193c-.046-.055-.118-.082-.217-.082a.328.328 0 0 0-.264.126.567.567 0 0 0-.115.341L0 11.463a1.526 1.526 0 0 1 .597-1.111c.16-.121.337-.21.533-.267.196-.057.399-.085.608-.085.19 0 .38.024.57.072.188.047.356.121.503.222.146.101.265.232.357.393.092.162.138.356.138.584 0 .16-.022.303-.064.426a1.179 1.179 0 0 1-.17.327 1.618 1.618 0 0 1-.242.259c-.09.077-.184.15-.283.22l-.572.407h1.342v1.094H.16v-1.017l1.54-1.232zm-.43-7.368l-.654.451L0 3.88 1.38 3h1.21v3.894H1.27V4.386z" fill="#232323"/>
</svg>
