<svg width="37px" height="37px" viewBox="0 0 37 37" xmlns="http://www.w3.org/2000/svg">
    <title>
        list-ordered-m-l
    </title>
    <path d="M8 11V9h29v2H8zm0 8v-2h29v2H8zm0 8v-2h29v2H8zm-4.96-1.356a1.136 1.136 0 0 1 .534.377.989.989 0 0 1 .15.276c.034.1.051.2.051.301 0 .252-.053.467-.158.648-.105.18-.243.328-.413.443-.17.116-.363.2-.578.253a2.72 2.72 0 0 1-1.298.003 1.958 1.958 0 0 1-.583-.24 1.792 1.792 0 0 1-.462-.414A1.534 1.534 0 0 1 0 26.696l1.35-.317a.579.579 0 0 0 .179.292c.095.09.218.134.368.134.04 0 .083-.005.127-.015a.402.402 0 0 0 .122-.049.247.247 0 0 0 .128-.228c0-.13-.057-.215-.17-.255a1.392 1.392 0 0 0-.457-.06h-.413V25.2h.462a.903.903 0 0 0 .37-.064c.094-.042.14-.124.14-.246 0-.093-.036-.158-.109-.194a.51.51 0 0 0-.23-.055.46.46 0 0 0-.28.094.411.411 0 0 0-.158.277l-1.344-.286c.073-.235.176-.433.31-.593a1.67 1.67 0 0 1 .46-.386 1.97 1.97 0 0 1 .552-.21 2.628 2.628 0 0 1 1.17.006c.203.047.387.122.554.226.166.103.302.235.407.395.105.16.158.353.158.58 0 .243-.064.437-.191.58a.97.97 0 0 1-.466.296v.024zm-1.162-7.968a.776.776 0 0 0 .17-.176.35.35 0 0 0 .067-.2.322.322 0 0 0-.076-.214c-.05-.06-.13-.09-.24-.09a.363.363 0 0 0-.291.139.626.626 0 0 0-.128.377L0 17.354a1.686 1.686 0 0 1 .66-1.228c.176-.134.372-.232.59-.295.216-.063.44-.094.67-.094.212 0 .421.026.63.079.209.053.394.135.556.246.162.112.294.256.395.435.102.178.152.393.152.644 0 .178-.023.335-.07.471a1.28 1.28 0 0 1-.188.362c-.079.105-.168.2-.267.286-.1.085-.204.166-.313.243l-.633.45h1.484v1.21H.176v-1.125l1.702-1.362zm-.474-8.144l-.723.498L0 8.973 1.526 8h1.337v4.304H1.404V9.532z" fill="#232323"/>
</svg>
