<svg width="61px" height="61px" viewBox="0 0 61 61" xmlns="http://www.w3.org/2000/svg">
    <title>
        list-ordered-l
    </title>
    <path d="M13 17v-4h48v4H13zm0 15v-4h48v4H13zm0 15v-4h48v4H13zm-7.934-1.975a1.859 1.859 0 0 1 .891.628c.108.142.191.296.249.461.057.166.086.333.086.502 0 .418-.088.778-.264 1.079a2.26 2.26 0 0 1-.689.74 2.948 2.948 0 0 1-.962.42 4.53 4.53 0 0 1-1.084.132c-.365 0-.725-.043-1.08-.127a3.264 3.264 0 0 1-.972-.4 2.987 2.987 0 0 1-.77-.69A2.556 2.556 0 0 1 0 46.779l2.25-.527a.96.96 0 0 0 .298.486.86.86 0 0 0 .613.223.96.96 0 0 0 .213-.025.67.67 0 0 0 .202-.081.412.412 0 0 0 .213-.38c0-.216-.094-.358-.283-.426-.19-.067-.443-.101-.76-.101h-.69v-1.662h.77c.257 0 .463-.035.619-.106.155-.07.233-.208.233-.41 0-.156-.061-.264-.183-.324a.85.85 0 0 0-.385-.092.768.768 0 0 0-.466.157.685.685 0 0 0-.263.461l-2.24-.476c.122-.392.295-.72.518-.988.222-.266.477-.48.764-.643.288-.162.595-.279.922-.35.328-.07.65-.106.968-.106.317 0 .645.039.983.117.338.077.645.202.922.374.277.173.503.392.679.659.175.267.263.59.263.968 0 .405-.106.727-.32.967-.212.24-.47.404-.774.492v.04zM3.13 29.357c.114-.088.209-.186.283-.294a.583.583 0 0 0 .112-.334.537.537 0 0 0-.127-.355c-.084-.101-.218-.152-.4-.152a.604.604 0 0 0-.486.233c-.129.156-.2.365-.213.628L0 28.82c.047-.466.169-.868.365-1.206a2.81 2.81 0 0 1 .734-.84c.294-.223.622-.387.983-.492a4.003 4.003 0 0 1 1.12-.157c.35 0 .7.044 1.048.132.348.088.657.224.927.41.27.186.49.427.659.724.169.298.253.656.253 1.074 0 .298-.039.56-.116.786a2.172 2.172 0 0 1-.315.602 2.98 2.98 0 0 1-.445.477 7.25 7.25 0 0 1-.522.405l-1.054.75H6.11V33.5H.294v-1.875l2.837-2.269zm-.79-14.804l-1.206.83L0 13.622 2.543 12h2.229v7.173H2.34v-4.62z" fill="#232323"/>
</svg>
