<svg width="37px" height="37px" viewBox="0 0 37 37" xmlns="http://www.w3.org/2000/svg">
    <title>
        type-underline-m
    </title>
    <path d="M7.183 20.55A9.121 9.121 0 0 1 7 18.863V0h3.948v18.873c0 .144.025.465.108.897.141.73.395 1.455.782 2.12 1.12 1.92 3.155 3.074 6.658 3.074 3.504 0 5.542-1.155 6.663-3.075a6.753 6.753 0 0 0 .784-2.123c.084-.432.11-.752.11-.9V0H30v18.86c.001.393-.046.975-.184 1.688a10.8 10.8 0 0 1-1.268 3.41C26.707 27.111 23.375 29 18.496 29c-4.878 0-8.21-1.89-10.049-5.043a10.792 10.792 0 0 1-1.264-3.406zM6 37v-3h25.74v3H6z" fill="#232323"/>
</svg>
