<svg width="61px" height="61px" viewBox="0 0 61 61" xmlns="http://www.w3.org/2000/svg">
    <title>
        type-underline-l
    </title>
    <path d="M11.759 33.74c-.23-1.17-.31-2.121-.307-2.761V0h6v30.997c-.001.265.045.83.194 1.582.25 1.265.7 2.526 1.39 3.684 1.992 3.34 5.615 5.35 11.765 5.35s9.776-2.01 11.772-5.352a11.568 11.568 0 0 0 1.394-3.69c.149-.751.196-1.314.195-1.587V0h6v30.976c.002.637-.077 1.588-.308 2.759a17.503 17.503 0 0 1-2.13 5.602c-3.09 5.176-8.683 8.277-16.923 8.277-8.241 0-13.833-3.102-16.92-8.279a17.49 17.49 0 0 1-2.122-5.596zM9 61v-5h43.614v5H9z" fill="#232323"/>
</svg>
