<svg width="23px" height="23px" viewBox="0 0 23 23" xmlns="http://www.w3.org/2000/svg">
    <title>
        type-underline
    </title>
    <path d="M4.948 14.268c-.717-1.202-.95-2.387-.948-3.27V0h3v11.006c0 .072.015.253.064.502.083.422.233.841.46 1.224.659 1.103 1.857 1.768 3.974 1.768s3.316-.665 3.976-1.769c.228-.383.379-.804.462-1.226.05-.248.064-.429.064-.505V0h3v10.996c.003.882-.232 2.07-.95 3.273-1.207 2.02-3.39 3.231-6.552 3.231-3.163 0-5.345-1.21-6.55-3.232zM3 23v-2h17v2H3z" fill="#232323"/>
</svg>
