<svg width="61px" height="61px" viewBox="0 0 61 61" xmlns="http://www.w3.org/2000/svg">
    <title>
        type-bold-l
    </title>
    <path d="M53.44 42.415c0 3.113-.617 5.73-1.851 7.85-1.234 2.12-2.871 3.824-4.911 5.112-2.04 1.288-4.36 2.214-6.964 2.778a37.75 37.75 0 0 1-8.01.845H9V2h22.703c2.201 0 4.455.228 6.763.684 2.308.457 4.401 1.235 6.28 2.335 1.878 1.1 3.408 2.59 4.589 4.468 1.18 1.879 1.77 4.267 1.77 7.166 0 3.166-.858 5.783-2.575 7.85-1.718 2.066-3.972 3.555-6.763 4.467v.161a15.63 15.63 0 0 1 4.549 1.49 13.15 13.15 0 0 1 3.703 2.777c1.047 1.127 1.879 2.442 2.496 3.945.617 1.503.926 3.194.926 5.072zm-15.618-23.91c0-1.933-.738-3.342-2.214-4.227-1.476-.886-3.663-1.329-6.561-1.329h-6.763v11.754h7.407c2.576 0 4.575-.523 5.998-1.57 1.422-1.046 2.133-2.59 2.133-4.629zm1.852 22.622c0-2.361-.886-3.998-2.657-4.91-1.771-.913-4.133-1.37-7.085-1.37h-7.648V47.89h7.729a20.76 20.76 0 0 0 3.34-.282c1.155-.188 2.201-.523 3.14-1.006a6.032 6.032 0 0 0 2.295-2.053c.59-.886.886-2.026.886-3.422z" fill="#232323" fill-rule="evenodd"/>
</svg>
