<svg width="37px" height="37px" viewBox="0 0 37 37" xmlns="http://www.w3.org/2000/svg">
    <title>
        type-bold-m
    </title>
    <path d="M32.847 26.234c0 2.021-.4 3.72-1.202 5.096a9.54 9.54 0 0 1-3.187 3.318c-1.324.836-2.831 1.437-4.52 1.803-1.69.366-3.424.549-5.2.549H4V0h14.737c1.429 0 2.892.148 4.39.444 1.498.296 2.857.802 4.076 1.516a8.626 8.626 0 0 1 2.98 2.9c.766 1.22 1.149 2.77 1.149 4.651 0 2.056-.558 3.754-1.672 5.096-1.115 1.341-2.579 2.308-4.39 2.9v.105c1.045.174 2.03.496 2.952.966a8.536 8.536 0 0 1 2.404 1.803 8.431 8.431 0 0 1 1.62 2.561c.401.976.601 2.073.601 3.292zM22.71 10.714c0-1.255-.479-2.17-1.437-2.744-.958-.575-2.378-.863-4.26-.863h-4.39v7.63h4.809c1.672 0 2.97-.34 3.893-1.019.923-.68 1.385-1.68 1.385-3.005zm1.202 14.684c0-1.533-.575-2.595-1.725-3.188-1.15-.592-2.682-.888-4.598-.888h-4.965v8.466h5.017c.697 0 1.42-.06 2.169-.183a6.824 6.824 0 0 0 2.038-.653 3.916 3.916 0 0 0 1.49-1.333c.382-.575.574-1.315.574-2.22z" fill="#232323" fill-rule="evenodd"/>
</svg>
