<svg width="23px" height="23px" viewBox="0 0 23 23" xmlns="http://www.w3.org/2000/svg">
    <title>
        type-bold
    </title>
    <path d="M20.932 16.308c0 1.256-.249 2.312-.747 3.167a5.93 5.93 0 0 1-1.982 2.063c-.823.52-1.76.893-2.81 1.12-1.05.228-2.127.342-3.232.342H3V0h9.161c.888 0 1.798.092 2.729.276a8.068 8.068 0 0 1 2.534.942 5.362 5.362 0 0 1 1.851 1.803c.477.758.715 1.722.715 2.891 0 1.278-.346 2.334-1.04 3.168-.692.834-1.602 1.435-2.728 1.803v.065a6.3 6.3 0 0 1 1.835.6 5.306 5.306 0 0 1 1.495 1.121 5.24 5.24 0 0 1 1.007 1.592c.249.607.373 1.289.373 2.047zM14.63 6.66c0-.78-.298-1.349-.893-1.706-.596-.357-1.479-.536-2.648-.536H8.36v4.743h2.989c1.04 0 1.846-.211 2.42-.633.574-.423.86-1.045.86-1.868zm.747 9.128c0-.953-.357-1.613-1.072-1.982-.715-.368-1.668-.552-2.859-.552H8.36v5.263h3.119a8.39 8.39 0 0 0 1.348-.114 4.242 4.242 0 0 0 1.267-.406c.379-.195.688-.47.926-.828.238-.358.357-.818.357-1.38z" fill="#232323" fill-rule="evenodd"/>
</svg>
