<svg width="37px" height="37px" viewBox="0 0 37 37" xmlns="http://www.w3.org/2000/svg">
    <title>
        type-underline-m-l
    </title>
    <path d="M7.403 20.366a8.848 8.848 0 0 1-.186-1.674V0h4v18.704c0 .142.026.46.11.888.143.723.4 1.442.793 2.101 1.133 1.902 3.196 3.046 6.746 3.046 3.55 0 5.615-1.145 6.75-3.047a6.6 6.6 0 0 0 .795-2.104c.085-.428.111-.745.11-.892V0h4v18.69c.002.39-.046.967-.186 1.674a10.557 10.557 0 0 1-1.284 3.379c-1.866 3.124-5.242 4.996-10.185 4.996-4.943 0-8.319-1.872-10.182-4.997a10.549 10.549 0 0 1-1.281-3.376zM6 37v-3h25.74v3H6z" fill="#232323"/>
</svg>
